<svg width="308" height="374" viewBox="0 0 308 374" fill="none" xmlns="http://www.w3.org/2000/svg">
<path d="M219.099 274.922C225.614 270.085 235.294 270.062 241.831 274.867C244.59 276.895 246.878 279.917 246.996 283.338C247.115 286.76 244.387 290.333 240.965 290.235C238.513 290.166 236.437 288.366 235.032 286.356C233.626 284.347 232.658 282.043 231.117 280.135C228.288 276.631 223.532 274.792 219.082 275.48" fill="#FFEA7C"/>
<path d="M57.5152 295.331C55.0008 299.853 54.246 305.141 55.3898 310.187C56.3494 314.418 58.1481 319.743 61.5144 324.426C68.4283 334.046 85.5631 338.254 97.287 337.653C109.011 337.052 133.773 337.709 160.115 323.223C179.989 312.294 193.182 299.263 188.072 278.176C182.961 257.089 158.301 250.776 111.11 260.095C77.8143 266.67 63.2216 285.068 57.5152 295.331Z" fill="#E49D67"/>
<path opacity="0.2" d="M187.979 278.252C187.469 276.148 186.756 274.197 185.853 272.388C186.848 278.355 182.992 284.468 177.983 289.139C169.654 296.905 159.688 304.32 149.683 309.759C139.677 315.198 128.821 318.911 117.844 321.943C106.354 325.118 93.384 324.758 81.6098 322.904C70.0368 321.082 59.5886 317.055 54.9651 306.436C55.0168 307.702 55.1827 308.969 55.4668 310.222C56.425 314.448 58.2215 319.766 61.5836 324.443C68.4891 334.05 85.6018 338.253 97.3108 337.653C109.02 337.053 133.751 337.709 160.059 323.242C179.907 312.327 193.083 299.312 187.979 278.252Z" fill="black"/>
<path d="M182.215 266.835C182.215 266.835 182.325 266.927 182.53 267.12C182.743 267.326 183.042 267.615 183.432 267.991C184.105 268.845 185.153 270.176 185.608 272.251C186.063 274.297 185.917 276.982 184.793 279.75C183.715 282.533 181.821 285.422 179.22 288.12C176.558 290.757 173.467 293.437 170.059 296.213C166.64 298.972 162.868 301.778 158.742 304.498C154.619 307.22 150.134 309.854 145.29 312.197C140.448 314.543 135.267 316.612 129.869 318.446C127.169 319.364 124.479 320.204 121.815 320.986C119.151 321.756 116.521 322.538 113.873 323.053C108.587 324.103 103.38 324.495 98.4379 324.463C93.492 324.448 88.8012 324.041 84.4462 323.456C80.0935 322.871 76.0511 322.1 72.4835 320.959C68.9216 319.819 65.8076 318.392 63.3605 316.69C60.8992 315.009 59.08 313.159 57.8023 311.502C56.5578 309.817 55.7648 308.39 55.3041 307.393C55.0859 306.898 54.9179 306.518 54.7988 306.247C54.6869 305.989 54.6387 305.853 54.6387 305.853C54.6387 305.853 54.711 305.979 54.8336 306.232C54.9604 306.499 55.139 306.873 55.3715 307.36C55.8519 308.345 56.6627 309.753 57.9157 311.414C59.2034 313.047 61.0233 314.867 63.4761 316.519C65.9147 318.192 69.0145 319.592 72.5615 320.71C76.1149 321.829 80.1409 322.582 84.4866 323.153C88.8323 323.724 93.5104 324.118 98.4387 324.124C103.364 324.147 108.546 323.748 113.801 322.7C116.43 322.186 119.047 321.406 121.712 320.634C124.372 319.853 127.057 319.014 129.751 318.097C135.137 316.267 140.305 314.206 145.134 311.872C149.963 309.541 154.438 306.923 158.556 304.215C162.677 301.51 166.448 298.719 169.868 295.976C173.274 293.219 176.38 290.546 179.034 287.939C181.626 285.276 183.518 282.421 184.602 279.676C185.732 276.945 185.895 274.304 185.47 272.284C185.044 270.234 184.027 268.906 183.377 268.042C183.001 267.657 182.712 267.361 182.507 267.149C182.309 266.946 182.215 266.835 182.215 266.835Z" fill="#263238"/>
<path d="M64.1444 314.486C64.1373 314.497 64.0509 314.45 63.8936 314.35C63.7391 314.246 63.5002 314.105 63.2196 313.888C62.6477 313.467 61.8568 312.8 61.0028 311.854C60.151 310.908 59.2438 309.67 58.516 308.142C57.7761 306.626 57.2368 304.811 57.0852 302.861C56.9519 300.908 57.2297 299.035 57.7485 297.428C58.2602 295.815 58.9859 294.461 59.7101 293.414C60.4337 292.363 61.1325 291.6 61.6477 291.112C61.8979 290.86 62.1183 290.691 62.2586 290.569C62.4025 290.45 62.4818 290.392 62.4903 290.402C62.5534 290.461 61.3033 291.451 59.927 293.558C58.555 295.624 57.1773 299 57.4523 302.835C57.7379 306.667 59.5691 309.812 61.1984 311.683C62.8397 313.589 64.199 314.421 64.1444 314.486Z" fill="white"/>
<path d="M71.6609 318.153C71.6269 318.249 70.6177 317.981 69.4073 317.554C68.1961 317.126 67.2423 316.702 67.2763 316.606C67.3103 316.51 68.3188 316.778 69.5299 317.206C70.7404 317.632 71.6943 318.057 71.6609 318.153Z" fill="white"/>
<path d="M11.4981 176.843C7.7938 175.864 -3.00879 174.317 -5.10368 179.563C-6.10436 182.068 -6.83998 184.406 -4.04206 186.987C-0.388757 190.357 8.15594 193.494 10.6647 194.312C13.5874 195.266 19.624 196.926 23.1568 195.452C25.1922 194.602 26.4629 191.955 26.4154 189.903C26.2963 184.834 19.5935 178.983 11.4981 176.843Z" fill="#AD3030"/>
<path d="M11.5301 177.155C9.78816 176.686 -3.18232 173.711 -4.8116 180.259C-6.24174 186.007 6.59692 190.046 11.2034 191.549C15.8099 193.053 24.9563 195.001 25.9449 190.255C27.0221 185.079 18.4448 179.018 11.5301 177.155Z" fill="#F75757"/>
<path d="M8.90784 184.634C8.90996 184.621 9.01769 184.752 8.93902 184.988C8.88374 185.244 8.51947 185.431 8.11835 185.471C7.31328 185.606 6.09717 185.528 5.02421 184.788C4.96184 184.73 4.89664 184.651 4.88814 184.543C4.87751 184.438 4.94058 184.334 5.0157 184.283C5.16736 184.178 5.32753 184.167 5.46714 184.134C5.75487 184.074 6.0348 184.021 6.30552 183.986C6.84625 183.911 7.34588 183.937 7.75054 184.017C8.15804 184.095 8.46845 184.245 8.65554 184.382C8.84051 184.521 8.90784 184.634 8.90784 184.634C8.8972 184.642 8.81216 184.55 8.62152 184.43C8.43089 184.311 8.12828 184.182 7.7307 184.12C7.33312 184.055 6.85051 184.04 6.32253 184.122C6.05819 184.159 5.78251 184.214 5.4962 184.275C5.35304 184.307 5.20209 184.328 5.10287 184.401C5.00295 184.47 5.01499 184.587 5.12342 184.679C6.12268 185.365 7.32108 185.479 8.10277 185.367C8.5053 185.335 8.81642 185.19 8.88516 184.967C8.97304 184.759 8.89508 184.636 8.90784 184.634Z" fill="#AD3030"/>
<path d="M10.8721 185.574C10.8529 185.567 11.0152 185.493 11.152 185.679C11.2675 185.874 11.2201 186.166 11.2172 186.513C11.1945 186.856 11.118 187.321 10.7488 187.662C10.3725 188.024 9.71975 187.965 9.26831 187.658C8.78286 187.372 8.57167 186.681 8.90334 186.264C9.05358 186.062 9.25697 185.945 9.4384 185.847C9.62266 185.752 9.79204 185.666 9.95787 185.599C10.2867 185.459 10.5943 185.445 10.7885 185.499C10.9848 185.55 11.067 185.635 11.062 185.639C11.0705 185.66 10.6396 185.38 9.99897 185.695C9.70487 185.854 9.27965 186.008 9.0146 186.344C8.74743 186.692 8.91609 187.276 9.35123 187.536C9.76865 187.816 10.3384 187.866 10.6595 187.561C10.9897 187.268 11.0804 186.84 11.1137 186.506C11.1322 186.166 11.1867 185.866 11.1038 185.71C11.0053 185.545 10.8657 185.583 10.8721 185.574Z" fill="#AD3030"/>
<path d="M15.0845 187.412C15.0845 187.412 15.171 187.499 15.1986 187.708C15.2121 187.811 15.2106 187.941 15.166 188.085C15.1206 188.222 15.0264 188.4 14.8216 188.461C14.429 188.507 14.0002 188.356 13.5799 188.132C13.1597 187.922 12.6629 187.63 12.4035 187.101C12.2838 186.846 12.215 186.527 12.3773 186.262C12.5594 185.988 12.9017 186.001 13.1271 186.05C13.6048 186.158 13.9988 186.353 14.3035 186.555C14.93 186.947 15.1199 187.407 15.0845 187.412C15.0732 187.417 15.0306 187.312 14.9009 187.163C14.772 187.014 14.5487 186.828 14.2468 186.641C13.9456 186.457 13.5544 186.277 13.1009 186.182C12.884 186.139 12.6168 186.147 12.4985 186.339C12.3801 186.529 12.4248 186.806 12.536 187.036C12.7678 187.513 13.2284 187.797 13.6409 188.011C14.0484 188.242 14.4672 188.382 14.7946 188.359C15.105 188.254 15.1483 187.882 15.1405 187.711C15.1334 187.517 15.0689 187.417 15.0845 187.412Z" fill="#AD3030"/>
<path d="M7.45082 182.988C7.4324 182.981 7.60532 183.076 7.51815 183.324C7.39271 183.55 7.00577 183.628 6.61953 183.533C6.23259 183.445 5.77477 183.339 5.2794 183.158C4.79323 182.964 4.24116 182.737 3.8365 182.223C3.74224 182.088 3.72949 181.851 3.87548 181.724C4.01509 181.599 4.18446 181.589 4.33116 181.586C4.62527 181.6 4.89458 181.637 5.15467 181.689C5.67343 181.792 6.11849 181.976 6.46504 182.173C6.81088 182.372 7.05963 182.58 7.21979 182.733C7.38208 182.885 7.4572 182.984 7.45082 182.988C7.42886 183.012 7.10357 182.637 6.41543 182.263C6.071 182.083 5.63516 181.915 5.12844 181.822C4.87757 181.774 4.6033 181.74 4.33116 181.73C4.20076 181.73 4.05832 181.752 3.97682 181.83C3.8939 181.908 3.89249 182.035 3.96406 182.149C4.30636 182.586 4.86269 182.845 5.32759 183.031C5.80879 183.214 6.26448 183.331 6.64221 183.431C7.01002 183.536 7.35444 183.469 7.46783 183.295C7.55713 183.111 7.42319 182.99 7.45082 182.988Z" fill="#AD3030"/>
<path d="M9.34123 182.215C9.34123 182.215 9.40926 182.329 9.35611 182.547C9.32847 182.651 9.2491 182.786 9.09673 182.852C8.94862 182.92 8.75373 182.918 8.56805 182.859C8.20591 182.728 7.79274 182.563 7.35477 182.305C6.92743 182.046 6.4767 181.649 6.28252 181.072C6.26976 181.027 6.257 180.984 6.24496 180.942L6.24425 180.939L6.24354 180.933C6.24 180.9 6.23716 180.87 6.23433 180.841L6.23291 180.83L6.23504 180.82C6.30378 180.493 6.63261 180.322 6.90829 180.334C7.19248 180.34 7.4306 180.465 7.63541 180.585C8.04007 180.832 8.39796 181.062 8.67364 181.294C8.94933 181.524 9.14209 181.745 9.24343 181.921C9.34477 182.098 9.34831 182.215 9.34123 182.215C9.32918 182.219 9.30721 182.11 9.19666 181.951C9.0861 181.793 8.88696 181.587 8.60986 181.373C8.33347 181.159 7.97204 180.938 7.56808 180.701C7.36823 180.587 7.14428 180.479 6.90758 180.478C6.67726 180.468 6.42567 180.618 6.38032 180.848L6.38103 180.827C6.38386 180.856 6.3874 180.886 6.39095 180.918L6.38953 180.909C6.40016 180.947 6.41221 180.986 6.42425 181.027C6.60072 181.554 7.01885 181.935 7.42776 182.19C7.84235 182.445 8.26118 182.626 8.60065 182.762C8.94791 182.901 9.25477 182.734 9.30225 182.531C9.36674 182.337 9.32564 182.215 9.34123 182.215Z" fill="#AD3030"/>
<path d="M13.1971 182.12C13.1971 182.12 13.2708 182.217 13.2921 182.429C13.3155 182.627 13.263 182.997 12.9179 183.212C12.5792 183.423 12.1235 183.445 11.6359 183.474C11.39 183.478 11.1079 183.446 10.8677 183.284C10.6317 183.124 10.4595 182.864 10.3971 182.572C10.2433 181.88 10.7741 181.279 11.2978 181.129C11.8428 180.967 12.3439 181.148 12.6437 181.362L12.6401 181.36C12.9073 181.523 13.037 181.741 13.1114 181.883C13.1851 182.031 13.2042 182.117 13.1971 182.12C13.1674 182.148 13.0873 181.748 12.5948 181.443L12.5912 181.441C12.3006 181.252 11.8272 181.1 11.3389 181.257C10.8684 181.4 10.4042 181.945 10.5417 182.542C10.5955 182.798 10.7472 183.027 10.9485 183.165C11.1504 183.304 11.4006 183.339 11.6352 183.339C12.1079 183.32 12.5622 183.302 12.8626 183.124C13.173 182.947 13.2382 182.623 13.2347 182.432C13.2319 182.231 13.1837 182.124 13.1971 182.12Z" fill="#AD3030"/>
<path d="M16.677 184.723C16.6834 184.719 16.6883 184.862 16.5182 185.015C16.356 185.176 16.0044 185.237 15.6324 185.154C15.2093 185.071 14.7763 184.988 14.3284 184.901C14.086 184.847 13.8203 184.82 13.5559 184.694C13.3008 184.581 13.0372 184.265 13.1711 183.921C13.2646 183.712 13.4624 183.614 13.6339 183.548C13.8096 183.485 13.9875 183.444 14.1626 183.422C14.5134 183.378 14.8514 183.407 15.1519 183.47C15.4467 183.528 15.7302 183.593 15.9577 183.716C16.1859 183.835 16.3531 183.989 16.4793 184.123L16.4261 184.181L16.4254 184.18L16.4771 184.121C16.801 184.439 16.6862 184.747 16.677 184.723C16.6593 184.733 16.7365 184.453 16.4233 184.178L16.475 184.119L16.4757 184.12L16.4226 184.177C16.2929 184.054 16.1271 183.915 15.9095 183.811C15.6926 183.704 15.4247 183.648 15.1264 183.596C14.8344 183.541 14.5126 183.519 14.1803 183.564C13.8692 183.619 13.4517 183.694 13.3065 183.978C13.2122 184.207 13.3958 184.465 13.6197 184.564C13.8479 184.677 14.1122 184.711 14.3553 184.767C14.8004 184.864 15.2313 184.959 15.6515 185.051C16.0151 185.143 16.3205 185.102 16.4821 184.969C16.6472 184.846 16.6642 184.716 16.677 184.723Z" fill="#AD3030"/>
<path d="M17.2065 186.408C17.2129 186.403 17.2908 186.501 17.4489 186.67C17.5112 186.76 17.653 186.858 17.6282 187.069C17.5559 187.269 17.3107 187.323 17.1058 187.301C16.2823 187.169 15.1818 186.821 14.0875 186.183C13.9529 186.103 13.8019 186.009 13.719 185.846C13.6318 185.696 13.6524 185.459 13.8111 185.349C14.1293 185.154 14.4362 185.288 14.6956 185.31C15.2328 185.395 15.7189 185.502 16.1052 185.659C16.4928 185.814 16.7735 186.008 16.9514 186.156C17.1299 186.303 17.2065 186.408 17.2065 186.408C17.1838 186.437 16.833 186.042 16.0676 185.757C15.687 185.617 15.2101 185.523 14.6743 185.446C14.4135 185.415 14.1038 185.324 13.899 185.464C13.8055 185.532 13.7892 185.666 13.8508 185.781C13.9075 185.896 14.0308 185.979 14.1626 186.056C15.2349 186.684 16.3277 187.044 17.1165 187.198C17.3071 187.227 17.5006 187.171 17.5495 187.046C17.5785 186.921 17.4637 186.793 17.4049 186.707C17.2611 186.527 17.1959 186.414 17.2065 186.408Z" fill="#AD3030"/>
<path d="M0.338465 177.411C0.333504 177.516 -0.12502 177.57 -0.645908 177.746C-1.16963 177.915 -1.56934 178.144 -1.63666 178.062C-1.70399 177.99 -1.36027 177.591 -0.761426 177.395C-0.163999 177.197 0.349804 177.313 0.338465 177.411Z" fill="white"/>
<path d="M181.903 115.624C176.935 118.771 163.922 129.314 167.641 137.146C169.417 140.886 171.28 144.153 177.104 143.698C184.708 143.103 197.154 136.758 200.693 134.79C204.816 132.497 212.983 127.434 215.01 121.92C216.178 118.743 214.524 114.551 212.164 112.464C206.337 107.308 192.758 108.747 181.903 115.624Z" fill="#AD3030"/>
<path d="M182.287 115.914C179.942 117.385 163.06 128.878 168.73 137.544C173.707 145.151 191.648 134.916 198.147 131.301C204.647 127.686 216.383 119.425 212.071 113.36C207.37 106.747 191.6 110.076 182.287 115.914Z" fill="#F75757"/>
<path d="M187.968 126.668C187.956 126.658 188.208 126.677 188.385 127.008C188.472 127.164 188.522 127.401 188.452 127.652C188.39 127.903 188.24 128.155 188.063 128.414C187.375 129.452 186.015 130.73 184.086 131.161C183.96 131.171 183.813 131.16 183.695 131.067C183.578 130.977 183.531 130.817 183.55 130.687C183.586 130.422 183.738 130.231 183.847 130.038C184.08 129.653 184.31 129.282 184.552 128.943C185.028 128.258 185.573 127.723 186.081 127.35C186.589 126.971 187.076 126.776 187.422 126.706C187.77 126.637 187.968 126.668 187.968 126.668C187.967 126.684 187.773 126.677 187.437 126.762C187.102 126.849 186.635 127.053 186.145 127.435C185.653 127.812 185.128 128.342 184.664 129.022C184.429 129.36 184.202 129.728 183.972 130.114C183.86 130.308 183.721 130.499 183.697 130.703C183.663 130.912 183.851 131.048 184.075 131.014C185.914 130.601 187.289 129.361 187.978 128.355C188.159 128.103 188.308 127.864 188.373 127.631C188.446 127.399 188.408 127.187 188.334 127.034C188.183 126.715 187.957 126.679 187.968 126.668Z" fill="#AD3030"/>
<path d="M191.072 125.436C191.05 125.451 191.139 125.203 191.479 125.246C191.639 125.271 191.799 125.392 191.951 125.54C192.107 125.685 192.285 125.85 192.469 126.048C192.827 126.432 193.26 126.999 193.256 127.754C193.258 128.124 193.09 128.514 192.802 128.793C192.518 129.076 192.144 129.276 191.735 129.378C191.326 129.479 190.883 129.453 190.523 129.261C190.163 129.078 189.893 128.737 189.829 128.365C189.759 127.996 189.836 127.649 189.914 127.344C189.997 127.039 190.076 126.757 190.171 126.502C190.352 125.988 190.65 125.631 190.908 125.466C191.165 125.296 191.342 125.292 191.342 125.292C191.348 125.307 191.178 125.336 190.941 125.513C190.703 125.687 190.433 126.033 190.269 126.537C190.183 126.786 190.11 127.071 190.033 127.374C189.961 127.675 189.896 128.008 189.963 128.339C190.023 128.67 190.262 128.967 190.589 129.133C190.915 129.304 191.318 129.329 191.7 129.234C192.462 129.054 193.129 128.452 193.12 127.75C193.133 127.056 192.736 126.504 192.391 126.118C192.024 125.744 191.743 125.373 191.467 125.302C191.17 125.246 191.071 125.453 191.072 125.436Z" fill="#AD3030"/>
<path d="M197.538 122.617C197.538 122.617 197.723 122.621 197.98 122.81C198.107 122.902 198.249 123.041 198.361 123.238C198.465 123.43 198.56 123.715 198.42 123.995C198.07 124.468 197.457 124.793 196.767 125.028C196.092 125.279 195.253 125.528 194.402 125.272C193.997 125.144 193.579 124.89 193.456 124.454C193.342 123.991 193.696 123.63 193.983 123.428C194.596 123.006 195.224 122.763 195.764 122.629C196.305 122.497 196.76 122.459 197.072 122.492C197.385 122.525 197.538 122.617 197.538 122.617C197.535 122.63 197.373 122.563 197.068 122.549C196.764 122.533 196.319 122.587 195.791 122.729C195.265 122.873 194.652 123.124 194.064 123.537C193.786 123.737 193.5 124.058 193.596 124.418C193.693 124.772 194.065 125.014 194.446 125.131C195.24 125.372 196.048 125.144 196.72 124.901C197.407 124.681 198.006 124.355 198.329 123.946C198.451 123.722 198.381 123.46 198.289 123.277C198.191 123.089 198.063 122.951 197.946 122.856C197.71 122.661 197.53 122.634 197.538 122.617Z" fill="#AD3030"/>
<path d="M184.596 126.592C184.596 126.592 184.644 126.586 184.732 126.61C184.814 126.633 184.965 126.691 185.028 126.87C185.144 127.236 184.833 127.742 184.324 128.071C183.822 128.412 183.223 128.815 182.504 129.18C182.145 129.361 181.755 129.531 181.332 129.655C180.908 129.763 180.465 129.903 179.971 129.822C179.729 129.786 179.473 129.571 179.48 129.295C179.485 129.028 179.642 128.829 179.789 128.665C180.108 128.352 180.431 128.086 180.758 127.849C181.411 127.373 182.078 127.064 182.657 126.875C183.828 126.514 184.596 126.592 184.596 126.592C184.6 126.63 183.835 126.594 182.691 126.974C182.125 127.171 181.476 127.485 180.839 127.958C180.521 128.192 180.197 128.464 179.896 128.762C179.757 128.914 179.626 129.1 179.628 129.293C179.627 129.489 179.793 129.64 180.003 129.678C180.427 129.752 180.884 129.621 181.292 129.516C181.705 129.397 182.088 129.234 182.444 129.059C183.155 128.706 183.76 128.312 184.265 127.986C184.769 127.677 185.058 127.208 184.973 126.888C184.929 126.733 184.799 126.67 184.723 126.639C184.642 126.606 184.595 126.599 184.596 126.592Z" fill="#AD3030"/>
<path d="M185.696 123.656C185.696 123.656 185.889 123.707 186.071 123.992C186.156 124.131 186.22 124.354 186.136 124.587C186.059 124.819 185.858 125.028 185.6 125.174C185.078 125.439 184.457 125.729 183.715 125.949C182.982 126.157 182.073 126.247 181.235 125.87C181.17 125.842 181.11 125.807 181.053 125.778L181.049 125.776L181.044 125.772C181.004 125.742 180.967 125.714 180.931 125.688L180.922 125.681L180.917 125.673C180.635 125.276 180.776 124.746 181.068 124.457C181.362 124.152 181.745 124.015 182.091 123.909C182.79 123.709 183.421 123.544 183.966 123.473C184.51 123.4 184.958 123.41 185.259 123.473C185.564 123.538 185.696 123.656 185.696 123.656C185.69 123.668 185.546 123.574 185.25 123.528C184.955 123.483 184.515 123.488 183.982 123.573C183.448 123.657 182.822 123.832 182.131 124.037C181.793 124.144 181.431 124.283 181.172 124.556C180.913 124.814 180.809 125.271 181.035 125.585L181.02 125.57C181.056 125.597 181.093 125.625 181.133 125.655L181.125 125.65C181.179 125.678 181.236 125.71 181.296 125.736C182.086 126.091 182.96 126.016 183.678 125.819C184.402 125.613 185.038 125.329 185.549 125.084C185.796 124.951 185.982 124.765 186.058 124.56C186.14 124.356 186.092 124.157 186.02 124.021C185.866 123.744 185.683 123.669 185.696 123.656Z" fill="#AD3030"/>
<path d="M189.614 119.219C189.614 119.219 189.796 119.247 190.051 119.446C190.293 119.629 190.643 120.068 190.525 120.668C190.41 121.256 189.959 121.791 189.483 122.365C189.232 122.642 188.907 122.92 188.485 123.017C188.07 123.114 187.607 123.038 187.223 122.808C186.78 122.556 186.496 122.1 186.403 121.644C186.305 121.185 186.372 120.719 186.552 120.338C186.928 119.568 187.646 119.193 188.192 119.077L188.188 119.078C188.643 118.946 189.02 119.022 189.258 119.082C189.497 119.148 189.614 119.219 189.614 119.219C189.61 119.229 189.485 119.181 189.245 119.131C189.009 119.086 188.64 119.03 188.216 119.167L188.215 119.168L188.213 119.168C187.69 119.295 187.014 119.669 186.672 120.395C186.334 121.085 186.462 122.2 187.298 122.682C187.651 122.894 188.078 122.963 188.453 122.878C188.831 122.792 189.137 122.54 189.383 122.274C189.856 121.718 190.309 121.186 190.423 120.649C190.546 120.1 190.239 119.684 190.015 119.492C189.779 119.285 189.606 119.234 189.614 119.219Z" fill="#AD3030"/>
<path d="M196.174 118.016C196.174 118.016 196.211 118.046 196.251 118.124C196.289 118.202 196.33 118.33 196.323 118.497C196.329 118.843 196.036 119.29 195.553 119.618C195.049 119.984 194.497 120.384 193.903 120.815C193.589 121.031 193.279 121.3 192.871 121.461C192.486 121.627 191.88 121.588 191.649 121.108C191.518 120.803 191.608 120.487 191.713 120.23C191.824 119.97 191.961 119.729 192.118 119.511C192.43 119.073 192.811 118.724 193.193 118.452C193.566 118.179 193.93 117.93 194.3 117.801C194.668 117.668 195.012 117.639 195.294 117.633L195.3 117.711H195.298L195.29 117.633C195.616 117.63 195.869 117.702 196.004 117.818C196.143 117.925 196.174 118.016 196.174 118.016C196.175 118.043 195.941 117.652 195.294 117.712L195.286 117.634H195.289L195.295 117.712C195.019 117.727 194.686 117.765 194.337 117.901C193.985 118.033 193.639 118.278 193.268 118.556C192.898 118.827 192.533 119.169 192.234 119.593C192.084 119.804 191.953 120.037 191.848 120.286C191.747 120.529 191.679 120.812 191.783 121.047C191.957 121.419 192.465 121.478 192.819 121.326C193.193 121.181 193.508 120.919 193.824 120.704C194.424 120.283 194.982 119.891 195.491 119.533C195.975 119.217 196.251 118.816 196.265 118.492C196.293 118.173 196.157 118.021 196.174 118.016Z" fill="#AD3030"/>
<path d="M198.622 119.177C198.622 119.177 198.816 119.191 199.169 119.194C199.334 119.218 199.594 119.172 199.787 119.404C199.927 119.676 199.742 119.999 199.504 120.202C198.498 120.98 196.958 121.852 195.103 122.415C194.875 122.484 194.618 122.552 194.363 122.479C194.114 122.422 193.887 122.171 193.926 121.898C194.029 121.369 194.492 121.155 194.79 120.888C195.444 120.372 196.067 119.935 196.643 119.661C197.217 119.386 197.725 119.268 198.074 119.218C198.424 119.165 198.622 119.177 198.622 119.177C198.632 119.223 197.818 119.195 196.689 119.756C196.13 120.036 195.522 120.474 194.874 120.995C194.57 121.258 194.135 121.503 194.07 121.912C194.045 122.109 194.198 122.286 194.403 122.338C194.606 122.397 194.836 122.343 195.061 122.274C196.892 121.72 198.436 120.863 199.435 120.125C199.668 119.937 199.817 119.652 199.716 119.447C199.588 119.27 199.325 119.276 199.165 119.252C198.813 119.231 198.619 119.192 198.622 119.177Z" fill="#AD3030"/>
<path d="M170.896 128.776C170.973 128.851 170.512 129.403 170.157 130.192C169.792 130.977 169.676 131.686 169.569 131.678C169.473 131.68 169.426 130.896 169.822 130.038C170.211 129.179 170.835 128.701 170.896 128.776Z" fill="white"/>
<path d="M175.424 137.831C175.438 137.864 175.022 138.074 174.282 138.117C173.548 138.166 172.501 137.968 171.538 137.364C170.577 136.756 169.946 135.897 169.673 135.214C169.393 134.528 169.402 134.061 169.438 134.059C169.502 134.047 169.586 134.486 169.909 135.102C170.226 135.718 170.84 136.484 171.735 137.051C172.633 137.613 173.588 137.837 174.281 137.856C174.976 137.882 175.408 137.768 175.424 137.831Z" fill="white"/>
<path d="M92.2178 186.85C103.879 191.64 110.586 190.686 119.964 193.073C130.772 195.824 142.604 193.579 152.856 189.188C157.777 187.081 163.227 184.108 168.137 186.241C169.191 186.699 170.138 187.373 171.178 187.859C172.457 188.458 173.851 188.762 175.227 189.081C178.14 189.756 181.272 190.682 183.008 193.117C184.742 195.552 183.86 199.865 180.901 200.291C182.32 200.643 182.743 202.535 182.338 203.94C181.932 205.346 181.003 206.575 180.731 208.013C180.332 210.119 181.405 212.197 182.443 214.073C187.228 213.758 191.657 218.551 190.967 223.296C190.817 224.327 190.467 225.336 190.481 226.378C190.496 227.572 190.987 228.707 191.142 229.891C191.56 233.102 189.07 236.412 185.869 236.9C186.049 240.527 183.694 244.142 180.302 245.443C181.742 245.821 182.787 247.336 182.63 248.816C182.473 250.296 181.132 251.557 179.645 251.625C182.385 256.279 179.168 263.224 173.847 264.144C173.838 268.142 170.971 271.487 168.269 274.432C166.937 275.884 165.451 277.421 163.505 277.729C160.319 278.232 157.561 275.26 154.345 275.024C152.944 274.922 151.552 275.351 150.148 275.315C148.743 275.279 147.159 274.535 146.922 273.151C146.565 274.861 144.521 275.768 142.794 275.499C141.066 275.23 139.607 274.119 138.227 273.046C141.125 277.307 140.135 283.741 136.09 286.933C132.046 290.127 125.558 289.597 122.086 285.79C121.612 287.494 119.621 288.401 117.86 288.246C116.098 288.091 114.519 287.142 113.011 286.217C112.08 288.509 110.773 291.118 108.337 291.544C107.574 291.677 106.758 291.574 106.053 291.892C104.863 292.429 104.483 293.886 103.987 295.094C102.871 297.813 100.367 300.006 97.4571 300.42C94.5465 300.833 91.3737 299.262 90.2221 296.557C89.8869 298.579 87.9954 300.229 85.9466 300.288C83.8977 300.346 81.9162 298.807 81.4655 296.807C79.4337 298.465 76.3395 297.24 74.351 295.531C70.6658 292.363 68.3632 287.641 68.1357 282.787C67.5369 284.586 65.0366 285.098 63.3407 284.251C61.6448 283.402 60.6002 281.671 59.6995 280.004C59.6257 282.868 57.2034 285.485 54.3531 285.78C51.5134 286.074 48.7891 284.256 47.1861 281.895C45.583 279.534 44.8821 276.692 44.211 273.917C43.0523 269.127 41.8865 264.191 42.6313 259.32C43.065 256.484 44.133 253.789 45.1925 251.123C46.7609 247.177 48.3363 243.217 50.4319 239.525C55.1709 231.173 62.3507 224.539 68.7813 217.407C75.2113 210.275 83.9622 200.44 85.3045 190.932C85.7155 188.022 85.1635 185.24 85.4774 184.735C86.2187 183.543 92.2178 186.85 92.2178 186.85Z" fill="#65AB44"/>
<path d="M85.4783 184.732C85.4805 184.727 85.5414 184.742 85.659 184.778C85.7965 184.822 85.9666 184.878 86.1778 184.946C86.6321 185.099 87.3018 185.326 88.1565 185.639C89.8694 186.255 92.3307 187.194 95.3497 188.41C101.4 190.807 109.625 194.449 119.026 197.628C123.708 199.261 128.266 200.544 132.52 201.126C136.767 201.729 140.652 201.779 143.885 201.526C147.124 201.298 149.708 200.768 151.477 200.364C152.362 200.16 153.044 199.978 153.504 199.849C153.719 199.793 153.892 199.749 154.032 199.713C154.152 199.684 154.214 199.672 154.216 199.679C154.218 199.685 154.159 199.708 154.044 199.749C153.907 199.794 153.736 199.85 153.526 199.92C153.071 200.073 152.394 200.278 151.511 200.504C149.748 200.951 147.16 201.523 143.906 201.786C140.659 202.074 136.749 202.051 132.472 201.462C128.188 200.896 123.595 199.613 118.905 197.978C109.488 194.792 101.269 191.108 95.2512 188.651C92.247 187.406 89.8021 186.431 88.1062 185.773C87.2791 185.453 86.6264 185.2 86.153 185.017C85.9475 184.934 85.7809 184.867 85.647 184.813C85.5329 184.766 85.4762 184.738 85.4783 184.732Z" fill="white"/>
<path d="M148.58 206.496C148.58 206.502 148.522 206.503 148.41 206.5C148.276 206.492 148.114 206.483 147.915 206.473C147.449 206.444 146.814 206.405 146.013 206.356C144.36 206.263 141.967 206.205 139.005 206.116C136.05 206.003 132.499 205.88 128.644 205.068C124.764 204.3 120.798 202.461 116.779 200.42C108.673 196.453 101.338 192.863 95.9927 190.247C93.3628 188.941 91.2246 187.879 89.7116 187.128C88.9958 186.764 88.4281 186.475 88.0121 186.264C87.8364 186.17 87.6925 186.093 87.5742 186.03C87.4764 185.976 87.4282 185.945 87.431 185.94C87.4339 185.934 87.4884 185.953 87.5912 185.996C87.7138 186.05 87.8626 186.116 88.0455 186.197C88.4693 186.393 89.0461 186.661 89.7761 187C91.3012 187.726 93.4577 188.752 96.1097 190.014C101.467 192.605 108.82 196.16 116.944 200.089C120.963 202.131 124.885 203.958 128.715 204.735C132.529 205.557 136.064 205.708 139.015 205.855C141.972 205.977 144.369 206.074 146.021 206.212C146.848 206.279 147.488 206.341 147.921 206.398C148.119 206.423 148.281 206.444 148.414 206.461C148.525 206.478 148.581 206.49 148.58 206.496Z" fill="white"/>
<path d="M159.009 240.84C159.006 240.846 158.929 240.824 158.779 240.776C158.611 240.719 158.392 240.644 158.116 240.552C157.537 240.345 156.672 240.065 155.59 239.623C153.411 238.778 150.291 237.446 146.627 235.423C144.792 234.419 142.829 233.233 140.778 231.875C138.74 230.497 136.609 228.953 134.469 227.198C130.194 223.688 125.884 219.336 121.942 214.32C119.934 211.845 118.006 209.402 115.938 207.235C113.881 205.057 111.72 203.126 109.601 201.366C105.345 197.859 101.253 195.025 97.7932 192.694C94.3235 190.373 91.4667 188.568 89.4973 187.312C88.5285 186.693 87.7688 186.208 87.2302 185.865C86.9864 185.705 86.7929 185.578 86.6448 185.481C86.5144 185.393 86.4485 185.345 86.452 185.34C86.4556 185.334 86.5272 185.371 86.6646 185.449C86.8177 185.538 87.0169 185.654 87.2692 185.801C87.8163 186.13 88.588 186.596 89.5731 187.189C91.566 188.407 94.4454 190.18 97.9371 192.475C101.42 194.781 105.534 197.598 109.816 201.103C111.949 202.863 114.125 204.797 116.2 206.987C118.286 209.166 120.222 211.614 122.228 214.088C126.164 219.095 130.436 223.423 134.685 226.935C136.81 228.69 138.925 230.237 140.948 231.621C142.984 232.984 144.931 234.18 146.752 235.195C150.387 237.241 153.484 238.606 155.642 239.49C156.714 239.952 157.569 240.253 158.14 240.481C158.41 240.589 158.625 240.674 158.79 240.74C158.937 240.8 159.011 240.834 159.009 240.84Z" fill="white"/>
<path d="M128.233 260.102C128.227 260.104 128.205 260.029 128.169 259.881C128.131 259.713 128.081 259.495 128.019 259.221C127.889 258.617 127.707 257.765 127.475 256.68C127.003 254.473 126.34 251.276 125.436 247.344C124.523 243.416 123.371 238.749 121.742 233.675C120.947 231.132 119.982 228.506 118.907 225.816C117.779 223.149 116.575 220.396 115.079 217.712C114.729 217.027 114.344 216.369 113.953 215.718C113.561 215.069 113.197 214.409 112.79 213.782C111.965 212.535 111.181 211.286 110.311 210.128C108.599 207.793 106.791 205.655 105.019 203.666C101.466 199.694 98.0327 196.328 95.1143 193.546C92.1888 190.77 89.7601 188.587 88.0791 187.082C87.2514 186.344 86.6015 185.764 86.1401 185.352C85.9325 185.163 85.7674 185.014 85.6398 184.897C85.5286 184.793 85.4733 184.738 85.4775 184.733C85.4818 184.728 85.5448 184.774 85.6646 184.869C85.7978 184.978 85.9708 185.119 86.1883 185.296C86.6476 185.674 87.318 186.238 88.1734 186.975C89.8849 188.447 92.3412 190.601 95.2929 193.357C98.2382 196.118 101.695 199.468 105.272 203.44C107.056 205.428 108.876 207.569 110.603 209.914C111.479 211.079 112.27 212.333 113.101 213.586C113.511 214.216 113.877 214.88 114.271 215.533C114.664 216.186 115.052 216.848 115.403 217.536C116.907 220.234 118.113 223 119.242 225.679C120.316 228.382 121.277 231.019 122.065 233.573C123.682 238.667 124.809 243.348 125.69 247.286C126.562 251.229 127.185 254.436 127.615 256.652C127.818 257.742 127.978 258.599 128.09 259.207C128.138 259.484 128.175 259.704 128.205 259.873C128.23 260.023 128.239 260.101 128.233 260.102Z" fill="white"/>
<path d="M92.3207 276.418C92.3143 276.418 92.3093 276.337 92.3058 276.179C92.3044 276.001 92.3022 275.768 92.3001 275.475C92.3058 274.856 92.2845 273.943 92.3426 272.769C92.4093 270.42 92.6509 267.023 93.1229 262.848C93.5736 258.671 94.2717 253.717 94.7657 248.192C95.0031 245.431 95.1873 242.524 95.1972 239.51C95.2072 236.495 94.9726 233.381 94.5849 230.207C93.804 223.855 92.4915 217.885 91.2647 212.474C90.0132 207.066 88.8211 202.208 87.9126 198.106C86.9991 194.006 86.3535 190.666 85.9807 188.346C85.7801 187.188 85.6753 186.281 85.5853 185.669C85.5477 185.378 85.5186 185.147 85.496 184.971C85.4782 184.813 85.4719 184.732 85.4782 184.731C85.4846 184.73 85.503 184.81 85.5335 184.965C85.5654 185.14 85.6065 185.369 85.659 185.657C85.7724 186.266 85.8999 187.168 86.1225 188.321C86.5385 190.631 87.2216 193.958 88.167 198.048C89.145 202.139 90.3066 207.001 91.5964 212.397C92.8423 217.808 94.1675 223.785 94.952 230.161C95.3411 233.345 95.5743 236.48 95.5594 239.51C95.5445 242.539 95.3525 245.454 95.1044 248.222C94.5906 253.758 93.8656 258.707 93.3823 262.877C92.8777 267.044 92.5971 270.43 92.4865 272.775C92.4064 273.946 92.4043 274.858 92.3745 275.475C92.3618 275.768 92.3518 276 92.3441 276.178C92.3341 276.337 92.3263 276.418 92.3207 276.418Z" fill="white"/>
<path d="M99.9019 263.097C99.8764 263.097 99.8438 262.71 99.8062 262.011C99.7736 261.311 99.7077 260.3 99.6064 259.053C99.4086 256.559 98.9891 253.127 98.2967 249.371C97.6008 245.616 96.8035 242.248 96.211 239.814C95.9268 238.647 95.6901 237.677 95.5087 236.931C95.3457 236.25 95.267 235.869 95.2918 235.863C95.3167 235.856 95.4421 236.224 95.6476 236.894C95.8545 237.564 96.1352 238.54 96.464 239.749C97.1217 242.169 97.9615 245.536 98.6595 249.304C99.3541 253.072 99.7353 256.527 99.8665 259.034C99.9345 260.288 99.9614 261.304 99.9494 262.006C99.943 262.709 99.9274 263.097 99.9019 263.097Z" fill="white"/>
<path d="M71.8628 260.618C71.8515 260.612 71.9337 260.413 72.1003 260.039C72.2838 259.638 72.5326 259.096 72.8451 258.413C73.1803 257.713 73.568 256.845 74.0038 255.833C74.4489 254.823 74.9556 253.675 75.4708 252.386C76.5523 249.83 77.7039 246.731 78.9413 243.277C80.1382 239.808 81.3742 235.967 82.5471 231.898C83.703 227.822 84.6859 223.908 85.5158 220.332C86.3088 216.749 86.9892 213.513 87.4626 210.777C87.7212 209.413 87.9211 208.174 88.0968 207.085C88.2811 205.997 88.4292 205.06 88.5362 204.29C88.6496 203.547 88.7403 202.958 88.807 202.522C88.8729 202.118 88.914 201.907 88.926 201.908C88.9388 201.91 88.9225 202.124 88.8807 202.531C88.8311 202.97 88.7637 203.562 88.6787 204.309C88.5936 205.082 88.4661 206.024 88.3009 207.116C88.1443 208.208 87.9622 209.453 87.7198 210.821C87.2783 213.566 86.6242 216.813 85.8475 220.406C85.0353 223.991 84.0601 227.915 82.9021 231.998C81.7271 236.074 80.4791 239.92 79.2623 243.389C78.0051 246.843 76.8258 249.938 75.7118 252.486C75.1802 253.771 74.6558 254.914 74.1923 255.916C73.738 256.923 73.3313 257.782 72.9755 258.474C72.636 259.144 72.3667 259.677 72.1676 260.071C71.9791 260.436 71.8749 260.623 71.8628 260.618Z" fill="white"/>
<path d="M50.2219 280.583C50.2042 280.6 49.92 280.32 49.4183 279.793C49.2957 279.659 49.1475 279.52 49.0086 279.347C48.874 279.167 48.7308 278.974 48.5785 278.77C48.4233 278.559 48.2588 278.337 48.0866 278.103C47.9286 277.856 47.7783 277.585 47.6118 277.305C46.9237 276.197 46.3305 274.752 45.8039 273.114C45.3029 271.465 44.9705 269.594 44.8033 267.617C44.4971 263.648 45.0556 260.05 45.7373 257.551C45.8854 256.918 46.0881 256.365 46.2504 255.876C46.4049 255.384 46.5665 254.971 46.7174 254.64C47.0023 253.973 47.1703 253.611 47.1937 253.62C47.2171 253.63 47.0938 254.012 46.8514 254.691C46.7224 255.028 46.5814 255.445 46.4467 255.94C46.3043 256.432 46.1207 256.985 45.9903 257.616C45.3787 260.11 44.8685 263.67 45.1711 267.589C45.3369 269.541 45.6537 271.388 46.1299 273.018C46.631 274.636 47.1887 276.069 47.8386 277.177C49.0852 279.427 50.2963 280.519 50.2219 280.583Z" fill="white"/>
<path d="M62.99 282.059C62.917 282.121 62.0985 281.225 61.455 279.887C60.8044 278.552 60.6095 277.353 60.7038 277.335C60.8087 277.308 61.1559 278.432 61.7873 279.726C62.4096 281.023 63.0758 281.994 62.99 282.059Z" fill="white"/>
<path d="M75.6948 293.187C75.6813 293.209 75.5013 293.118 75.1831 292.933C74.8613 292.755 74.4255 292.447 73.9209 292.025C73.4121 291.606 72.8614 291.042 72.3115 290.364C71.7764 289.676 71.2505 288.867 70.8112 287.96C70.3831 287.046 70.0862 286.128 69.8884 285.279C69.7084 284.425 69.617 283.641 69.6128 282.982C69.6028 282.325 69.6376 281.792 69.702 281.43C69.7587 281.068 69.802 280.87 69.8275 280.873C69.8955 280.881 69.7878 281.684 69.8736 282.971C69.9104 283.615 70.0266 284.374 70.2194 285.201C70.4299 286.024 70.7275 286.912 71.1442 287.801C71.5716 288.683 72.0733 289.474 72.58 290.156C73.1009 290.827 73.6176 291.395 74.0938 291.83C75.0399 292.706 75.7316 293.129 75.6948 293.187Z" fill="white"/>
<path d="M95.3129 298.082C95.2966 298.176 93.9813 297.688 93.0486 296.318C92.0997 294.958 92.1132 293.555 92.206 293.573C92.3173 293.554 92.4654 294.844 93.3527 296.108C94.2166 297.386 95.3703 297.985 95.3129 298.082Z" fill="white"/>
<path d="M117.315 286.037C117.294 286.072 116.834 285.853 116.218 285.316C115.601 284.785 114.86 283.9 114.337 282.761C113.818 281.618 113.635 280.479 113.637 279.665C113.636 278.847 113.771 278.357 113.81 278.364C113.871 278.371 113.83 278.867 113.897 279.653C113.961 280.438 114.176 281.515 114.672 282.608C115.173 283.698 115.846 284.565 116.397 285.128C116.948 285.693 117.35 285.987 117.315 286.037Z" fill="white"/>
<path d="M126.295 286.585C126.278 286.604 126.125 286.497 125.861 286.282C125.592 286.074 125.239 285.726 124.843 285.262C124.442 284.802 124.03 284.198 123.641 283.488C123.268 282.771 122.928 281.944 122.689 281.04C122.462 280.132 122.362 279.243 122.344 278.435C122.343 277.625 122.413 276.898 122.543 276.301C122.666 275.704 122.808 275.229 122.943 274.917C123.072 274.602 123.154 274.434 123.177 274.443C123.242 274.466 122.976 275.168 122.799 276.346C122.705 276.934 122.665 277.643 122.683 278.428C122.719 279.211 122.826 280.07 123.046 280.949C123.277 281.825 123.597 282.629 123.943 283.332C124.303 284.028 124.681 284.63 125.047 285.1C125.77 286.047 126.34 286.534 126.295 286.585Z" fill="white"/>
<path opacity="0.3" d="M58.481 236.536C61.3456 237.479 64.4532 237.467 67.3312 238.369C70.2092 239.272 73.0453 241.573 73.0453 244.589C73.0453 246.353 72.1028 248.278 73.0397 249.773C75.1424 246.852 76.3379 243.288 76.4216 239.69C78.8765 240.744 81.3321 241.798 83.787 242.852C85.3 243.501 86.8769 244.198 87.9002 245.488C91.2779 249.747 86.4262 256.768 89.4962 261.254C90.7258 257.579 91.4274 253.728 91.5727 249.856C95.6824 252.839 92.1651 260.909 96.4308 263.665C96.3358 260.138 96.114 256.614 95.766 253.102C100.605 257.804 105.755 262.186 111.17 266.211C112.559 267.244 114.056 268.288 115.779 268.456C119.864 268.854 122.586 264.463 124.269 260.719C125.052 261.762 125.835 262.804 126.619 263.845C128.38 261.909 127.034 258.787 127.638 256.241C128.145 254.1 129.981 252.575 131.709 251.214C137.879 246.351 145.026 241.206 152.802 242.328C151.123 241.681 150.93 239.194 151.963 237.72C152.997 236.247 154.759 235.511 156.378 234.723C164.435 230.801 170.85 223.936 175.126 216.061C179.402 208.185 180.477 195.886 176.387 189.364L176.384 189.363C176.38 189.363 176.291 189.357 176.136 189.349V189.301C175.833 189.224 175.529 189.15 175.229 189.08C173.853 188.761 172.459 188.458 171.18 187.859C170.14 187.372 169.193 186.698 168.139 186.24C163.229 184.108 157.779 187.08 152.858 189.188C142.606 193.579 130.774 195.823 119.966 193.073C110.588 190.686 103.881 191.639 92.2197 186.849C92.2197 186.849 86.2199 183.542 85.4793 184.732C85.1654 185.237 85.7168 188.02 85.3064 190.929C83.9635 200.437 75.2132 210.272 68.7833 217.404C64.5368 222.114 59.9664 226.61 55.985 231.524C55.9326 233.817 56.1976 235.784 58.481 236.536Z" fill="black"/>
<path d="M19.9084 231.952C16.6045 226.467 10.9307 223.987 4.53759 223.63C2.75098 223.531 0.893499 223.692 -0.68334 224.537C-2.26018 225.382 -3.49826 227.024 -3.46212 228.813C-3.42456 230.688 -2.01143 232.318 -0.330411 233.147C4.76863 235.662 11.122 231.963 16.4854 233.85C17.3018 234.137 18.1558 234.556 18.9914 234.33C19.8255 234.103 20.2131 233.207 19.9084 231.952Z" fill="#FFEA7C"/>
<path d="M5.20118 232.744C5.20826 232.784 4.56548 232.956 3.49181 232.946C2.44153 232.931 0.871069 232.667 -0.426545 231.584C-1.06579 231.05 -1.54911 230.385 -1.80566 229.704C-2.06575 229.023 -2.11252 228.356 -2.05158 227.815C-1.98638 227.272 -1.82196 226.855 -1.67314 226.594C-1.52431 226.33 -1.40313 226.213 -1.38683 226.224C-1.32375 226.254 -1.73408 226.807 -1.79149 227.837C-1.81629 228.344 -1.74542 228.959 -1.48958 229.578C-1.238 230.196 -0.785852 230.803 -0.190551 231.3C1.01635 232.309 2.48263 232.604 3.50457 232.685C4.5428 232.762 5.19551 232.684 5.20118 232.744Z" fill="white"/>
<path d="M8.64731 232.482C8.64448 232.584 8.31777 232.658 7.91807 232.647C7.51837 232.637 7.19591 232.546 7.19875 232.444C7.20158 232.342 7.52758 232.268 7.92799 232.279C8.3284 232.289 8.65015 232.38 8.64731 232.482Z" fill="white"/>
<path d="M1.85044 211.036C1.24947 210.653 0.474871 210.496 -0.306816 210.567C-1.17638 210.476 -2.09626 210.889 -2.6292 211.598C-3.27694 212.461 -3.38183 213.66 -3.03457 214.681C-2.68731 215.702 -1.93184 216.551 -1.03889 217.156C-0.0176675 217.849 1.34869 218.242 2.44716 217.681C3.48681 217.15 3.99069 215.892 3.95171 214.725C3.90352 213.254 3.09136 211.829 1.85044 211.036Z" fill="#FFEA7C"/>
<path d="M188.62 167.449C193.196 159.851 201.054 156.417 209.91 155.923C212.384 155.785 214.958 156.008 217.142 157.179C219.326 158.349 221.041 160.624 220.991 163.102C220.939 165.698 218.982 167.957 216.653 169.106C209.591 172.589 200.79 167.464 193.362 170.078C192.23 170.476 191.048 171.058 189.891 170.743C188.734 170.428 188.197 169.188 188.62 167.449Z" fill="#FFEA7C"/>
<path d="M208.991 168.547C208.997 168.482 209.899 168.609 211.343 168.516C212.763 168.417 214.814 168.015 216.504 166.603C217.337 165.907 217.969 165.055 218.319 164.187C218.674 163.319 218.767 162.456 218.726 161.747C218.631 160.307 218.043 159.547 218.115 159.517C218.13 159.507 218.29 159.675 218.487 160.042C218.684 160.406 218.903 160.98 218.986 161.726C219.064 162.468 218.993 163.383 218.634 164.313C218.28 165.245 217.616 166.154 216.739 166.886C214.959 168.372 212.804 168.744 211.355 168.777C210.617 168.793 210.022 168.741 209.615 168.684C209.209 168.627 208.988 168.569 208.991 168.547Z" fill="white"/>
<path d="M204.218 168.183C204.215 168.08 204.662 167.986 205.216 167.971C205.77 167.956 206.221 168.027 206.224 168.129C206.227 168.231 205.779 168.326 205.225 168.341C204.672 168.355 204.22 168.284 204.218 168.183Z" fill="white"/>
<path d="M213.202 209.58C213.994 210.169 214.58 211.094 214.872 212.142C215.418 213.222 215.338 214.616 214.682 215.656C213.885 216.92 212.384 217.647 210.892 217.701C209.398 217.755 207.928 217.195 206.704 216.338C205.304 215.358 204.122 213.783 204.306 212.084C204.48 210.476 205.861 209.203 207.39 208.678C209.319 208.016 211.564 208.365 213.202 209.58Z" fill="#FFEA7C"/>
<path d="M207.203 215.43C207.242 215.386 207.573 215.654 208.172 215.955C208.766 216.257 209.656 216.566 210.67 216.581C211.683 216.597 212.582 216.316 213.186 216.031C213.794 215.749 214.134 215.491 214.17 215.537C214.199 215.568 213.914 215.905 213.306 216.263C212.706 216.621 211.754 216.967 210.664 216.951C209.574 216.934 208.633 216.559 208.045 216.183C207.448 215.805 207.173 215.461 207.203 215.43Z" fill="white"/>
<path d="M142.087 194.988C132.047 193.87 123.089 188.469 113.81 184.474C104.531 180.478 91.9383 177.144 82.8982 181.654C77.8658 188.771 74.8099 194.567 66.8698 203.01C65.4609 204.788 63.3738 205.021 61.7218 206.595L62.5489 208.15C64.2958 208.803 65.8684 210.094 66.5324 211.837C67.419 214.163 66.4835 216.944 64.6133 218.586C62.743 220.229 60.1117 220.825 57.6334 220.59C55.6086 220.398 53.6045 219.667 52.0723 218.33C51.4904 217.822 50.9844 217.221 50.5798 216.562C45.3879 219.457 38.5384 220.37 32.8674 221.768L33.406 223.205C51.849 234.201 76.3917 233.123 92.8178 246.952C100.836 253.702 106.909 263.933 117.152 266.155C126.744 253.148 138.502 241.744 151.796 232.555C156.88 229.04 162.263 225.781 166.318 221.116C174.747 211.418 175.957 197.582 176.674 184.753L176.135 183.316C165.807 189.594 154.082 196.323 142.087 194.988ZM124.372 245.585C122.183 247.509 119.103 248.205 116.202 247.931C113.832 247.706 111.486 246.85 109.692 245.285C107.899 243.719 106.709 241.408 106.732 239.029C106.753 236.785 107.88 234.579 109.685 233.247C110.703 232.497 112.487 231.895 114.235 231.628C115.942 231.367 117.688 231.626 119.286 232.279L121.956 233.371C124.001 234.134 125.841 235.646 126.618 237.686C127.656 240.408 126.561 243.662 124.372 245.585ZM135.152 219.043C133.974 220.078 132.315 220.454 130.752 220.306C129.476 220.185 128.212 219.724 127.246 218.881C126.28 218.038 125.639 216.793 125.651 215.511C125.663 214.303 126.27 213.115 127.243 212.397C127.79 211.993 128.751 211.669 129.692 211.525C130.612 211.385 131.552 211.524 132.412 211.876L133.85 212.464C134.952 212.875 135.943 213.689 136.361 214.788C136.921 216.254 136.331 218.007 135.152 219.043Z" fill="#FFCF54"/>
<g opacity="0.3">
<path d="M142.087 194.988C132.047 193.87 123.089 188.469 113.81 184.474C104.531 180.478 91.9383 177.144 82.8982 181.654C77.8658 188.771 74.8099 194.567 66.8698 203.01C65.4609 204.788 63.3738 205.021 61.7218 206.595L62.5489 208.15C64.2958 208.803 65.8684 210.094 66.5324 211.837C67.419 214.163 66.4835 216.944 64.6133 218.586C62.743 220.229 60.1117 220.825 57.6334 220.59C55.6086 220.398 53.6045 219.667 52.0723 218.33C51.4904 217.822 50.9844 217.221 50.5798 216.562C45.4488 219.423 38.4703 220.369 32.8674 221.768L33.406 223.205C51.849 234.201 76.3917 233.123 92.8178 246.952C100.836 253.702 106.909 263.933 117.152 266.155C126.744 253.148 138.502 241.744 151.796 232.555C156.88 229.04 162.263 225.781 166.318 221.116C174.747 211.418 175.957 197.582 176.674 184.753L176.135 183.316C165.79 189.614 154.11 196.326 142.087 194.988ZM124.372 245.585C122.183 247.509 119.103 248.205 116.202 247.931C113.832 247.706 111.486 246.85 109.692 245.285C107.899 243.719 106.709 241.408 106.732 239.029C106.753 236.785 107.88 234.579 109.685 233.247C110.703 232.497 112.487 231.895 114.235 231.628C115.942 231.367 117.688 231.626 119.286 232.279L121.956 233.371C124.001 234.134 125.841 235.646 126.618 237.686C127.656 240.408 126.561 243.662 124.372 245.585ZM135.152 219.043C133.974 220.078 132.315 220.454 130.752 220.306C129.476 220.185 128.212 219.724 127.246 218.881C126.28 218.038 125.639 216.793 125.651 215.511C125.663 214.303 126.27 213.115 127.243 212.397C127.79 211.993 128.751 211.669 129.692 211.525C130.612 211.385 131.552 211.524 132.412 211.876L133.85 212.464C134.952 212.875 135.943 213.689 136.361 214.788C136.921 216.254 136.331 218.007 135.152 219.043Z" fill="black"/>
</g>
<path d="M141.549 193.552C131.508 192.434 122.55 187.033 113.271 183.038C103.992 179.042 91.3997 175.708 82.3596 180.218C77.3272 187.335 74.2713 193.131 66.3312 201.574C64.9223 203.351 63.3738 205.022 61.7218 206.596L62.0103 206.713C63.7572 207.366 65.3298 208.657 65.9938 210.4C66.8804 212.726 65.9449 215.506 64.0747 217.15C62.2044 218.792 59.5731 219.388 57.0948 219.153C55.07 218.961 53.0659 218.23 51.5337 216.893C50.9518 216.385 50.4458 215.785 50.0412 215.125C44.636 218.14 38.7758 220.38 32.8674 221.769C51.3104 232.765 75.8531 231.687 92.2792 245.516C100.297 252.266 106.37 262.497 116.614 264.718C126.205 251.713 137.964 240.308 151.257 231.119C156.341 227.604 161.725 224.345 165.779 219.68C174.208 209.982 175.419 196.146 176.135 183.316C165.696 189.727 153.724 194.907 141.549 193.552ZM123.834 244.149C121.645 246.073 118.564 246.769 115.663 246.494C113.293 246.27 110.948 245.414 109.154 243.849C107.36 242.283 106.17 239.972 106.193 237.593C106.214 235.349 107.342 233.143 109.147 231.811C110.164 231.061 111.948 230.459 113.697 230.192C115.403 229.931 117.149 230.19 118.747 230.843L121.417 231.935C123.462 232.698 125.302 234.21 126.08 236.25C127.118 238.972 126.023 242.226 123.834 244.149ZM134.614 217.606C133.434 218.642 131.775 219.017 130.213 218.869C128.937 218.748 127.673 218.287 126.707 217.444C125.741 216.601 125.101 215.357 125.113 214.075C125.124 212.866 125.732 211.678 126.704 210.961C127.252 210.556 128.213 210.232 129.154 210.088C130.073 209.948 131.013 210.087 131.874 210.439L133.312 211.027C134.413 211.438 135.405 212.253 135.823 213.351C136.382 214.817 135.793 216.571 134.614 217.606Z" fill="#FFCF54"/>
<path d="M97.5269 244.97C97.5169 244.979 97.3695 244.837 97.0988 244.56C96.8196 244.293 96.4518 243.855 95.9089 243.36C94.8537 242.342 93.2265 240.965 91.0232 239.544C88.8192 238.129 86.0354 236.684 82.8009 235.43C79.5764 234.148 75.9245 233.021 72.0678 231.921C64.3622 229.723 57.388 227.734 52.2989 226.282C49.8 225.551 47.7668 224.957 46.3189 224.534C45.6407 224.327 45.1007 224.163 44.6981 224.04C44.3289 223.923 44.1362 223.857 44.1397 223.844C44.1432 223.831 44.3424 223.875 44.718 223.969C45.1255 224.075 45.6712 224.217 46.3572 224.395C47.8121 224.791 49.8567 225.348 52.369 226.031C57.4659 227.456 64.4508 229.409 72.1685 231.566C76.0287 232.666 79.6912 233.807 82.9257 235.114C86.1701 236.392 88.9623 237.872 91.1642 239.325C93.3661 240.784 94.9791 242.202 96.0081 243.257C96.5375 243.77 96.8905 244.225 97.1527 244.51C97.4078 244.804 97.5368 244.962 97.5269 244.97Z" fill="white"/>
<path d="M103.587 251.999C103.5 252.061 102.952 251.419 102.176 250.745C101.404 250.065 100.696 249.608 100.745 249.514C100.787 249.426 101.609 249.755 102.419 250.467C103.233 251.176 103.667 251.947 103.587 251.999Z" fill="white"/>
<path d="M104.976 233.163C105.089 233.209 103.961 235.219 103.747 237.978C103.496 240.735 104.271 242.906 104.152 242.933C104.112 242.948 103.865 242.43 103.643 241.534C103.421 240.64 103.262 239.357 103.379 237.947C103.5 236.538 103.872 235.3 104.241 234.456C104.609 233.61 104.94 233.141 104.976 233.163Z" fill="white"/>
<path d="M122.229 214.007C122.326 214.059 121.878 214.938 121.788 216.115C121.68 217.292 121.975 218.233 121.87 218.268C121.789 218.315 121.306 217.358 121.42 216.084C121.521 214.809 122.157 213.946 122.229 214.007Z" fill="white"/>
<path d="M161.913 171.744C162.564 168.325 159.266 154.881 155.214 152.911C145.725 148.297 127.413 158.084 109.584 160.533C88.6414 163.411 69.7562 171.515 60.6771 176.971C56.7573 179.326 44.7656 179.905 42.3362 182.634C42.3362 182.634 42.3574 189.612 44.8988 196.524C44.8988 196.524 47.0802 207.039 58.2017 209.697C74.0898 213.495 93.328 211.949 106.855 208.846C122.405 205.279 143.629 195.909 151.359 189.667C159.09 183.426 161.012 176.473 161.913 171.744Z" fill="#743C35"/>
<path d="M157.962 157.571C153.785 144.906 131.822 143.29 106.379 146.785C85.4367 149.662 66.5515 157.767 57.4725 163.222C48.3934 168.678 43.2504 175.111 42.3369 182.635C42.3369 182.635 43.8755 193.291 54.997 195.949C70.8851 199.747 90.72 198.806 104.248 195.704C119.797 192.137 140.424 182.161 148.155 175.919C155.885 169.677 159.092 160.997 157.962 157.571Z" fill="#A85F4C"/>
<path d="M105.292 151.039C105.756 151.25 102.265 159.928 97.4937 170.42C92.7213 180.916 88.4784 189.25 88.0142 189.039C87.5507 188.827 91.0417 180.152 95.8134 169.656C100.584 159.164 104.828 150.828 105.292 151.039Z" fill="#774037"/>
<path d="M124.209 148.015C124.672 148.229 121.29 156.514 116.657 166.517C112.022 176.524 107.891 184.459 107.429 184.245C106.967 184.031 110.348 175.748 114.983 165.741C119.616 155.738 123.747 147.801 124.209 148.015Z" fill="#774037"/>
<path d="M141.612 150.013C142.077 150.194 139.927 156.777 136.307 164.491C132.698 172.214 129.017 178.078 128.581 177.837C128.125 177.589 131.055 171.373 134.636 163.709C138.229 156.053 141.128 149.821 141.612 150.013Z" fill="#774037"/>
<path d="M82.4304 156.975C82.8989 157.141 80.5035 165.032 76.5036 174.364C72.5158 183.705 68.4635 190.886 68.0199 190.661C67.5529 190.429 70.844 182.923 74.807 173.638C78.7835 164.363 81.94 156.798 82.4304 156.975Z" fill="#774037"/>
<path d="M64.2653 165.604C64.7202 165.855 62.8302 170.115 60.4886 175.333C58.1351 180.547 56.1996 184.786 55.7099 184.612C55.2379 184.447 56.4172 179.868 58.8055 174.575C61.1839 169.279 63.8294 165.359 64.2653 165.604Z" fill="#774037"/>
<path d="M73.7095 195.702C73.7088 195.715 73.5777 195.719 73.3296 195.714C73.0398 195.704 72.6819 195.692 72.2453 195.676C71.3049 195.633 69.9435 195.559 68.2639 195.41C66.5857 195.261 64.5858 195.031 62.3959 194.581C60.2089 194.134 57.8298 193.436 55.4919 192.32C53.1596 191.182 51.166 189.664 49.6289 188.028C48.1009 186.382 47.0053 184.642 46.3838 183.06C45.753 181.482 45.5078 180.111 45.4674 179.166C45.4136 178.695 45.4625 178.325 45.4575 178.077C45.466 177.828 45.4766 177.699 45.4894 177.699C45.5277 177.699 45.517 178.223 45.6099 179.153C45.6928 180.083 45.9748 181.422 46.624 182.959C47.2647 184.499 48.3617 186.189 49.8755 187.793C51.3985 189.387 53.363 190.87 55.652 191.987C57.9546 193.085 60.301 193.785 62.4661 194.247C64.6333 194.711 66.6197 194.967 68.2894 195.149C69.9605 195.33 71.317 195.444 72.2546 195.531C72.689 195.574 73.0455 195.609 73.3339 195.638C73.5812 195.669 73.7102 195.689 73.7095 195.702Z" fill="white"/>
<path d="M84.8231 193.818C84.8437 193.918 83.4653 194.283 81.7453 194.634C80.0246 194.986 78.6136 195.189 78.5937 195.089C78.5732 194.989 79.9509 194.623 81.6716 194.273C83.3916 193.922 84.8026 193.718 84.8231 193.818Z" fill="white"/>
<path d="M57.7689 206.387C57.7611 206.411 57.5315 206.352 57.1205 206.224C56.7073 206.102 56.1269 205.873 55.4302 205.545C54.037 204.893 52.2128 203.73 50.5544 202.048C48.9018 200.358 47.7735 198.513 47.1471 197.108C46.831 196.405 46.6127 195.821 46.4993 195.405C46.3788 194.992 46.3243 194.762 46.3484 194.754C46.4121 194.733 46.6999 195.637 47.3823 196.994C48.0598 198.351 49.198 200.133 50.8174 201.789C52.4424 203.438 54.2035 204.609 55.5472 205.312C56.8916 206.019 57.7909 206.323 57.7689 206.387Z" fill="white"/>
<path d="M60.569 101.395C60.569 101.395 47.3186 98.5068 38.3182 103.227C32.5919 106.231 29.6261 113.788 28.3122 121.686C26.1769 134.528 33.9788 154.071 67.3887 167.596C103.183 182.086 120.225 172.441 126.12 168.681C131.268 165.398 139.268 156.12 138.787 140.762C138.705 138.134 134.098 138.364 132.39 135.447C123.03 119.465 88.7161 99.8519 60.569 101.395Z" fill="#F74545"/>
<path opacity="0.3" d="M60.569 101.395C60.569 101.395 47.3186 98.5068 38.3182 103.227C32.5919 106.231 29.6261 113.788 28.3122 121.686C26.1769 134.528 33.9788 154.071 67.3887 167.596C103.183 182.086 120.225 172.441 126.12 168.681C131.268 165.398 139.268 156.12 138.787 140.762C138.705 138.134 134.098 138.364 132.39 135.447C123.03 119.465 88.7161 99.8519 60.569 101.395Z" fill="black"/>
<path d="M62.9701 94.3635C62.9701 94.3635 34.9187 96.4386 31.1853 114.478C28.5468 127.226 36.38 147.04 69.7898 160.565C105.584 175.056 126.51 162.062 129.504 159.733C132.498 157.404 145.126 146.065 134.791 128.417C125.431 112.434 91.1172 92.8214 62.9701 94.3635Z" fill="#F74545"/>
<path opacity="0.1" d="M62.9701 94.3635C62.9701 94.3635 34.9187 96.4386 31.1853 114.478C28.5468 127.226 36.38 147.04 69.7898 160.565C105.584 175.056 126.51 162.062 129.504 159.733C132.498 157.404 145.126 146.065 134.791 128.417C125.431 112.434 91.1172 92.8214 62.9701 94.3635Z" fill="white"/>
<g opacity="0.2">
<path d="M126.025 129.707C123.501 126.67 110.896 129.212 106.141 128.339C105.01 128.131 104.264 126.525 105.212 125.873C112.846 120.621 113.423 114.768 109.465 111.873C105.178 108.737 98.3663 105.037 92.3388 104.155C88.8337 103.642 83.573 103.006 80.8857 105.314C79.0941 106.853 78.8829 114.246 79.0969 116.684C78.4641 114.579 76.7405 107.854 75.6017 105.979C73.6684 102.794 70.5693 100.12 66.8841 99.5696C63.0139 98.9927 59.1862 100.796 55.9263 102.961C50.3871 106.641 45.6495 111.522 42.1514 117.18C41.138 118.818 40.4272 120.645 40.2309 122.562C39.4591 130.099 46.4737 132.882 52.3849 132.61C56.9298 132.401 64.8806 129.074 69.429 129.182C69.801 129.19 70.1972 129.218 70.4941 129.442C71.0292 129.844 70.9732 130.717 70.5565 131.241C70.1405 131.765 65.9769 133.858 65.3533 134.101C62.724 135.123 60.0296 136.218 58.2487 138.532C57.4152 139.616 56.8802 140.93 56.8929 142.297C56.9262 145.901 60.318 147.782 63.3278 149.183C68.1966 151.449 73.0858 153.674 77.9935 155.855C83.8516 158.459 89.8939 161.04 96.2948 161.387C98.5534 161.509 101.112 161.239 102.131 158.711C102.379 158.094 102.474 157.419 102.434 156.756C102.3 154.48 100.925 152.663 99.4399 151.068C98.4846 150.042 97.5215 148.462 97.0672 147.136C96.613 145.809 96.5088 141.884 97.8029 141.346C98.9807 140.856 101.116 141.174 102.743 143.336C104.584 145.782 106.397 149.05 108.046 151.629C108.97 153.077 109.792 154.681 111.221 155.633C113.75 157.317 117.2 156.343 119.806 154.783C124.005 152.271 127.387 148.268 128.712 143.559C130.04 138.849 129.153 133.469 126.025 129.707Z" fill="white"/>
</g>
<path d="M68.0654 140.901C67.5169 140.748 66.9251 140.702 66.3816 140.872C65.838 141.041 65.3518 141.447 65.1768 141.989C65.0017 142.531 65.1945 143.195 65.6821 143.489C66.1612 143.778 66.7742 143.67 67.3099 143.51C67.8797 143.34 68.4339 143.12 68.9662 142.854C69.2071 142.734 69.4006 142.65 69.6493 142.44C69.964 142.161 70.0037 141.778 69.6359 141.565C69.1263 141.31 68.6139 141.054 68.0654 140.901Z" fill="white"/>
<path d="M112.733 148.784C112.509 149.307 112.385 149.889 112.481 150.45C112.577 151.011 112.915 151.547 113.429 151.791C113.943 152.037 114.627 151.933 114.983 151.49C115.333 151.053 115.307 150.431 115.219 149.879C115.126 149.292 114.982 148.713 114.789 148.15C114.701 147.896 114.644 147.692 114.468 147.418C114.233 147.069 113.859 146.979 113.599 147.315C113.279 147.787 112.957 148.261 112.733 148.784Z" fill="white"/>
<path d="M71.4621 147.103C71.0723 147.476 70.7435 147.935 70.6032 148.456C70.4628 148.976 70.533 149.562 70.8611 149.959C71.19 150.355 71.7945 150.51 72.2622 150.253C72.7221 150 72.944 149.452 73.0878 148.942C73.2402 148.399 73.3472 147.846 73.4082 147.29C73.4358 147.038 73.4677 146.841 73.4294 146.541C73.3713 146.154 73.0985 145.942 72.7519 146.14C72.3033 146.434 71.8519 146.73 71.4621 147.103Z" fill="white"/>
<path d="M87.1096 152.983C87.1344 153.522 87.2641 154.072 87.5646 154.519C87.8644 154.967 88.352 155.299 88.8665 155.312C89.381 155.325 89.8955 154.971 90.0096 154.449C90.1216 153.937 89.8544 153.409 89.5638 152.965C89.2556 152.494 88.909 152.05 88.5292 151.639C88.3569 151.452 88.2301 151.299 87.9785 151.131C87.649 150.92 87.3102 150.987 87.2315 151.379C87.1585 151.909 87.0848 152.444 87.1096 152.983Z" fill="white"/>
<path d="M92.7319 150.906C93.1444 151.253 93.6362 151.531 94.1691 151.615C94.7014 151.698 95.2761 151.566 95.6347 151.197C95.9933 150.828 96.0826 150.21 95.7772 149.772C95.4767 149.342 94.9076 149.181 94.3846 149.093C93.829 148.999 93.2677 148.952 92.7078 148.952C92.4541 148.952 92.2557 148.94 91.9608 149.01C91.5831 149.11 91.4017 149.404 91.6363 149.728C91.9764 150.141 92.3187 150.558 92.7319 150.906Z" fill="white"/>
<path d="M118.618 145.883C118.643 146.423 118.772 146.972 119.073 147.42C119.372 147.868 119.86 148.199 120.375 148.212C120.889 148.225 121.404 147.871 121.518 147.35C121.63 146.837 121.363 146.309 121.072 145.866C120.764 145.394 120.417 144.95 120.037 144.539C119.865 144.353 119.738 144.199 119.487 144.031C119.157 143.82 118.818 143.888 118.74 144.279C118.666 144.81 118.593 145.345 118.618 145.883Z" fill="white"/>
<path d="M122.301 141.591C122.713 141.939 123.205 142.216 123.738 142.3C124.27 142.384 124.845 142.251 125.203 141.882C125.562 141.513 125.651 140.895 125.346 140.457C125.045 140.027 124.476 139.866 123.953 139.778C123.398 139.684 122.836 139.637 122.276 139.637C122.023 139.637 121.824 139.625 121.529 139.695C121.152 139.795 120.97 140.089 121.204 140.413C121.545 140.827 121.888 141.244 122.301 141.591Z" fill="white"/>
<path d="M124.001 135.839C124.473 135.975 124.986 136.024 125.461 135.895C125.935 135.766 126.364 135.442 126.525 135.002C126.686 134.561 126.531 134.013 126.113 133.763C125.703 133.517 125.169 133.593 124.702 133.715C124.206 133.844 123.721 134.013 123.255 134.221C123.044 134.315 122.875 134.379 122.656 134.548C122.378 134.771 122.337 135.084 122.652 135.265C123.088 135.484 123.528 135.704 124.001 135.839Z" fill="white"/>
<path d="M107.731 117.174C108.167 117.065 108.593 116.868 108.91 116.549C109.226 116.231 109.416 115.778 109.341 115.357C109.267 114.935 108.893 114.574 108.449 114.567C108.012 114.56 107.626 114.865 107.312 115.175C106.978 115.505 106.673 115.861 106.401 116.238C106.277 116.409 106.173 116.538 106.077 116.771C105.96 117.075 106.071 117.34 106.402 117.34C106.847 117.311 107.295 117.283 107.731 117.174Z" fill="white"/>
<path d="M66.9887 104.61C67.0156 104.161 66.9568 103.695 66.7477 103.298C66.5387 102.901 66.1645 102.583 65.74 102.527C65.3155 102.471 64.8584 102.719 64.718 103.14C64.5806 103.555 64.7549 104.015 64.9562 104.408C65.1702 104.825 65.4175 105.223 65.6953 105.597C65.8208 105.766 65.9129 105.904 66.1064 106.066C66.3608 106.269 66.6471 106.243 66.7463 105.926C66.8533 105.494 66.9618 105.058 66.9887 104.61Z" fill="white"/>
<path d="M51.184 111.947C50.9742 111.55 50.6815 111.182 50.2974 110.951C49.9126 110.72 49.4278 110.642 49.0359 110.814C48.644 110.987 48.3818 111.436 48.481 111.869C48.5788 112.295 48.9665 112.598 49.3421 112.829C49.7411 113.075 50.1599 113.286 50.5908 113.461C50.7864 113.541 50.9359 113.612 51.1854 113.649C51.5078 113.691 51.7396 113.52 51.6602 113.198C51.5277 112.773 51.3937 112.344 51.184 111.947Z" fill="white"/>
<path d="M58.8157 106.327C58.6633 105.842 58.4117 105.373 58.0312 105.038C57.6499 104.703 57.1262 104.518 56.6542 104.63C56.1829 104.743 55.7995 105.189 55.8215 105.691C55.8434 106.185 56.2141 106.601 56.5854 106.935C56.9802 107.289 57.4025 107.611 57.8476 107.894C58.0489 108.022 58.202 108.131 58.4713 108.224C58.8221 108.336 59.1147 108.194 59.0914 107.818C59.0304 107.316 58.9687 106.812 58.8157 106.327Z" fill="white"/>
<path d="M45.3576 120.406C44.8665 120.274 44.3364 120.233 43.8481 120.375C43.3605 120.517 42.9233 120.859 42.7645 121.318C42.6065 121.776 42.7766 122.339 43.2124 122.59C43.6405 122.836 44.1904 122.748 44.6716 122.613C45.1826 122.471 45.6808 122.286 46.1577 122.063C46.3739 121.962 46.5482 121.892 46.7715 121.714C47.0542 121.479 47.0911 121.155 46.7623 120.973C46.3073 120.756 45.8481 120.537 45.3576 120.406Z" fill="white"/>
<path d="M49.6473 127.112C49.1512 127.224 48.6629 127.436 48.2972 127.788C47.9315 128.14 47.7041 128.647 47.7778 129.127C47.8508 129.606 48.2639 130.025 48.7664 130.044C49.2603 130.062 49.7054 129.728 50.069 129.385C50.4552 129.021 50.8095 128.626 51.1284 128.206C51.273 128.016 51.3942 127.873 51.509 127.611C51.65 127.271 51.531 126.968 51.1554 126.959C50.6508 126.979 50.1427 127 49.6473 127.112Z" fill="white"/>
<path d="M103.249 113.253C103.68 112.964 104.068 112.584 104.288 112.114C104.507 111.644 104.537 111.078 104.292 110.648C104.046 110.219 103.499 109.971 103.013 110.137C102.536 110.3 102.235 110.783 102.014 111.242C101.78 111.73 101.587 112.236 101.437 112.754C101.369 112.988 101.306 113.169 101.293 113.46C101.284 113.835 101.507 114.081 101.868 113.951C102.342 113.747 102.819 113.542 103.249 113.253Z" fill="white"/>
<path d="M89.6033 108.315C89.777 107.826 89.862 107.289 89.7578 106.782C89.6536 106.275 89.3404 105.801 88.8875 105.603C88.434 105.404 87.8472 105.532 87.5566 105.955C87.271 106.371 87.3164 106.938 87.4135 107.438C87.5162 107.969 87.6636 108.491 87.8514 108.995C87.9365 109.223 87.9939 109.406 88.1562 109.648C88.373 109.955 88.699 110.019 88.9116 109.699C89.1689 109.252 89.429 108.804 89.6033 108.315Z" fill="white"/>
<path d="M97.5891 110.161C97.8697 109.724 98.0738 109.221 98.088 108.703C98.1022 108.185 97.9045 107.654 97.5083 107.357C97.1121 107.06 96.5112 107.051 96.132 107.397C95.7592 107.737 95.6749 108.299 95.6558 108.809C95.6352 109.35 95.6593 109.891 95.7281 110.425C95.7592 110.667 95.7734 110.858 95.8769 111.13C96.0179 111.479 96.3212 111.615 96.6005 111.351C96.9534 110.975 97.3084 110.597 97.5891 110.161Z" fill="white"/>
<path d="M79.2275 149.547C78.8377 149.92 78.5089 150.379 78.3685 150.9C78.2282 151.42 78.2984 152.006 78.6265 152.402C78.9553 152.798 79.5598 152.954 80.0276 152.697C80.4875 152.444 80.7093 151.896 80.8532 151.386C81.0056 150.844 81.1126 150.29 81.1735 149.734C81.2012 149.482 81.2331 149.285 81.1948 148.985C81.1367 148.599 80.8638 148.387 80.5173 148.585C80.0687 148.878 79.618 149.173 79.2275 149.547Z" fill="white"/>
<g opacity="0.3">
<path d="M120.338 135.044C119.903 134.525 119.287 134.194 118.674 133.905C113.473 131.46 107.516 131.239 102.05 129.463C101.687 129.346 101.305 129.205 101.074 128.902C100.629 128.318 100.957 127.485 101.295 126.833C102.24 125.011 103.186 123.189 104.132 121.367C104.579 120.506 105.039 119.571 104.904 118.611C104.743 117.46 103.779 116.606 102.836 115.928C98.7797 113.012 93.86 111.312 88.8687 111.103C86.9155 111.022 84.7753 111.237 83.365 112.59C81.9766 113.922 81.6542 116.048 81.9072 117.955C82.1325 119.652 82.6556 121.649 81.4565 122.871C80.4296 123.917 78.161 124.38 77.8691 121.918C76.6352 118.104 74.8897 114.458 72.6935 111.105C71.887 109.874 70.9799 108.645 69.6993 107.92C68.1415 107.038 66.2387 107.021 64.4677 107.28C56.7352 108.41 50.0557 114.793 48.5753 122.466C48.4562 123.083 48.3719 123.742 48.6128 124.322C48.9176 125.053 49.6688 125.49 50.4037 125.787C53.1428 126.888 56.2199 126.73 59.1383 126.281C62.056 125.833 64.956 125.111 67.9084 125.138C70.8601 125.166 73.972 126.068 75.8812 128.32C76.1101 128.59 76.3234 128.886 76.4148 129.227C76.7996 130.66 75.0506 131.633 73.7126 132.274C72.5475 132.833 71.4618 133.556 70.4979 134.416C69.8785 134.968 69.2691 135.681 69.3229 136.509C69.357 137.03 69.6539 137.496 69.9884 137.897C71.3838 139.569 73.2852 141.797 75.2079 142.819C79.6061 145.159 82.9865 145.459 88.4895 146.064C89.1734 146.139 91.4866 146.242 92.1541 146.077C93.5687 145.724 93.6467 143.016 94.0095 141.605C94.3724 140.192 94.6282 138.624 95.7203 137.659C97.0484 136.486 99.1716 136.699 100.677 137.634C102.182 138.568 103.232 140.063 104.314 141.466C105.396 142.868 106.628 144.271 108.292 144.879C110.89 145.828 113.749 144.596 116.136 143.199C118.252 141.961 120.45 140.329 120.936 137.926C121.138 136.931 120.99 135.822 120.338 135.044Z" fill="white"/>
</g>
<path d="M36.5662 131.95C36.5457 131.965 36.3288 131.687 35.9539 131.17C35.7611 130.914 35.5372 130.593 35.3139 130.197C35.0865 129.803 34.8001 129.369 34.5641 128.847C34.3069 128.334 34.0326 127.769 33.8009 127.136C33.5323 126.516 33.3339 125.823 33.1071 125.099C32.7109 123.636 32.4062 121.989 32.3027 120.239C32.2205 118.488 32.3488 116.817 32.5883 115.32C32.7371 114.576 32.8612 113.866 33.0624 113.221C33.2261 112.566 33.4395 111.976 33.6407 111.439C33.82 110.895 34.0589 110.432 34.2431 110.017C34.4224 109.599 34.6116 109.257 34.776 108.982C35.095 108.428 35.2806 108.129 35.3026 108.142C35.3749 108.18 34.6336 109.39 33.8859 111.528C33.7024 112.064 33.5061 112.651 33.3579 113.3C33.1716 113.939 33.061 114.642 32.9235 115.376C32.706 116.853 32.5904 118.497 32.6705 120.22C32.7733 121.942 33.0624 123.564 33.4345 125.01C33.6492 125.725 33.8335 126.412 34.0858 127.027C34.3019 127.657 34.5592 128.22 34.798 128.733C35.7689 130.779 36.6342 131.905 36.5662 131.95Z" fill="white"/>
<path d="M40.581 103.739C40.6292 103.836 39.8411 104.289 39.0304 105.036C38.2118 105.775 37.6888 106.518 37.5967 106.461C37.5109 106.418 37.9163 105.547 38.7809 104.763C39.6406 103.974 40.5456 103.649 40.581 103.739Z" fill="white"/>
<path d="M177.958 89.9046C176.622 74.0568 166.209 43.6674 118.072 37.8852C74.6171 32.665 58.5014 51.5934 51.131 66.8615C46.7237 75.9916 51.5789 90.3766 59.2583 96.9951C69.9149 106.18 84.5231 110.352 97.6283 113.486C117.947 118.344 132.984 119.081 151.8 117.579C164.974 116.527 173.752 107.606 176.71 101.47C177.997 98.8008 178.206 92.8584 177.958 89.9046Z" fill="#E49D67"/>
<path opacity="0.3" d="M94.6403 61.0477C94.6403 61.0477 92.3201 60.8244 90.6419 63.0915C89.6986 64.3658 90.2415 65.4189 91.0876 65.8972C91.9168 66.3664 93.2286 65.7775 93.8551 64.7641C95.2151 62.5636 94.6403 61.0477 94.6403 61.0477Z" fill="black"/>
<path opacity="0.3" d="M72.0354 61.8507C72.0354 61.8507 74.0545 63.0151 76.5214 61.6466C77.9076 60.8777 77.8495 59.6942 77.2783 58.9082C76.7177 58.1379 75.2798 58.1308 74.2897 58.7934C72.1403 60.2335 72.0354 61.8507 72.0354 61.8507Z" fill="black"/>
<path opacity="0.3" d="M101.199 50.3762C101.199 50.3762 99.4826 48.8029 96.7761 49.6002C95.2552 50.0481 95.0539 51.2146 95.4409 52.1047C95.82 52.9771 97.2218 53.2968 98.3324 52.8659C100.744 51.9297 101.199 50.3762 101.199 50.3762Z" fill="black"/>
<path opacity="0.3" d="M116.003 62.5663C116.003 62.5663 115.955 60.2383 113.509 58.8329C112.134 58.0427 111.152 58.7032 110.775 59.5976C110.406 60.4742 111.144 61.7088 112.223 62.2141C114.566 63.3111 116.003 62.5663 116.003 62.5663Z" fill="black"/>
<path opacity="0.3" d="M103.695 72.1488C103.695 72.1488 101.637 73.2381 101.48 76.0551C101.392 77.6383 102.423 78.2187 103.391 78.1535C104.34 78.0891 105.112 76.8765 105.078 75.6852C105.006 73.0977 103.695 72.1488 103.695 72.1488Z" fill="black"/>
<path opacity="0.3" d="M125.958 67.9932C125.958 67.9932 124.185 69.5027 124.642 72.2857C124.898 73.8505 126.031 74.1942 126.962 73.9207C127.875 73.6528 128.365 72.3013 128.075 71.1454C127.443 68.6367 125.958 67.9932 125.958 67.9932Z" fill="black"/>
<path opacity="0.3" d="M148.065 83.546C148.065 83.546 147.899 81.2236 145.386 79.943C143.973 79.2237 143.025 79.9324 142.695 80.8445C142.37 81.7388 143.169 82.9344 144.272 83.3844C146.668 84.3617 148.065 83.546 148.065 83.546Z" fill="black"/>
<path opacity="0.3" d="M156.866 74.0959C156.866 74.0959 157.97 72.0456 156.534 69.6176C155.726 68.2534 154.546 68.3441 153.778 68.9373C153.026 69.5184 153.059 70.9557 153.75 71.9273C155.249 74.0356 156.866 74.0959 156.866 74.0959Z" fill="black"/>
<path opacity="0.3" d="M140.184 58.961C140.184 58.961 141.262 61.0254 144.077 61.1976C145.66 61.2947 146.246 60.2671 146.186 59.2983C146.127 58.3494 144.918 57.5705 143.727 57.5975C141.14 57.6556 140.184 58.961 140.184 58.961Z" fill="black"/>
<path opacity="0.3" d="M115.638 49.4155C115.638 49.4155 116.716 51.4799 119.532 51.6521C121.115 51.7492 121.701 50.7216 121.641 49.7528C121.582 48.8039 120.373 48.025 119.182 48.0519C116.595 48.1101 115.638 49.4155 115.638 49.4155Z" fill="black"/>
<path d="M94.9076 59.5043C94.9076 59.5043 92.5874 59.2811 90.9092 61.5482C89.9659 62.8224 90.5088 63.8755 91.355 64.3539C92.1841 64.8231 93.4959 64.2341 94.1224 63.2207C95.4824 61.0195 94.9076 59.5043 94.9076 59.5043Z" fill="#FFF1E7"/>
<path d="M72.3032 60.3085C72.3032 60.3085 74.3223 61.4729 76.7892 60.1044C78.1754 59.3355 78.1173 58.1519 77.5461 57.366C76.9855 56.5957 75.5476 56.5886 74.5576 57.2512C72.4081 58.6913 72.3032 60.3085 72.3032 60.3085Z" fill="#FFF1E7"/>
<path d="M101.467 48.8327C101.467 48.8327 99.7497 47.2594 97.0439 48.0566C95.523 48.5045 95.3218 49.671 95.7087 50.5612C96.0879 51.4336 97.4897 51.7532 98.6002 51.3223C101.012 50.3854 101.467 48.8327 101.467 48.8327Z" fill="#FFF1E7"/>
<path d="M116.271 61.025C116.271 61.025 116.222 58.6969 113.776 57.2916C112.401 56.5021 111.419 57.1619 111.043 58.0563C110.674 58.9329 111.411 60.1675 112.491 60.6728C114.834 61.7691 116.271 61.025 116.271 61.025Z" fill="#FFF1E7"/>
<path d="M103.963 70.604C103.963 70.604 101.905 71.6933 101.748 74.5103C101.66 76.0935 102.691 76.6739 103.659 76.6087C104.608 76.5443 105.38 75.331 105.346 74.1397C105.273 71.5536 103.963 70.604 103.963 70.604Z" fill="#FFF1E7"/>
<path d="M126.226 66.4498C126.226 66.4498 124.453 67.9593 124.909 70.7424C125.166 72.3072 126.298 72.6509 127.229 72.3773C128.142 72.1094 128.633 70.758 128.342 69.6021C127.711 67.0926 126.226 66.4498 126.226 66.4498Z" fill="#FFF1E7"/>
<path d="M148.333 82.0024C148.333 82.0024 148.167 79.68 145.653 78.3994C144.241 77.6801 143.293 78.3888 142.962 79.3009C142.638 80.1945 143.437 81.3908 144.54 81.8408C146.935 82.8181 148.333 82.0024 148.333 82.0024Z" fill="#FFF1E7"/>
<path d="M157.134 72.5515C157.134 72.5515 158.238 70.5012 156.801 68.0739C155.994 66.7097 154.814 66.8004 154.046 67.3936C153.293 67.9747 153.326 69.412 154.017 70.3836C155.516 72.4919 157.134 72.5515 157.134 72.5515Z" fill="#FFF1E7"/>
<path d="M140.451 57.4162C140.451 57.4162 141.529 59.4806 144.345 59.6528C145.927 59.7499 146.514 58.7223 146.454 57.7535C146.395 56.8046 145.186 56.0257 143.995 56.0527C141.408 56.1108 140.451 57.4162 140.451 57.4162Z" fill="#FFF1E7"/>
<path d="M115.906 47.8718C115.906 47.8718 116.983 49.9362 119.799 50.1084C121.382 50.2055 121.968 49.1779 121.908 48.2091C121.849 47.2602 120.64 46.4813 119.449 46.5082C116.863 46.5664 115.906 47.8718 115.906 47.8718Z" fill="#FFF1E7"/>
<path d="M136.933 118.598C136.933 118.605 136.841 118.608 136.661 118.607C136.463 118.604 136.2 118.6 135.864 118.595C135.164 118.577 134.13 118.561 132.801 118.496C130.142 118.386 126.294 118.165 121.56 117.679C116.824 117.201 111.201 116.45 105.007 115.33C101.912 114.764 98.6732 114.112 95.3303 113.37C91.9924 112.619 88.5254 111.844 85.0514 110.757C81.5746 109.688 78.2444 108.447 75.0801 107.13C73.5012 106.469 71.9505 105.799 70.4843 105.032C69.0173 104.271 67.6226 103.448 66.3002 102.587C63.6539 100.867 61.3039 98.9888 59.2437 97.0853C57.1793 95.1938 55.4012 93.2321 54.1475 91.1904C51.6083 87.1182 50.6175 83.2998 50.0881 80.7074C49.5701 78.0916 49.519 76.6133 49.519 76.6133C49.5254 76.6126 49.5424 76.7033 49.5701 76.8805C49.5984 77.0761 49.6353 77.3369 49.6828 77.6685C49.7869 78.3602 49.9457 79.38 50.2284 80.6776C50.7989 83.2516 51.8251 87.0367 54.3672 91.0493C55.623 93.0613 57.3855 94.9833 59.4506 96.8592C61.5073 98.7408 63.8509 100.599 66.4851 102.301C67.8012 103.152 69.1881 103.965 70.6458 104.717C72.1001 105.475 73.6401 106.136 75.2183 106.795C78.3748 108.104 81.6958 109.338 85.1591 110.404C88.6161 111.485 92.0717 112.26 95.4075 113.016C98.7448 113.762 101.978 114.421 105.067 114.995C111.249 116.131 116.859 116.908 121.585 117.419C126.311 117.937 130.152 118.198 132.807 118.352C134.118 118.424 135.145 118.481 135.865 118.52C136.2 118.541 136.463 118.557 136.66 118.569C136.842 118.582 136.934 118.592 136.933 118.598Z" fill="#263238"/>
<path d="M155.591 108.35C155.597 108.375 155.218 108.485 154.526 108.665C153.836 108.849 152.827 109.074 151.572 109.312C149.064 109.793 145.552 110.254 141.65 110.345C137.747 110.43 134.217 110.128 131.689 109.762C130.425 109.58 129.407 109.402 128.709 109.249C128.011 109.101 127.627 109.007 127.632 108.982C127.637 108.957 128.03 109.003 128.734 109.107C129.438 109.216 130.459 109.355 131.723 109.503C134.249 109.802 137.76 110.061 141.642 109.976C145.522 109.885 149.017 109.468 151.527 109.056C152.783 108.851 153.797 108.666 154.495 108.525C155.195 108.388 155.584 108.325 155.591 108.35Z" fill="#263238"/>
<g opacity="0.3">
<path d="M85.4656 68.9957C86.4365 69.1275 87.2132 70.1027 87.1253 71.0785C87.0375 72.0544 86.0985 72.8743 85.1198 72.8304C84.1403 72.7865 83.2793 71.8857 83.2786 70.9056C83.2779 69.9255 84.1389 69.024 85.1176 68.9794" fill="#931A00"/>
</g>
<g opacity="0.3">
<path d="M88.5554 50.1699C89.5263 50.3024 90.3031 51.2768 90.2152 52.2527C90.1273 53.2286 89.1883 54.0485 88.2096 54.0046C87.2302 53.9607 86.3691 53.0599 86.3684 52.0798C86.3677 51.0997 87.2288 50.1982 88.2082 50.1536" fill="#931A00"/>
</g>
<g opacity="0.3">
<path d="M159.249 79.1762C160.848 79.3938 162.125 80.9983 161.981 82.6049C161.836 84.2115 160.291 85.5608 158.679 85.4886C157.067 85.4163 155.649 83.9337 155.649 82.3207C155.648 80.7077 157.065 79.2237 158.676 79.15" fill="#931A00"/>
</g>
<g opacity="0.3">
<path d="M130.623 55.0193C131.423 55.1278 132.062 55.93 131.989 56.7337C131.917 57.5373 131.144 58.212 130.338 58.1759C129.533 58.1397 128.823 57.3984 128.823 56.5919C128.823 55.7854 129.531 55.0434 130.337 55.0066" fill="#D27A4B"/>
</g>
<g opacity="0.3">
<path d="M89.4645 75.2983C89.0754 75.4145 88.8189 75.8908 88.9826 76.2628C89.1463 76.6349 89.7281 76.7469 89.9868 76.4336C90.2462 76.1197 89.8684 75.2501 89.4645 75.2983Z" fill="#931A00"/>
</g>
<path d="M78.8531 44.1738C78.8573 44.1858 78.7489 44.2383 78.5391 44.3276C78.289 44.4289 77.9842 44.5515 77.6171 44.7004C77.2139 44.8534 76.7235 45.0469 76.1671 45.3049C75.6094 45.5579 74.9624 45.8165 74.2799 46.1758C73.5882 46.5153 72.8335 46.8902 72.0511 47.3473C71.2509 47.7718 70.4402 48.2991 69.5763 48.8363C67.879 49.9574 66.0782 51.2898 64.3143 52.839C62.5638 54.4052 61.0245 56.0338 59.7078 57.5844C59.0714 58.3774 58.4506 59.1201 57.9332 59.8635C57.3861 60.585 56.9226 61.2901 56.5031 61.9357C56.0651 62.57 55.7299 63.1816 55.4124 63.7046C55.0899 64.2255 54.8391 64.689 54.6385 65.071C54.4471 65.4175 54.2884 65.7053 54.158 65.9413C54.0446 66.139 53.9794 66.2396 53.9674 66.2347C53.956 66.229 53.9986 66.117 54.0907 65.9094C54.2048 65.6642 54.343 65.3658 54.5102 65.0058C54.6916 64.6125 54.9248 64.1369 55.2317 63.6033C55.5343 63.0675 55.8546 62.4432 56.282 61.7961C56.6902 61.137 57.1437 60.4198 57.6845 59.6849C58.1947 58.9288 58.8113 58.1733 59.4456 57.3682C60.7581 55.7928 62.303 54.143 64.0683 52.564C65.8472 51.0013 67.6699 49.6654 69.3913 48.5514C70.2673 48.0177 71.0901 47.4969 71.9022 47.0808C72.6967 46.6322 73.4635 46.268 74.1665 45.942C74.8603 45.5961 75.5187 45.3524 76.0863 45.1164C76.6526 44.8754 77.1529 44.7004 77.5654 44.5678C77.9431 44.4452 78.2557 44.3432 78.5129 44.2595C78.7333 44.1908 78.8495 44.1617 78.8531 44.1738Z" fill="white"/>
<path d="M86.3357 42.2538C86.3619 42.3523 85.5171 42.6634 84.4491 42.9476C83.3804 43.2325 82.4939 43.3834 82.4676 43.2849C82.4414 43.1864 83.2862 42.876 84.3542 42.5911C85.4222 42.3062 86.3095 42.1553 86.3357 42.2538Z" fill="white"/>
<path opacity="0.3" d="M105.009 115.329C101.913 114.764 98.6743 114.111 95.3314 113.369C91.9934 112.619 88.5265 111.843 85.0525 110.757C81.5757 109.688 78.2455 108.447 75.0812 107.13C73.5023 106.469 71.9516 105.799 70.4854 105.031C69.0184 104.27 67.6237 103.448 66.3012 102.586C63.655 100.866 61.305 98.9884 59.2448 97.0849C58.5666 96.4634 57.9238 95.834 57.3157 95.1976C56.0493 95.4478 54.6369 95.7646 53.1323 96.1721C53.6894 101.664 57.0167 106.613 61.2802 110.13C65.5996 113.694 70.8241 115.969 76.0684 117.932C83.4693 120.7 91.0686 122.937 98.7884 124.622C109.346 126.926 121.082 127.992 130.358 122.516C129.016 121.032 127.493 119.543 125.831 118.068C124.501 117.962 123.082 117.835 121.559 117.679C116.825 117.2 111.203 116.448 105.009 115.329Z" fill="black"/>
<path opacity="0.3" d="M66.1113 211.119L66.3282 212.44C79.5644 219.339 95.0217 221.262 109.585 217.989C124.147 214.716 137.46 206.15 146.472 194.252C146.132 194.035 145.79 193.819 145.447 193.602C135.576 199.338 119.378 205.974 106.855 208.846C95.5079 211.449 80.1477 212.943 66.1113 211.119Z" fill="black"/>
<path opacity="0.3" d="M163.506 277.728C160.321 278.231 157.563 275.259 154.346 275.024C152.945 274.921 151.553 275.351 150.149 275.314C148.744 275.278 147.16 274.534 146.923 273.15C146.566 274.861 144.522 275.768 142.795 275.499C141.068 275.229 139.608 274.119 138.229 273.045C141.126 277.307 140.136 283.74 136.091 286.933C132.047 290.126 125.559 289.597 122.087 285.79C121.613 287.494 119.623 288.4 117.861 288.246C116.099 288.091 114.52 287.142 113.013 286.217C112.082 288.508 110.774 291.118 108.338 291.544C107.576 291.677 106.759 291.573 106.054 291.892C104.864 292.429 104.484 293.886 103.988 295.093C102.872 297.813 100.368 300.005 97.4584 300.419C94.5478 300.833 91.375 299.261 90.2233 296.557C89.8881 298.579 87.9966 300.229 85.9478 300.287C83.899 300.345 81.9175 298.806 81.4667 296.807C79.4349 298.465 76.3408 297.24 74.3522 295.531C72.9192 294.299 71.6988 292.831 70.7251 291.213C70.7832 294.347 71.7541 297.47 73.5627 300.034C76.3068 303.923 80.904 306.44 85.6594 306.657C88.8577 311.621 96.0063 313.548 101.266 310.863C103.45 309.748 105.335 307.953 107.73 307.431C110.118 306.911 112.919 307.668 114.831 306.146C116.032 305.19 116.49 303.605 117.246 302.269C118.307 300.392 120.068 298.92 122.105 298.207C126.811 296.561 132.734 298.809 136.6 295.66C139.56 297.387 143.513 297.236 146.334 295.29C149.155 293.344 150.698 289.702 150.134 286.321C153.539 287.518 157.687 286.016 159.537 282.917C162.932 283.296 166.443 283.666 169.702 282.641C172.96 281.616 175.916 278.804 175.977 275.389C176.023 272.833 174.498 270.574 172.561 268.823C171.472 270.862 169.845 272.716 168.269 274.434C166.938 275.884 165.452 277.421 163.506 277.728Z" fill="black"/>
</svg>
