<svg width="200" height="200" viewBox="0 0 200 200" fill="none" xmlns="http://www.w3.org/2000/svg">
<path d="M101.664 76.1749V116.764C101.664 116.764 158.261 151.669 158.34 150.741C158.418 149.814 157.972 109.417 157.054 108.867C156.136 108.316 104.912 74.4802 101.664 76.1749Z" fill="#ABC099"/>
<path d="M65.5249 138.196C65.5249 138.196 99.2774 114.687 102.508 115.973C105.738 117.258 142.597 136.175 141.891 138.196C141.185 140.216 99.4941 164.432 98.943 163.986C98.3923 163.541 65.5249 138.196 65.5249 138.196Z" fill="#CDDDC0"/>
<path d="M45.0203 150.926L45.7547 108.867L101.664 143.212V184.169L45.0203 150.926Z" fill="#CDDDC0"/>
<path d="M157.054 108.867C157.054 108.867 158.891 148.354 158.34 150.742C157.789 153.129 103.759 185.821 101.664 184.168C99.5679 182.515 100.671 143.27 100.671 143.27L157.054 108.867Z" fill="#CDDDC0"/>
<path d="M45.7421 109.604C45.7548 108.867 100.821 75.0729 101.664 76.1748C102.507 77.2767 101.664 116.764 101.664 116.764C101.664 116.764 70.5406 133.078 70.6493 132.476C70.7841 131.731 45.7421 109.604 45.7421 109.604Z" fill="#ABC099"/>
<path d="M46.2539 109.173C46.2539 109.173 23.9967 83.9852 23.5315 82.7865C23.0423 81.5262 23.5315 80.7338 23.5315 80.7338C23.5315 80.7338 74.2223 51.931 78.4465 52.2984C82.6708 52.6659 100.854 74.8891 100.67 76.5417L46.2539 109.173Z" fill="#CDDDC0"/>
<path d="M46.1914 109.578L46.0186 109.382C43.7365 106.799 23.7103 84.1165 23.2383 82.9011C22.6989 81.5109 23.2406 80.6072 23.2641 80.5692L23.3062 80.5009L23.3763 80.4611C25.4498 79.2827 74.2047 51.6025 78.4742 51.9854C82.0744 52.2985 93.4236 66.0253 94.706 67.5892C96.2089 69.4228 101.103 75.4892 100.982 76.5766L100.965 76.7314L100.831 76.8115L46.1914 109.578ZM23.7682 80.9616C23.6822 81.1521 23.4732 81.7661 23.8252 82.673C24.2388 83.6093 37.4352 98.7153 46.3168 108.769L100.329 76.3789C99.5494 74.0434 82.5346 52.9696 78.4194 52.6117C75.1694 52.3383 41.2943 71.0048 23.7682 80.9616Z" fill="#758B63"/>
<path d="M101.663 76.1752C101.663 76.1752 120.138 53.5778 123.26 52.2958C126.383 51.0138 174.869 82.6037 175.604 84.6238C175.604 84.6238 175.788 85.7257 175.604 87.0113C175.421 88.2969 157.605 108.867 157.055 108.867C156.504 108.867 101.663 76.1752 101.663 76.1752Z" fill="#CDDDC0"/>
<path d="M157.054 109.182C156.499 109.182 122.011 88.6711 101.502 76.4453L101.189 76.2585L101.42 75.9761C102.176 75.0507 119.982 53.3017 123.141 52.0048C123.44 51.8821 124.049 51.8582 126.115 52.7713C136.739 57.4676 175.157 82.4729 175.899 84.5165C175.922 84.6192 176.104 85.7369 175.915 87.056C175.792 87.9181 170.093 94.6751 166.706 98.6265C162.578 103.441 157.553 109.182 157.054 109.182ZM102.137 76.0919C120.466 87.0171 154.542 107.268 157.023 108.512C158.629 107.125 174.901 88.4357 175.294 86.9574C175.447 85.884 175.329 84.9265 175.3 84.7174C174.716 83.73 163.861 76.1684 150.016 67.3963C132.982 56.6046 124.365 52.179 123.379 52.5867C120.997 53.5646 108.581 68.2231 102.137 76.0919Z" fill="#758B63"/>
<path d="M101.664 143.212C101.664 143.212 120.506 144.681 122.342 143.212C124.179 141.743 173.951 112.357 174.502 111.255C175.053 110.153 174.869 108.684 173.216 108.867C171.563 109.051 157.054 108.867 157.054 108.867C157.054 108.867 101.739 141.559 101.664 143.212Z" fill="#CDDDC0"/>
<path d="M115.971 144.18C110.286 144.18 102.878 143.622 101.639 143.525L101.335 143.501L101.349 143.197C101.367 142.807 101.404 141.997 129.224 125.15C142.906 116.865 156.756 108.678 156.894 108.596L156.97 108.551L157.057 108.552C157.204 108.555 171.566 108.734 173.182 108.554C174.115 108.45 174.584 108.82 174.813 109.149C175.2 109.704 175.188 110.585 174.783 111.395C174.467 112.027 164.877 117.863 142.058 131.579C131.977 137.638 123.271 142.871 122.539 143.457C121.859 144.001 119.191 144.18 115.971 144.18ZM102.299 142.945C109.827 143.511 120.904 143.96 122.145 142.966C122.91 142.354 131.633 137.111 141.733 131.04C155.148 122.977 173.519 111.934 174.24 111.081C174.519 110.517 174.549 109.872 174.297 109.509C174.106 109.234 173.753 109.124 173.251 109.18C171.647 109.357 158.466 109.199 157.138 109.183C136.446 121.413 105.92 139.817 102.299 142.945Z" fill="#758B63"/>
<path d="M48.1956 108.226C48.1956 108.226 30.6944 108.652 29.2251 108.852C27.7558 109.051 27.5721 110.153 27.7558 111.071C27.9395 111.99 79.9159 143.416 81.569 143.865C83.222 144.314 101.664 143.212 101.664 143.212L48.1956 108.226Z" fill="#CDDDC0"/>
<path d="M83.7166 144.283C82.5899 144.283 81.7853 144.249 81.4862 144.168C80.4757 143.894 64.4637 134.297 53.9481 127.913C27.6047 111.921 27.4866 111.328 27.4472 111.132C27.3458 110.627 27.3119 109.903 27.726 109.323C28.0323 108.893 28.5224 108.63 29.1826 108.54C30.6524 108.341 47.4725 107.93 48.188 107.911L48.2862 107.909L48.3681 107.963L102.631 143.47L101.682 143.526C101.061 143.563 88.9374 144.283 83.7166 144.283ZM28.0518 110.942C29.7627 112.598 79.7014 142.997 81.6518 143.561C82.8921 143.9 95.0278 143.282 100.695 142.954L48.1056 108.543C46.6933 108.577 30.647 108.976 29.2672 109.163C28.7862 109.229 28.44 109.405 28.2387 109.688C27.9717 110.063 27.9848 110.564 28.0518 110.942Z" fill="#758B63"/>
<path d="M28.3432 109.816C31.2479 111.37 34.0318 113.206 36.8555 114.899C42.8591 118.499 48.8604 122.104 54.8617 125.707C60.921 129.346 66.9798 132.985 73.0408 136.62C75.1428 137.881 77.2447 139.141 79.3485 140.399C80.2956 140.965 81.259 141.695 82.2731 142.138C82.7143 142.33 83.3053 142.205 83.7764 142.19C85.2892 142.143 86.8019 142.095 88.3147 142.048C91.4253 141.951 94.5364 141.854 97.647 141.757C97.8529 141.75 98.0583 141.744 98.2642 141.737C98.7688 141.721 98.7711 140.935 98.2642 140.951C95.8514 141.027 93.4386 141.102 91.0257 141.177C89.2727 141.232 87.5192 141.287 85.7661 141.342C85.1032 141.362 84.4398 141.383 83.7768 141.404C83.446 141.414 82.9854 141.344 82.6663 141.438C82.4455 141.504 82.7962 141.584 82.6306 141.436C82.527 141.343 82.3641 141.28 82.2446 141.209C81.731 140.905 81.2187 140.599 80.7065 140.294C78.8145 139.165 76.9248 138.032 75.0346 136.899C69.1713 133.384 63.3112 129.864 57.4506 126.345C51.3058 122.655 45.1615 118.964 39.015 115.277C35.6704 113.271 32.3625 111.17 28.9591 109.263C28.8853 109.222 28.8143 109.177 28.7396 109.137C28.2943 108.898 27.8966 109.577 28.3432 109.816Z" fill="#758B63"/>
<path d="M81.9228 143.864C82.1554 143.223 82.388 142.581 82.6206 141.94C82.6908 141.746 82.5419 141.501 82.346 141.457C82.1247 141.407 81.9378 141.524 81.8622 141.732C81.6296 142.373 81.397 143.014 81.1644 143.655C81.0943 143.849 81.2432 144.094 81.4391 144.139C81.6608 144.189 81.8477 144.071 81.9228 143.864Z" fill="#758B63"/>
<path d="M103.713 142.029C106.995 142.265 110.283 142.402 113.572 142.431C115.166 142.445 116.76 142.433 118.352 142.398C119.024 142.383 119.956 142.526 120.58 142.271C121.299 141.978 121.995 141.415 122.656 141.014C126.539 138.662 130.422 136.311 134.304 133.96C139.8 130.631 145.297 127.302 150.793 123.974C155.841 120.916 160.889 117.859 165.937 114.802C167.654 113.763 169.37 112.723 171.087 111.683C171.9 111.19 172.773 110.741 173.55 110.192C173.586 110.166 173.626 110.146 173.664 110.123C174.096 109.861 173.701 109.181 173.267 109.444C171.209 110.69 169.151 111.937 167.093 113.183C162.277 116.1 157.461 119.016 152.646 121.933C147.11 125.285 141.575 128.637 136.04 131.99C131.811 134.551 127.582 137.112 123.354 139.673C122.384 140.26 121.414 140.848 120.444 141.435C120.371 141.479 120.285 141.554 120.203 141.581C120.188 141.586 120.176 141.602 120.161 141.607C120.031 141.643 119.753 141.575 119.586 141.58C119.124 141.594 118.661 141.606 118.199 141.616C114.961 141.685 111.721 141.652 108.486 141.517C106.894 141.45 105.303 141.358 103.714 141.244C103.208 141.207 103.211 141.993 103.713 142.029Z" fill="#758B63"/>
<path d="M24.1075 80.6696C24.8786 81.7665 25.8267 82.7647 26.6923 83.7852C28.4965 85.912 30.3111 88.0293 32.1276 90.1458C36.1921 94.8818 40.2675 99.6093 44.3533 104.327C45.4239 105.564 46.4783 106.817 47.5752 108.03C47.9151 108.406 48.4698 107.849 48.1309 107.475C45.3782 104.43 42.7441 101.271 40.0634 98.1644C35.9993 93.4541 31.9366 88.7421 27.906 84.0033C26.8978 82.8181 25.5932 81.4198 24.7863 80.2722C24.4976 79.8618 23.8157 80.2546 24.1075 80.6696Z" fill="#758B63"/>
<path d="M155.314 107.833C161.606 100.013 168.212 92.45 175.116 85.1648C175.464 84.7979 174.909 84.2408 174.56 84.6092C167.656 91.8947 161.049 99.4572 154.758 107.278C154.444 107.668 154.997 108.228 155.314 107.833Z" fill="#758B63"/>
<path d="M79.2511 128.756C86.8756 124.591 94.5001 120.426 102.125 116.261C102.569 116.018 102.173 115.339 101.728 115.582C94.1037 119.747 86.4788 123.912 78.8543 128.077C78.4104 128.319 78.8068 128.999 79.2511 128.756Z" fill="#758B63"/>
<path d="M101.728 116.262C109.242 120.114 116.553 124.344 124.067 128.196C124.516 128.426 124.914 127.748 124.464 127.517C116.95 123.665 109.638 119.435 102.125 115.583C101.676 115.353 101.278 116.031 101.728 116.262Z" fill="#758B63"/>
<path d="M102.202 116.21C102.67 105.824 102.569 95.4155 101.881 85.0415C101.686 82.0997 101.443 79.1619 101.157 76.2278C101.108 75.7286 100.321 75.7237 100.371 76.2278C101.381 86.5746 101.823 96.9749 101.679 107.371C101.638 110.318 101.549 113.265 101.416 116.21C101.392 116.716 102.179 116.715 102.202 116.21Z" fill="#758B63"/>
<path d="M102.23 184.57C102.229 173.728 102.125 162.886 102.078 152.044C102.065 149.1 102.057 146.156 102.057 143.212C102.057 142.706 101.271 142.705 101.271 143.212C101.272 154.054 101.376 164.896 101.423 175.738C101.435 178.682 101.444 181.626 101.444 184.57C101.444 185.076 102.23 185.077 102.23 184.57Z" fill="#758B63"/>
<path d="M120.23 142.11C120.453 142.682 120.803 143.201 121.279 143.593C121.362 143.661 121.446 143.708 121.557 143.708C121.653 143.708 121.768 143.665 121.835 143.593C121.967 143.449 122.004 143.177 121.835 143.037C121.738 142.958 121.645 142.873 121.559 142.782C121.516 142.738 121.475 142.693 121.436 142.647C121.415 142.623 121.394 142.598 121.374 142.572C121.366 142.562 121.333 142.519 121.372 142.57C121.414 142.625 121.369 142.566 121.363 142.559C121.213 142.357 121.088 142.138 120.989 141.908C121.002 141.939 121.015 141.97 121.029 142.002C121.015 141.969 121.002 141.935 120.988 141.902C120.95 141.804 120.902 141.722 120.808 141.667C120.724 141.618 120.599 141.597 120.505 141.627C120.32 141.686 120.151 141.904 120.23 142.11Z" fill="#758B63"/>
<path d="M60.4553 88.5144C65.1154 80.8144 69.3826 72.8826 73.2403 64.7513C73.4562 64.2965 72.7783 63.8974 72.5616 64.3544C68.7038 72.4862 64.4366 80.418 59.7765 88.1176C59.5141 88.5515 60.1933 88.947 60.4553 88.5144Z" fill="#758B63"/>
<path d="M66.5561 83.4871C67.6105 82.0046 68.6649 80.5217 69.7197 79.0392C69.8428 78.8664 69.7505 78.6021 69.5785 78.5016C69.3812 78.3863 69.164 78.4691 69.0409 78.6428C67.9866 80.1257 66.9322 81.6082 65.8774 83.0906C65.7543 83.264 65.8466 83.5282 66.0186 83.6282C66.2158 83.7436 66.4331 83.6604 66.5561 83.4871Z" fill="#758B63"/>
<path d="M47.8531 139.356C47.8531 139.356 47.4273 147.977 47.8531 149.091C48.2789 150.204 59.4114 156.822 59.7829 155.663C60.1539 154.505 60.5793 147.662 60.0227 146.548C59.4661 145.434 47.9065 138.146 47.8531 139.356Z" fill="#83BC53"/>
<path d="M94.635 164.116C94.8124 163.929 95.1169 163.958 95.2577 164.175C96.0129 165.335 97.6234 168.281 97.0288 168.221C96.3157 168.15 95.9677 167.819 95.9677 167.819C95.9677 167.819 95.783 173.525 95.6111 173.523C95.092 173.515 94.0427 172.881 93.8997 172.382C93.7571 171.883 93.8997 166.892 93.8997 166.892C93.8997 166.892 92.8304 166.535 92.9014 166.179C92.9539 165.916 94.0571 164.725 94.635 164.116Z" fill="#2F2B28"/>
<path d="M89.9537 161.76C90.1311 161.572 90.4352 161.602 90.5764 161.818C91.3316 162.978 92.9422 165.925 92.3476 165.865C91.6344 165.793 91.2864 165.462 91.2864 165.462C91.2864 165.462 91.1018 171.169 90.9298 171.167C90.4108 171.159 89.3609 170.525 89.2184 170.026C89.0758 169.527 89.2184 164.535 89.2184 164.535C89.2184 164.535 88.1491 164.179 88.2201 163.822C88.2726 163.56 89.3759 162.369 89.9537 161.76Z" fill="#2F2B28"/>
<path d="M96.4478 175.433C96.4478 175.433 96.3283 177.002 96.1147 177.145C95.9007 177.287 88.1567 172.411 88.1567 172.411C87.8929 171.837 88.0336 171.201 88.116 170.58C88.2015 170.095 96.0862 174.761 96.4478 175.433Z" fill="#2F2B28"/>
<path d="M85.057 164.905C85.1991 164.815 86.0783 160.211 82.5306 157.546C78.9828 154.882 77.6384 160.845 77.8538 161.225C78.0683 161.606 84.2506 165.412 85.057 164.905Z" fill="#2F2B28"/>
<path d="M82.5613 168.024C82.1857 168.467 81.6223 168.034 81.344 167.691C81.0259 167.298 81.0083 166.812 81.0223 166.328C81.0599 165.042 81.259 163.726 81.5843 162.482C81.7296 161.927 80.8703 161.69 80.725 162.245C80.5137 163.054 80.3806 163.882 80.2734 164.711C80.1779 165.448 80.0675 166.229 80.1489 166.973C80.2254 167.669 80.5453 168.247 81.0929 168.686C81.7015 169.176 82.641 169.303 83.1912 168.654C83.56 168.219 82.9328 167.586 82.5613 168.024Z" fill="#2F2B28"/>
<path d="M130.54 73.1257C131.634 77.1663 133.375 81.0095 135.694 84.4944C135.974 84.9134 136.655 84.5201 136.373 84.0975C134.089 80.6651 132.376 76.8965 131.298 72.9166C131.166 72.4293 130.407 72.6361 130.54 73.1257Z" fill="#758B63"/>
<path d="M95.6156 139.124C102.5 134.866 109.44 130.698 116.373 126.521C117.06 126.107 117.746 125.694 118.433 125.281C118.866 125.02 118.471 124.34 118.036 124.602C112.319 128.04 106.608 131.489 100.91 134.958C99.01 136.115 97.1112 137.275 95.2192 138.445C94.7893 138.711 95.1834 139.392 95.6156 139.124Z" fill="#758B63"/>
<path d="M76.6465 118.08C80.1806 113.056 83.3546 107.79 86.1458 102.319C86.3752 101.869 85.6973 101.471 85.467 101.922C82.6758 107.394 79.5019 112.659 75.9677 117.683C75.6758 118.097 76.3569 118.491 76.6465 118.08Z" fill="#758B63"/>
<path d="M23.8293 41.8531C24.0686 37.4505 26.3353 33.3647 29.9948 29.9034C34.4666 25.6737 41.03 23.4387 47.0308 24.8103C53.0312 26.1819 58.0474 30.8636 60.3127 36.5871C62.5464 42.2318 61.7757 49.8505 57.5374 54.8481C57.5374 54.8481 61.0173 61.7431 59.5367 62.5844C58.9163 63.1953 54.1915 60.1032 52.6353 58.571L52.6787 58.5284C47.5585 61.8087 40.496 63.565 33.0457 59.409C27.4811 56.3047 23.3926 49.8758 23.8293 41.8531Z" fill="#83BC53"/>
<path d="M37.713 31.0266C37.713 31.0266 39.7177 45.8045 41.2196 46.6896C42.7215 47.5743 45.9041 46.7516 46.0919 46.2955C46.2797 45.8394 46.9707 29.841 46.3937 29.8007C38.2877 29.2355 37.713 31.0266 37.713 31.0266Z" fill="#CDDDC0"/>
<path d="M47.4503 51.0672C48.2997 53.1045 47.3363 55.4445 45.2991 56.2938C43.2618 57.1432 40.9214 56.1798 40.0725 54.1426C39.2231 52.1053 40.1865 49.7649 42.2237 48.916C44.261 48.067 46.601 49.03 47.4503 51.0672Z" fill="#CDDDC0"/>
<path d="M79.4408 41.2147C77.7112 37.929 76.7713 34.307 76.6813 30.595C76.4858 30.7072 76.2908 30.819 76.0953 30.9312C80.539 33.0065 84.9823 35.0817 89.4256 37.157C89.5975 37.2371 89.8695 37.2244 89.9582 37.0172C93.0204 29.8732 96.0826 22.7289 99.1444 15.5849C98.9072 15.5537 98.6701 15.5229 98.4325 15.4917C100.686 22.9886 102.94 30.486 105.193 37.9828C105.271 38.2426 105.535 38.32 105.765 38.2154C112.689 35.0713 119.327 31.3304 125.603 27.0355C125.412 26.8889 125.221 26.7423 125.031 26.5956C123.611 32.0802 122.19 37.5652 120.77 43.0497C120.69 43.3601 120.962 43.5746 121.249 43.5285C123.301 43.1995 125.231 42.6551 127.151 41.8704C129.07 41.0858 131.001 40.5409 133.052 40.2124C133.546 40.1332 133.336 39.3829 132.845 39.4617C130.794 39.7907 128.864 40.335 126.944 41.1197C125.024 41.9044 123.094 42.4492 121.043 42.7777C121.202 42.9375 121.362 43.0972 121.522 43.257C122.942 37.7724 124.362 32.2874 125.782 26.8029C125.862 26.4938 125.501 26.1639 125.21 26.3631C118.935 30.6579 112.297 34.3989 105.373 37.543C105.563 37.6204 105.754 37.6982 105.945 37.7756C103.691 30.2787 101.438 22.7814 99.1842 15.2845C99.0973 14.9958 98.6122 14.8654 98.4724 15.1912C95.4102 22.3356 92.348 29.4796 89.2862 36.6235C89.4636 36.5769 89.6414 36.5303 89.8188 36.4837C85.3755 34.4084 80.9318 32.3331 76.4885 30.2579C76.2337 30.1389 75.8948 30.2764 75.9025 30.5941C75.9962 34.4446 76.9745 38.1987 78.7683 41.6071C79.0018 42.0514 79.6743 41.6587 79.4408 41.2147Z" fill="#2F2B28"/>
<path d="M136.452 38.4276C136.333 38.4063 136.215 38.3851 136.096 38.3638C136.045 38.3475 135.993 38.3452 135.941 38.357C135.889 38.3593 135.841 38.3747 135.796 38.4032C135.751 38.4276 135.714 38.4611 135.687 38.5036C135.652 38.5412 135.629 38.5855 135.617 38.6362C135.612 38.6706 135.607 38.705 135.603 38.7398C135.603 38.81 135.621 38.8756 135.656 38.9362C135.676 38.9625 135.697 38.9887 135.717 39.015C135.765 39.0634 135.822 39.0964 135.889 39.115C136.007 39.1363 136.126 39.1575 136.244 39.1788C136.296 39.1951 136.348 39.1973 136.399 39.1856C136.451 39.1833 136.499 39.1679 136.544 39.1394C136.589 39.115 136.626 39.0815 136.653 39.039C136.688 39.0014 136.711 38.957 136.723 38.9064C136.727 38.872 136.732 38.8376 136.737 38.8027C136.737 38.7326 136.719 38.667 136.684 38.6063C136.664 38.5801 136.643 38.5539 136.623 38.5276C136.575 38.4796 136.518 38.4462 136.452 38.4276Z" fill="#2F2B28"/>
</svg>
