<svg width="325" height="374" viewBox="0 0 325 374" fill="none" xmlns="http://www.w3.org/2000/svg">
<path d="M111.058 66.4396C109.615 61.7103 105.971 58.6891 99.5993 59.3722C99.5993 59.3722 92.3344 60.4234 88.0208 61.3661C83.7071 62.3087 79.2833 64.5389 77.4989 68.5766C76.1341 71.6648 76.557 75.2166 77.0861 78.5504C77.4796 81.0286 77.9286 83.5346 78.9991 85.8041C80.0697 88.0737 81.8472 90.1137 84.2023 90.9793C86.8108 91.9381 89.7036 91.3536 92.4184 90.7591C93.8809 90.4387 95.9334 90.1068 97.3967 89.7864C98.7483 93.7625 104.117 94.9162 104.46 93.8942C104.543 93.6462 102.169 89.9851 102.075 88.6443C103.554 88.3209 105.033 87.9967 106.511 87.6732C109.099 87.1064 111.986 86.3294 113.296 84.0275C114.207 82.4279 113.907 79.3991 113.788 77.5624L111.058 66.4396Z" fill="#83BC53"/>
<path d="M237.802 171.169C223.006 157.224 195.196 131.401 188.197 127.481L180.687 152.506C181.448 155.832 218.584 185.584 218.584 185.584L204.874 217.871L217.942 220.178C217.942 220.178 239.353 197.851 242.57 184.037C242.995 182.213 244.436 177.42 237.802 171.169Z" fill="#FED1BD"/>
<path d="M218.917 186.272C222.004 183.679 225.746 181.97 229.717 181.289C230.326 181.184 230.068 180.256 229.461 180.361C225.323 181.071 221.45 182.894 218.237 185.592C217.761 185.991 218.445 186.669 218.917 186.272Z" fill="#C78B71"/>
<path d="M136.461 48.1164C133.191 46.1742 128.987 46.3367 125.452 47.7391C121.372 49.3579 117.846 52.7348 116.795 56.9951C115.743 61.2562 117.616 66.2727 121.559 68.2003C125.867 70.3073 131.042 68.4298 135.168 65.9847L140.126 57.8938C141.64 54.406 139.731 50.0587 136.461 48.1164Z" fill="#2F2B29"/>
<path d="M134.117 58.5282C132.42 59.4038 131.168 60.9287 129.967 62.4136C128.978 63.6374 127.935 65.0167 128.011 66.5886C128.067 67.7516 128.754 68.8121 129.633 69.5753C130.513 70.3385 131.578 70.8499 132.628 71.3521L139.469 58.9209C138.09 57.5994 135.814 57.6525 134.117 58.5282Z" fill="#83BC53"/>
<path d="M183.218 65.6059C180.675 61.7753 176.812 58.9336 172.586 57.1223C168.084 55.1939 163.113 54.3745 158.231 54.7557L159.165 140.986L182.938 138.681C180.688 120.476 177.725 113.046 177.58 108.686C177.455 104.91 184.844 82.4252 185.766 78.7617C186.887 74.3012 185.763 69.4364 183.218 65.6059Z" fill="#2F2B29"/>
<path d="M142.301 65.1622C151.485 52.8195 170.966 54.8288 177.478 68.7671C179.537 73.1752 180.363 78.9881 180.051 86.7231C179.184 108.304 160.911 107.964 160.911 107.964L157.531 125.579L141.01 121.415L140.311 97.5409C140.311 97.5409 138.103 81.4239 139.648 71.2684C139.991 69.0097 140.956 66.9689 142.301 65.1622Z" fill="#FED1BD"/>
<path d="M170.663 76.3106C170.663 77.1023 170.085 77.7438 169.371 77.7438C168.657 77.7438 168.079 77.1023 168.079 76.3106C168.079 75.5189 168.657 74.8773 169.371 74.8773C170.085 74.8773 170.663 75.5189 170.663 76.3106Z" fill="#2F2B29"/>
<path d="M156.481 76.7615C156.481 77.5532 155.903 78.1948 155.189 78.1948C154.475 78.1948 153.897 77.5532 153.897 76.7615C153.897 75.9698 154.475 75.3282 155.189 75.3282C155.903 75.3282 156.481 75.9698 156.481 76.7615Z" fill="#2F2B29"/>
<path d="M149.931 68.5928C151.282 67.7988 153.137 67.4021 154.685 67.3089C156.125 67.2227 157.425 67.6516 158.83 67.798C159.641 67.8827 159.848 66.7082 159.226 66.3355C156.1 64.4601 152.128 65.8957 149.496 67.8504C149.064 68.1723 149.441 68.8801 149.931 68.5928Z" fill="#2F2B29"/>
<path d="M160.978 86.314C161.446 89.266 165.476 89.9915 167.723 88.7053C168.48 88.2725 167.966 86.9039 167.11 87.2513C166.021 87.6934 164.955 87.946 163.803 87.5316C162.911 87.2105 162.187 86.5235 161.445 85.9551C161.197 85.7649 160.94 86.0783 160.978 86.314Z" fill="#C78B71"/>
<path d="M142.365 56.6592C139.226 58.2595 136.233 60.2588 133.964 62.9526C132.058 65.216 130.721 67.8952 129.404 70.5452C126.964 75.4562 117.335 110.076 118.823 134.257L125.309 125.578C125.309 125.578 138.718 128.814 140.663 124.181C142.607 119.548 141.794 109.355 142.548 102.891C143.302 96.4265 141.794 80.2402 142.871 74.1116C143.949 67.983 155.674 60.0547 160.425 57.0689V54.211C154.529 52.1479 147.929 53.8221 142.365 56.6592Z" fill="#2F2B29"/>
<g opacity="0.2">
<path d="M158.678 81.3489C158.678 82.5226 156.84 83.4745 154.573 83.4745C152.307 83.4745 150.469 82.5226 150.469 81.3489C150.469 80.1751 152.307 79.224 154.573 79.224C156.84 79.224 158.678 80.1751 158.678 81.3489Z" fill="#C23737"/>
</g>
<g opacity="0.2">
<path d="M177.58 81.3489C177.58 82.5226 175.742 83.4745 173.476 83.4745C171.209 83.4745 169.372 82.5226 169.372 81.3489C169.372 80.1751 171.209 79.224 173.476 79.224C175.742 79.224 177.58 80.1751 177.58 81.3489Z" fill="#C23737"/>
</g>
<path d="M135.862 81.3047C133.231 79.8067 131.481 80.5114 130.394 81.3201C129.306 82.1288 128.629 83.3972 128.304 84.7126C127.763 86.8991 128.191 89.3844 129.713 91.0449C131.235 92.7053 133.904 93.3215 135.862 92.2071V81.3047Z" fill="#FED1BD"/>
<path d="M131.546 87.0515C131.919 86.8097 132.798 86.6857 133.23 86.6857C133.949 86.6849 134.398 87.0438 134.893 87.5113C135.474 88.0589 136.444 87.3595 136.018 86.6433C135.502 85.7776 134.454 85.267 133.456 85.294C132.982 85.3063 132.449 85.448 132.058 85.723C131.592 86.0511 131.582 86.3938 131.364 86.8705C131.314 86.9799 131.424 87.13 131.546 87.0515Z" fill="#C78B71"/>
<path d="M172.783 66.2943C170.377 63.5587 166.158 64.0432 164.377 67.1346C161.876 71.4783 163.93 78.5198 166.548 82.3598C167.15 83.2424 168.411 82.4869 167.968 81.5304C166.537 78.442 165.08 75.316 165.002 71.8349C164.948 69.415 165.546 66.5878 168.388 66.0518C169.573 65.8284 171.315 66.2635 172.384 66.8104C172.721 66.9829 173.032 66.577 172.783 66.2943Z" fill="#C78B71"/>
<path d="M151.038 104.834C154.44 107.716 158.91 108.971 163.341 108.626C164.215 108.558 164.241 107.254 163.341 107.248C159.022 107.214 155.112 106.297 151.1 104.728C151.042 104.704 150.991 104.794 151.038 104.834Z" fill="#2F2B29"/>
<path d="M161.117 55.3898C163.152 53.9195 164.808 52.2383 167.267 51.445C170.054 50.5462 172.565 51.093 175.306 51.7562C175.879 51.8948 176.232 51.1061 175.711 50.7965C171.107 48.0602 162.806 49.7915 160.977 55.2819C160.951 55.3566 161.049 55.4383 161.117 55.3898Z" fill="#2F2B29"/>
<path d="M170.706 46.0005C164.631 46.0929 159.997 50.231 158.917 56.2051C158.757 57.0869 160.11 57.4635 160.267 56.5771C161.212 51.2476 165.423 47.2251 170.743 46.2708C170.897 46.2431 170.86 45.9982 170.706 46.0005Z" fill="#2F2B29"/>
<path d="M172.575 66.937C171.655 66.1926 170.393 65.8207 169.338 65.7333C168.358 65.6525 167.473 66.0547 166.516 66.1919C165.965 66.2713 165.824 65.1701 166.247 64.8206C168.375 63.0623 171.08 64.4083 172.871 66.241C173.165 66.5428 172.908 67.2064 172.575 66.937Z" fill="#2F2B29"/>
<path d="M126.595 147.648L116.435 123.577C109.899 128.228 84.2424 156.254 71.8213 172.351C66.6212 179.089 67.8481 183.889 68.4673 185.658C73.1521 199.044 100.969 207.408 100.969 207.408L112.747 202.482L92.4808 184.614C92.4808 184.614 126.197 151.036 126.595 147.648Z" fill="#FED1BD"/>
<path d="M92.7681 184.548C89.2793 182.21 85.2175 180.852 81.0278 180.59C80.4094 180.552 80.4117 181.515 81.0278 181.553C85.0511 181.804 88.935 183.136 92.2821 185.38C92.7982 185.725 93.281 184.892 92.7681 184.548Z" fill="#C78B71"/>
<path d="M82.7606 154.556C81.4151 156.235 103.271 131.611 110.986 124.865C118.596 118.209 139.162 117.074 139.162 117.074L162.469 117.431C162.469 117.431 185.674 121.905 197.244 130.456C210.593 140.322 218.456 145.088 218.211 147.86C217.92 151.14 196.265 173.628 194.256 172.01L186.344 164.003C186.344 164.003 188.385 196.32 182.337 199.502C176.288 202.683 119.824 202.502 116.584 196.905C112.704 190.202 113.413 173.797 113.413 173.797C113.413 173.797 112.684 166.545 112.661 165.851C112.646 165.374 104.248 174.499 103.689 174.414C97.4529 173.467 86.5628 163.245 82.7606 154.556Z" fill="#83BC53"/>
<path d="M133.402 118.04C133.402 118.04 138.12 127.14 152.387 126.583C166.652 126.026 169.861 119.257 169.861 119.257C169.861 119.257 163.531 116.887 157.736 116.553C151.941 116.218 138.604 115.515 133.402 118.04Z" fill="#FED1BD"/>
<path d="M179.288 199.852L121.952 196.871C121.952 196.871 95.5452 242.831 91.7498 276.746L147.437 277.051L149.75 271.044L151.968 277.21H204.687C204.687 277.21 206.189 236.726 179.288 199.852Z" fill="#CDDDC0"/>
<path d="M120.124 200.165C120.124 200.165 116.044 142.764 128.675 141.707C141.306 140.649 174.479 140.098 178.118 144.842C181.758 149.587 181.416 204.08 181.416 204.08L120.124 200.165Z" fill="#CDDDC0"/>
<path d="M132.272 159.465C132.272 159.465 119.458 119.659 123.075 118.49C126.693 117.323 127.896 118.249 127.896 118.249L137.329 159.465H132.272Z" fill="#CDDDC0"/>
<path d="M167.843 151.293C167.843 151.293 171.087 117.982 175.174 118.245C179.261 118.51 181.989 120.475 181.989 120.475L174.199 153.278L167.843 151.293Z" fill="#CDDDC0"/>
<path d="M174.039 148.028C174.039 149.111 173.161 149.989 172.077 149.989C170.994 149.989 170.116 149.111 170.116 148.028C170.116 146.944 170.994 146.066 172.077 146.066C173.161 146.066 174.039 146.944 174.039 148.028Z" fill="#83BC53"/>
<path d="M133.049 146.157C133.049 147.241 132.171 148.119 131.088 148.119C130.004 148.119 129.126 147.241 129.126 146.157C129.126 145.074 130.004 144.196 131.088 144.196C132.171 144.195 133.049 145.074 133.049 146.157Z" fill="#83BC53"/>
<path d="M133.05 164.121C133.53 165.513 129.362 189.348 152.933 188.304C176.505 187.261 171.163 162.729 171.163 162.729L133.05 164.121Z" fill="#83BC53"/>
<path d="M98.2561 203.699C98.8884 204.13 99.5862 204.209 99.8149 203.874C100.044 203.539 99.7171 202.917 99.0848 202.485C98.4525 202.054 97.7548 201.975 97.526 202.31C97.2973 202.645 97.6238 203.267 98.2561 203.699Z" fill="#2F2B29"/>
<path d="M67.7479 247.787C67.7479 247.787 32.4031 317.359 33.0077 320.167C33.6122 322.975 32.7058 326.095 35.1225 326.719C37.5393 327.342 232.388 328.279 232.69 326.719C232.992 325.158 233.597 317.359 232.69 316.423C231.784 315.487 205.976 249.573 201.575 247.786C198.958 246.725 68.9563 245.403 67.7479 247.787Z" fill="#2F2B29"/>
<path d="M155.889 275.945C136.635 275.945 121.553 270.468 121.553 263.475C121.553 256.482 136.635 251.005 155.889 251.005C175.142 251.005 190.223 256.482 190.223 263.475C190.223 270.468 175.142 275.945 155.889 275.945ZM155.889 251.775C137.381 251.775 122.324 257.023 122.324 263.475C122.324 269.926 137.381 275.175 155.889 275.175C174.395 275.175 189.453 269.926 189.453 263.475C189.453 257.023 174.395 251.775 155.889 251.775Z" fill="#83BC53"/>
<path d="M34.0674 320.4C59.3848 320.4 84.7029 320.4 110.02 320.4C135.338 320.4 160.656 320.4 185.973 320.4C200.255 320.4 214.537 320.4 228.819 320.4C229.438 320.4 229.439 319.438 228.819 319.438C203.501 319.438 178.184 319.438 152.866 319.438C127.548 319.438 102.23 319.438 76.9128 319.438C62.631 319.438 48.3492 319.438 34.0674 319.438C33.4474 319.438 33.4466 320.4 34.0674 320.4Z" fill="#595551"/>
<path d="M95.2573 313.186C77.9703 313.186 64.4294 308.61 64.4294 302.768C64.4294 296.925 77.9711 292.349 95.2573 292.349C112.543 292.349 126.085 296.925 126.085 302.768C126.085 308.61 112.544 313.186 95.2573 313.186ZM95.2573 293.118C78.9638 293.118 65.1995 297.536 65.1995 302.767C65.1995 307.997 78.9646 312.415 95.2573 312.415C111.55 312.415 125.315 307.997 125.315 302.767C125.315 297.536 111.551 293.118 95.2573 293.118Z" fill="#83BC53"/>
<path d="M174.721 311.318C160.171 311.318 148.774 307.152 148.774 301.833C148.774 296.515 160.171 292.349 174.721 292.349C189.27 292.349 200.667 296.515 200.667 301.833C200.666 307.152 189.27 311.318 174.721 311.318ZM174.721 293.118C161.073 293.118 149.544 297.109 149.544 301.833C149.544 306.557 161.074 310.547 174.721 310.547C188.368 310.547 199.897 306.556 199.897 301.833C199.896 297.109 188.368 293.118 174.721 293.118Z" fill="#83BC53"/>
<path d="M93.6282 273.984C82.0404 273.984 72.9641 270.644 72.9641 266.38C72.9641 262.116 82.0412 258.776 93.6282 258.776C105.215 258.776 114.292 262.116 114.292 266.38C114.292 270.644 105.215 273.984 93.6282 273.984ZM93.6282 259.545C82.8445 259.545 73.7343 262.674 73.7343 266.379C73.7343 270.084 82.8445 273.213 93.6282 273.213C104.412 273.213 113.522 270.084 113.522 266.379C113.522 262.675 104.412 259.545 93.6282 259.545Z" fill="#83BC53"/>
<path d="M121.712 247.051C121.908 247.644 126.759 263.803 134.998 266.96C149.161 272.386 172.594 269.737 178.515 265.671C182.024 263.261 187.378 249.014 187.946 245.731C188.513 242.449 174.796 238.825 157.197 238.704C139.598 238.584 119.507 240.394 121.712 247.051Z" fill="#83BC53"/>
<path d="M182.938 242.305C182.938 242.305 222.385 218.236 226.624 219.462C230.863 220.688 229.313 224.494 229.313 224.494L185.746 245.316L182.938 242.305Z" fill="#83BC53"/>
<path d="M216.534 223.211L217.745 227.115C217.879 226.949 218.101 228.219 218.155 228.425C218.577 230.018 218.442 232.989 217.133 233.864C215.571 234.91 213.983 234.454 213.983 234.454C213.983 234.454 214.38 240.017 210.02 238.229C210.02 238.229 207.428 241.469 205.031 239.73C204.53 239.367 198.386 244.198 194.39 241.909C190.393 239.62 188.185 227.083 192.644 223.362C197.103 219.64 218.236 213.79 218.236 213.79L220.063 216.514C221.398 218.507 220.708 221.24 218.566 222.319C217.397 222.909 216.534 223.211 216.534 223.211Z" fill="#FED1BD"/>
<path d="M196.679 225.536C197.638 228.034 198.788 230.47 200.113 232.794C201.459 235.155 203.059 237.716 205.349 239.271C205.942 239.674 205.307 240.589 204.714 240.186C202.372 238.596 200.729 236.052 199.325 233.649C197.901 231.212 196.68 228.64 195.669 226.005C195.413 225.34 196.421 224.865 196.679 225.536Z" fill="#C78B71"/>
<path d="M197.936 236.96C197.882 236.082 197.813 235.2 197.851 234.321C197.889 233.447 198.055 232.583 198.332 231.754C198.56 231.073 199.611 231.444 199.383 232.124C199.13 232.881 198.997 233.601 198.963 234.408C198.928 235.209 198.984 235.971 199.033 236.762C199.051 237.061 198.904 237.351 198.584 237.409C198.314 237.458 197.955 237.261 197.936 236.96Z" fill="#C78B71"/>
<path d="M198.732 236.248C199.253 236.288 199.774 236.345 200.297 236.363C200.433 236.367 200.568 236.37 200.705 236.367C200.757 236.367 200.86 236.342 200.906 236.362C200.881 236.351 200.806 236.368 200.883 236.363C200.916 236.36 200.948 236.358 200.981 236.356C201.108 236.345 201.236 236.33 201.362 236.308C201.423 236.297 201.483 236.285 201.543 236.271C201.582 236.262 201.792 236.201 201.632 236.252C201.777 236.206 201.902 236.179 202.052 236.232C202.182 236.278 202.318 236.393 202.372 236.523C202.475 236.772 202.398 237.168 202.102 237.263C200.98 237.619 199.796 237.448 198.645 237.359C198.354 237.337 198.097 237.059 198.134 236.761C198.169 236.46 198.421 236.224 198.732 236.248Z" fill="#2F2B29"/>
<path d="M209.418 238.247C206.36 234.844 203.892 230.94 202.131 226.718C201.856 226.059 202.864 225.585 203.141 226.249C204.869 230.39 207.275 234.197 210.274 237.534C210.753 238.067 209.898 238.78 209.418 238.247Z" fill="#C78B71"/>
<path d="M213.493 234.812C210.259 232.177 208.368 228.507 206.952 224.655C206.707 223.987 207.715 223.51 207.963 224.186C209.304 227.836 211.057 231.394 214.128 233.897C214.68 234.347 214.049 235.265 213.493 234.812Z" fill="#C78B71"/>
<path d="M143.871 239.598C138.754 240.056 133.674 240.886 128.686 242.116C126.861 242.566 124.09 242.857 123.025 244.65C122.214 246.015 122.847 247.06 123.923 247.941C126.734 250.242 130.235 251.554 133.673 252.609C137.882 253.899 142.254 254.562 146.634 254.915C155.856 255.657 165.319 255.683 174.298 253.192C176.509 252.578 178.676 251.815 180.786 250.91C182.523 250.164 184.378 249.409 185.644 247.941C188.684 244.416 182.125 242.696 179.854 242.027C169.257 238.91 158.042 239.241 147.12 239.586C146.503 239.605 146.5 240.568 147.12 240.549C155.893 240.272 164.777 239.993 173.46 241.529C175.587 241.905 177.696 242.389 179.766 243.006C180.776 243.307 181.778 243.64 182.766 244.005C183.626 244.323 184.826 244.735 185.293 245.605C186.13 247.165 183.452 248.612 182.337 249.15C180.378 250.096 178.356 250.907 176.289 251.584C168.193 254.234 159.74 254.592 151.295 254.231C143.154 253.882 135.038 252.791 127.62 249.223C126.38 248.627 125.145 247.805 124.144 246.862C123.226 246 123.735 244.908 124.753 244.308C125.761 243.713 127.096 243.51 128.218 243.224C133.355 241.917 138.59 241.032 143.87 240.559C144.483 240.506 144.49 239.542 143.871 239.598Z" fill="#477720"/>
<path d="M138.544 244.062L136.89 244.544C135.399 245.544 135.311 248.057 136.728 249.16C138.144 250.262 140.56 249.558 141.162 247.867C141.763 246.177 140.338 244.104 138.544 244.062Z" fill="#CDDDC0"/>
<path d="M146.945 249.732L145.965 250.018C145.081 250.61 145.029 252.1 145.868 252.753C146.708 253.406 148.138 252.988 148.495 251.986C148.853 250.985 148.009 249.758 146.945 249.732Z" fill="#CDDDC0"/>
<path d="M100.127 204.564C100.127 204.564 101.637 201.783 104.209 203.455C106.78 205.127 131.127 222.354 130.969 222.582C130.813 222.812 128.271 226.135 128.271 226.135L100.998 208.521C100.998 208.521 98.24 207.225 100.127 204.564Z" fill="#83BC53"/>
<path d="M162.629 247.032C167.671 239.195 162.219 235.177 153.692 232.237C144.814 229.176 139.172 229.254 138.626 229.296L137.067 231.579C137.227 232.102 139.206 237.386 145.29 244.54C151.132 251.412 157.165 254.58 162.629 247.032ZM142.556 233.027L142.954 232.444C143.29 232.587 159.293 238.485 159.217 239.993C159.14 241.502 157.964 241.826 157.964 241.826L142.556 233.027ZM141.438 234.664L141.836 234.08L155.641 245.229C155.641 245.229 155.767 246.442 154.389 247.062C153.012 247.683 141.694 234.925 141.438 234.664Z" fill="#2F2B29"/>
<path d="M138.626 229.3C138.626 229.3 131.041 221.628 130.637 221.988C130.232 222.348 127.469 225.578 127.544 226.051C127.618 226.524 137.067 231.583 137.067 231.583L138.626 229.3Z" fill="#2F2B29"/>
<path d="M111.925 201.355C111.925 201.355 122.226 206.787 125.73 209.539C129.234 212.291 138.207 227.653 135.539 228.991C132.871 230.33 131.958 229.09 130.51 226.81C129.063 224.529 124.88 217.277 124.589 217.196C124.299 217.115 124.929 226.046 117.156 224.395C117.156 224.395 113.608 226.271 110.536 223.091C110.536 223.091 107.435 226.16 104.124 220.285C102.4 217.227 103.69 215.521 105.104 214.562C105.104 214.562 99.5562 213.008 97.2365 210.544C95.8448 209.065 96.377 205.161 97.0347 203.548C98.4164 200.158 100.024 197.376 102.024 196.897C103.271 196.598 108.488 199.195 111.925 201.355Z" fill="#FED1BD"/>
<path d="M109.798 213.694C112.274 216.347 112.434 220.477 110.126 223.294C109.736 223.769 110.413 224.454 110.807 223.974C113.454 220.744 113.336 216.076 110.479 213.013C110.056 212.559 109.376 213.241 109.798 213.694Z" fill="#C78B71"/>
<path d="M102.963 214.19C104.582 215.057 106.126 216.063 107.562 217.209C107.765 217.37 108.044 217.407 108.243 217.209C108.411 217.041 108.447 216.691 108.243 216.528C106.742 215.33 105.143 214.265 103.449 213.359C102.903 213.068 102.417 213.898 102.963 214.19Z" fill="#C78B71"/>
<path d="M117.819 223.681C120.256 219.936 119.562 214.899 116.188 211.968C115.722 211.564 115.038 212.241 115.507 212.649C118.574 215.313 119.207 219.786 116.988 223.195C116.649 223.715 117.482 224.199 117.819 223.681Z" fill="#C78B71"/>
<path d="M124.908 217.53C124.658 215.492 123.681 213.588 122.115 212.247C121.918 212.078 121.628 212.053 121.434 212.247C121.261 212.42 121.236 212.757 121.434 212.928C122.794 214.092 123.726 215.745 123.946 217.53C123.977 217.788 124.144 218.011 124.427 218.011C124.663 218.011 124.94 217.79 124.908 217.53Z" fill="#C78B71"/>
<path d="M140.075 226.197C138.627 220.266 138.824 213.746 139.56 207.729C139.908 204.888 140.38 201.876 141.542 199.237C142.113 197.938 143.172 195.943 144.818 195.914C146.827 195.879 147.956 198.695 148.768 200.167C150.975 204.167 152.623 208.445 153.763 212.865C153.897 213.387 154.721 213.284 154.708 212.738C154.597 207.865 154.833 202.976 155.224 198.12C155.435 195.507 155.7 192.896 156.067 190.3C156.227 189.167 156.407 188.037 156.618 186.912C156.837 185.75 157.005 184.467 157.562 183.413C158.253 182.102 159.637 181.023 161.158 181.628C162.447 182.141 163.391 183.408 164.1 184.547C165.305 186.483 166.164 188.652 166.892 190.805C168.559 195.74 169.502 200.929 170.016 206.103C170.568 211.665 170.686 217.371 169.847 222.912C169.755 223.521 170.554 223.756 170.775 223.168C171.165 222.14 171.676 221.163 172.327 220.275C172.887 219.511 173.576 218.598 174.599 218.515C176.785 218.336 177.193 220.963 177.33 222.564C177.671 226.569 176.606 230.829 173.901 233.873C173.49 234.335 174.169 235.018 174.582 234.554C177.872 230.85 179.146 225.197 177.971 220.39C177.547 218.652 175.959 217.166 174.069 217.63C171.914 218.16 170.556 221.043 169.848 222.912C170.158 222.998 170.467 223.083 170.776 223.168C171.57 217.919 171.539 212.55 171.087 207.271C170.611 201.705 169.667 196.111 167.904 190.798C167.136 188.486 166.224 186.137 164.931 184.061C163.755 182.169 161.658 179.757 159.154 180.678C156.665 181.595 156.123 184.359 155.691 186.657C155.204 189.243 154.872 191.859 154.598 194.476C153.968 200.527 153.607 206.651 153.746 212.738C154.061 212.695 154.377 212.652 154.692 212.61C153.576 208.276 151.969 204.071 149.845 200.129C148.975 198.516 148.039 196.287 146.354 195.361C145.028 194.633 143.621 194.981 142.552 195.979C140.31 198.073 139.602 201.679 139.073 204.569C138.424 208.12 138.143 211.746 138.112 215.353C138.081 219.055 138.266 222.844 139.147 226.453C139.293 227.055 140.222 226.8 140.075 226.197Z" fill="#2F2B29"/>
<path d="M175.393 212.706C174.485 213.432 174.57 215.281 175.68 215.78C176.278 216.049 176.94 215.918 177.43 215.494C177.937 215.055 178.09 214.329 177.923 213.698C177.735 212.993 177.156 212.374 176.399 212.34C176.147 212.329 175.906 212.569 175.918 212.821C175.93 213.092 176.13 213.29 176.399 213.303C176.465 213.306 176.474 213.336 176.382 213.296C176.402 213.304 176.429 213.305 176.451 213.309C176.473 213.315 176.495 213.322 176.518 213.329C176.526 213.332 176.536 213.335 176.544 213.338C176.591 213.356 176.579 213.351 176.506 213.322C176.528 213.349 176.599 213.371 176.63 213.391C176.633 213.393 176.67 213.423 176.678 213.423C176.619 213.377 176.609 213.37 176.65 213.402C176.664 213.414 176.679 213.427 176.693 213.441C176.73 213.475 176.764 213.511 176.797 213.549C176.803 213.557 176.81 213.564 176.816 213.572C176.841 213.604 176.841 213.604 176.816 213.571C176.81 213.563 176.803 213.555 176.797 213.547C176.809 213.564 176.82 213.58 176.832 213.597C176.861 213.641 176.887 213.685 176.911 213.731C176.914 213.737 176.955 213.813 176.953 213.815C176.928 213.753 176.922 213.739 176.935 213.773C176.941 213.788 176.947 213.802 176.952 213.817C176.97 213.866 176.986 213.917 176.999 213.969C177.007 214 177.014 214.03 177.02 214.062C177.021 214.072 177.024 214.083 177.025 214.093C177.032 214.136 177.032 214.135 177.025 214.093C177.024 214.082 177.022 214.071 177.021 214.06C177.023 214.081 177.025 214.103 177.026 214.124C177.028 214.15 177.028 214.177 177.028 214.203C177.028 214.229 177.028 214.256 177.027 214.282C177.026 214.303 177.024 214.325 177.022 214.345C177.033 214.275 177.035 214.259 177.029 214.296C177.018 214.354 177.007 214.411 176.989 214.467C176.983 214.487 176.975 214.506 176.97 214.526C176.938 214.627 177.022 214.429 176.971 214.522C176.948 214.565 176.926 214.609 176.899 214.65C176.886 214.67 176.87 214.69 176.857 214.71C176.836 214.74 176.847 214.726 176.888 214.67C176.876 214.684 176.864 214.699 176.851 214.713C176.818 214.748 176.784 214.779 176.749 214.811C176.676 214.881 176.842 214.75 176.758 214.805C176.743 214.815 176.727 214.827 176.712 214.837C176.673 214.862 176.633 214.885 176.592 214.905C176.536 214.933 176.51 214.911 176.606 214.901C176.582 214.904 176.553 214.921 176.529 214.928C176.481 214.943 176.431 214.949 176.384 214.964C176.322 214.982 176.514 214.955 176.418 214.959C176.392 214.961 176.365 214.963 176.338 214.963C176.294 214.964 176.249 214.955 176.205 214.957C176.315 214.951 176.294 214.972 176.254 214.962C176.22 214.954 176.185 214.947 176.151 214.936C176.134 214.931 176.117 214.924 176.1 214.919C176.007 214.889 176.201 214.975 176.117 214.924C176.093 214.911 176.025 214.857 175.999 214.854C176.016 214.867 176.033 214.881 176.051 214.895C176.036 214.883 176.022 214.871 176.007 214.858C175.993 214.846 175.98 214.834 175.967 214.821C175.948 214.801 175.93 214.78 175.912 214.76C175.846 214.689 175.971 214.852 175.92 214.77C175.896 214.73 175.87 214.692 175.848 214.65C175.837 214.63 175.826 214.591 175.811 214.574C175.867 214.634 175.841 214.655 175.822 214.596C175.807 214.55 175.791 214.506 175.778 214.459C175.772 214.435 175.767 214.412 175.762 214.388C175.758 214.37 175.744 214.247 175.75 214.336C175.756 214.425 175.749 214.325 175.748 214.312C175.745 214.278 175.743 214.243 175.742 214.209C175.741 214.15 175.742 214.09 175.746 214.031C175.748 214.009 175.756 213.979 175.753 213.957C175.742 214.036 175.74 214.05 175.748 213.997C175.751 213.983 175.754 213.968 175.756 213.954C175.767 213.897 175.782 213.84 175.798 213.784C175.805 213.761 175.813 213.738 175.822 213.715C175.828 213.698 175.835 213.679 175.842 213.661C175.814 213.728 175.807 213.745 175.822 213.711C175.852 213.665 175.873 213.611 175.903 213.564C175.913 213.547 175.937 213.524 175.942 213.506C175.894 213.567 175.886 213.577 175.917 213.538C175.926 213.527 175.935 213.517 175.944 213.507C175.984 213.464 176.027 213.424 176.073 213.387C176.271 213.229 176.251 212.869 176.073 212.706C175.863 212.514 175.604 212.538 175.393 212.706Z" fill="#2F2B29"/>
<path d="M151.649 227.703C150.965 226.455 149.78 225.612 149.057 224.405C148.373 223.266 148.335 220.817 150.334 221.346C151.801 221.735 153.109 223.238 154.15 224.272C155.303 225.418 156.363 226.647 157.332 227.952C157.641 228.369 158.359 228.144 158.211 227.581C157.839 226.159 157.853 224.687 158.317 223.285C158.677 222.195 160.128 219.395 161.508 221.059C162.369 222.097 162.48 223.929 162.594 225.194C162.746 226.882 162.684 228.575 162.424 230.249C162.353 230.705 162.855 231.073 163.229 230.717C164.021 229.962 164.941 229.383 165.987 229.047C166.837 228.775 168.046 228.484 168.917 228.831C170.261 229.365 168.077 231.346 167.593 231.888C166.785 232.793 165.977 233.696 165.169 234.6C164.757 235.061 165.436 235.744 165.85 235.281C167.123 233.856 168.473 232.471 169.678 230.989C170.341 230.173 170.778 229.003 169.795 228.227C168.905 227.524 167.494 227.703 166.467 227.921C164.98 228.237 163.645 228.993 162.549 230.035C162.817 230.192 163.085 230.347 163.354 230.504C163.7 228.281 163.731 226.045 163.39 223.819C163.171 222.393 162.838 220.228 161.223 219.698C159.545 219.148 158.304 220.882 157.715 222.196C156.917 223.979 156.79 225.954 157.284 227.836C157.578 227.713 157.871 227.589 158.164 227.465C156.881 225.736 155.458 224.124 153.868 222.672C152.692 221.599 151.01 219.892 149.234 220.393C147.863 220.78 147.452 222.285 147.702 223.546C148.085 225.475 149.916 226.541 150.819 228.187C151.116 228.732 151.948 228.246 151.649 227.703Z" fill="#2F2B29"/>
<path d="M61.5788 269.652C61.28 269.533 56.9132 267.738 55.2982 267.798C53.6832 267.858 51.2903 271.028 52.367 273.301C53.4437 275.575 62.895 279.043 62.895 279.043L61.5788 269.652Z" fill="#2F2B29"/>
<path d="M127.212 267.369L122.722 301.604C122.722 301.604 119.495 308.198 102.095 309.882C84.6968 311.565 71.5071 306.094 68.9817 304.129C66.4564 302.164 60.0017 267.369 60.0017 267.369C60.0017 267.369 60.1003 259.425 93.6068 259.231C127.212 259.037 127.212 267.369 127.212 267.369Z" fill="#83BC53"/>
<path d="M93.384 274.295C110.762 274.295 124.849 271.155 124.849 267.282C124.849 263.409 110.762 260.269 93.384 260.269C76.0065 260.269 61.9193 263.409 61.9193 267.282C61.9193 271.155 76.0065 274.295 93.384 274.295Z" fill="#2F2B29"/>
<path d="M68.1422 245.813C70.0191 243.399 69.5431 239.674 67.5292 237.373C65.5152 235.072 62.3098 234.075 59.2523 234.146C56.3418 234.214 53.3228 235.262 51.5022 237.533C49.6815 239.805 49.4389 243.418 51.4336 245.539C47.6067 245.467 44.0856 248.971 44.1372 252.797C44.1888 256.624 47.8031 260.031 51.6262 259.857C50.6188 261.675 51.1525 264.079 52.5288 265.637C53.9051 267.195 55.9622 268.006 58.0162 268.327C60.2273 268.672 62.517 268.503 64.6534 267.838C64.6534 267.838 67.3151 269.824 72.0431 270.902C76.7711 271.98 99.6416 274.762 100.402 271.383C101.163 268.006 68.1422 245.813 68.1422 245.813Z" fill="#CDDDC0"/>
<path d="M126.884 264.642C128.568 258.066 115.644 249.077 98.0182 244.565C80.3925 240.054 64.7392 241.727 63.0557 248.304C61.3721 254.88 74.2958 263.869 91.9215 268.38C109.547 272.892 125.2 271.218 126.884 264.642Z" fill="#83BC53"/>
<path d="M92.0956 248.943C91.9239 248.825 92.6686 239.518 93.3456 239.153C94.0226 238.788 104.073 241.236 103.864 242.278C103.656 243.319 100.271 251.026 100.271 251.026C100.271 251.026 96.4694 251.964 92.0956 248.943Z" fill="#2F2B29"/>
<path d="M126.603 272.008C127.001 271.897 133.715 270.321 136.108 271.138C138.502 271.956 138.735 275.342 136.459 277.444C134.182 279.545 122.739 282.815 121.98 281.881C121.221 280.946 119.645 278.494 120.754 277.501C121.863 276.509 126.212 274.987 126.212 274.987L126.603 272.008Z" fill="#2F2B29"/>
<path d="M124.702 275.499C127.763 274.499 130.915 273.778 133.967 272.751C134.551 272.554 134.3 271.624 133.711 271.823C130.659 272.85 127.508 273.572 124.446 274.571C123.86 274.762 124.111 275.692 124.702 275.499Z" fill="#83BC53"/>
<path d="M66.0211 273.052C79.5097 276.655 93.6698 277.547 107.505 275.672C111.49 275.132 115.438 274.359 119.336 273.368C119.936 273.215 119.682 272.286 119.08 272.44C105.609 275.867 91.4725 276.589 77.7244 274.517C73.8667 273.935 70.0467 273.131 66.2776 272.125C65.6776 271.964 65.4219 272.892 66.0211 273.052Z" fill="#477720"/>
<path d="M41.2051 229.648C39.825 229.539 38.3694 229.711 37.2095 230.466C36.0497 231.222 35.2672 232.659 35.5791 234.008C35.891 235.357 37.506 236.338 38.7575 235.746C37.5715 235.891 36.8221 237.289 37.0894 238.453C37.3566 239.618 38.3856 240.486 39.5077 240.899C41.5609 241.653 44.0454 241.033 45.5026 239.401C46.9597 237.77 47.2978 235.232 46.3174 233.276C45.337 231.32 44.275 230.139 41.2051 229.648Z" fill="#CDDDC0"/>
<path d="M52.2128 225.888C52.2128 227.722 50.7256 229.619 48.8919 229.619C47.0574 229.619 45.571 227.722 45.571 225.888C45.571 224.053 47.0582 222.567 48.8919 222.567C50.7264 222.567 52.2128 224.053 52.2128 225.888Z" fill="#CDDDC0"/>
<path d="M64.5187 248.833C64.4702 250.957 65.6786 252.736 67.1157 254.199C68.6522 255.762 70.4289 257.097 72.2981 258.236C76.058 260.527 80.223 262.06 84.3688 263.49C93.6192 266.681 103.223 269.563 113.123 268.987C117.646 268.725 122.244 267.678 125.863 264.82C126.349 264.437 125.663 263.76 125.182 264.14C122.033 266.626 117.988 267.63 114.056 267.959C109.723 268.32 105.309 267.973 101.038 267.2C96.3763 266.356 91.8285 264.984 87.3408 263.485C83.2528 262.119 79.1225 260.746 75.2725 258.787C73.1561 257.711 71.1167 256.453 69.3037 254.913C67.4869 253.37 65.4229 251.4 65.4822 248.833C65.4953 248.214 64.5326 248.214 64.5187 248.833Z" fill="#477720"/>
<path d="M85 72.2973C85.0145 73.0517 85.2564 73.8126 85.3966 74.5476C85.7329 76.3107 85.9622 78.0926 86.2222 79.8681C86.3293 80.5998 86.4058 82.3404 86.5302 83.0692C86.5363 83.1049 86.5443 83.1908 86.5443 83.0763C86.5443 82.7851 86.528 82.4959 86.5049 82.2057C86.4562 81.5922 86.443 79.9825 86.443 79.3675C86.443 79.1563 86.5197 79.1531 86.7187 79.0862C87.5168 78.8176 88.3335 78.4193 89.0196 77.9287C89.7611 77.3984 90.1846 76.5829 90.3642 75.6952C90.5912 74.5728 90.5189 73.3947 90.5189 72.2523C90.5189 72.1248 90.5076 71.9909 90.5245 71.8641C90.5573 71.618 90.5655 72.359 90.5836 72.6067C90.7506 74.8977 91.0944 77.1669 91.7622 79.3689C92.0509 80.321 92.3441 81.3317 92.8114 82.2183C92.837 82.267 92.8433 82.2971 92.8986 82.2971" stroke="white" stroke-width="3" stroke-linecap="round"/>
<path d="M95.3674 74.773C95.3674 74.6114 95.3739 74.5443 95.4358 74.7575C95.6166 75.38 95.6983 76.0313 95.8556 76.6605C96.0412 77.4027 96.2395 78.1403 96.4651 78.8714C96.5668 79.201 96.6993 79.5371 96.7651 79.8773C96.7882 79.9962 96.8468 80.1499 96.8942 80.2613C96.9933 80.4946 97.0471 80.763 97.1585 80.9858" stroke="white" stroke-width="3" stroke-linecap="round"/>
<path d="M95.3954 70.5193C95.2918 70.4593 95.2446 70.3658 95.215 70.2519C95.2092 70.2293 95.1795 69.998 95.2119 70C95.3219 70.0069 95.2091 70.8254 95.2834 70.3794" stroke="white" stroke-width="3" stroke-linecap="round"/>
<path d="M102.74 76.3531C102.619 76.3263 102.558 75.9431 102.538 75.8712C102.237 74.8077 101.915 73.7421 101.68 72.6622C101.453 71.6223 101.225 70.5549 101.095 69.4967C101.042 69.0658 101.005 68.6371 101.005 68.2032C101.005 67.9949 100.979 67.7634 101.045 67.5626C101.097 67.4066 101.224 67.265 101.319 67.1335C101.388 67.0379 101.423 66.9494 101.552 67.034C101.794 67.1923 101.85 67.6733 101.918 67.9233C102.11 68.636 102.301 69.3242 102.415 70.0564C102.555 70.9513 102.649 71.8517 102.78 72.7477C102.91 73.6327 103.021 74.5238 103.171 75.4047C103.2 75.5768 103.216 75.745 103.216 75.9194C103.216 76.0409 103.105 76.0993 103.048 76.1852" stroke="white" stroke-width="3" stroke-linecap="round"/>
<path d="M103.859 79.4595C103.867 79.5195 104.032 79.4774 104.077 79.5061C104.208 79.5896 104.224 80.0281 104.107 80.114C103.863 80.2921 103.881 80.003 103.887 79.8388C103.894 79.6938 104.153 79.4462 104.273 79.6336C104.503 79.9913 103.96 80.5315 103.875 79.9974C103.844 79.8036 103.84 79.4595 104.11 79.4595C104.198 79.4595 104.251 79.4724 104.251 79.5714" stroke="white" stroke-width="3" stroke-linecap="round"/>
</svg>
