<svg width="70" height="24" viewBox="0 0 70 24" fill="none" xmlns="http://www.w3.org/2000/svg">
<path d="M13.392 22.968C11.1093 22.9467 9.17865 22.5733 7.59999 21.848C6.02132 21.1227 4.82665 19.96 4.01599 18.36C3.20532 16.7387 2.79999 14.5947 2.79999 11.928C2.79999 9.60266 3.17332 7.59733 3.91999 5.91199C4.68799 4.22666 5.79732 2.92533 7.24799 2.00799C8.69865 1.06933 10.48 0.599993 12.592 0.599993C14.448 0.599993 16.0693 0.86666 17.456 1.39999C18.8427 1.93333 19.9307 2.70133 20.72 3.70399C21.5307 4.68533 21.9787 5.85866 22.064 7.22399C22.1493 8.52533 21.9253 9.65599 21.392 10.616C20.88 11.576 20.112 12.4293 19.088 13.176C19.8347 13.304 20.5067 13.72 21.104 14.424C21.7227 15.128 22.032 15.9813 22.032 16.984C22.032 17.6667 21.8933 18.36 21.616 19.064C21.3387 19.768 20.8693 20.4187 20.208 21.016C19.568 21.6133 18.6827 22.0933 17.552 22.456C16.4427 22.7973 15.056 22.968 13.392 22.968ZM11.184 11.032C11.632 11.224 12.1653 11.32 12.784 11.32C13.4027 11.2987 13.9467 11.128 14.416 10.808C14.9067 10.488 15.152 9.99733 15.152 9.33599C15.152 8.84533 15.0027 8.45066 14.704 8.15199C14.4267 7.85333 14.0747 7.65066 13.648 7.54399C13.2213 7.41599 12.784 7.36266 12.336 7.38399C11.888 7.40533 11.504 7.50133 11.184 7.67199C10.7787 7.86399 10.5013 8.19466 10.352 8.66399C10.224 9.13333 10.224 9.60266 10.352 10.072C10.5013 10.52 10.7787 10.84 11.184 11.032ZM11.184 18.52C11.632 18.6907 12.1653 18.776 12.784 18.776C13.4027 18.7547 13.9467 18.6053 14.416 18.328C14.9067 18.0507 15.152 17.624 15.152 17.048C15.152 16.6213 15.0027 16.28 14.704 16.024C14.4267 15.7467 14.0747 15.5547 13.648 15.448C13.2213 15.3413 12.784 15.3093 12.336 15.352C11.888 15.3733 11.504 15.448 11.184 15.576C10.7787 15.7467 10.5013 16.0347 10.352 16.44C10.224 16.8453 10.224 17.2507 10.352 17.656C10.5013 18.0613 10.7787 18.3493 11.184 18.52Z" fill="#363A33"/>
<path d="M29.45 23.032C27.8713 23.0533 26.4847 22.7333 25.29 22.072C24.1167 21.3893 23.1887 20.472 22.506 19.32C21.8447 18.1467 21.4927 16.856 21.45 15.448C21.4287 13.9973 21.7593 12.7173 22.442 11.608C23.1247 10.4773 24.074 9.58133 25.29 8.91999C26.506 8.25866 27.8927 7.92799 29.45 7.92799C30.986 7.90666 32.3407 8.22666 33.514 8.88799C34.7087 9.54933 35.658 10.4453 36.362 11.576C37.066 12.7067 37.4393 13.9973 37.482 15.448C37.5033 16.8347 37.1727 18.104 36.49 19.256C35.8073 20.3867 34.858 21.2933 33.642 21.976C32.426 22.6373 31.0287 22.9893 29.45 23.032ZM29.546 18.36C30.122 18.36 30.6233 18.136 31.05 17.688C31.4767 17.24 31.69 16.7173 31.69 16.12C31.69 15.5227 31.4767 15.0107 31.05 14.584C30.6233 14.136 30.122 13.912 29.546 13.912C28.97 13.912 28.4687 14.136 28.042 14.584C27.6153 15.0107 27.402 15.5227 27.402 16.12C27.402 16.7173 27.6153 17.24 28.042 17.688C28.4687 18.136 28.97 18.36 29.546 18.36Z" fill="#363A33"/>
<path d="M46.034 23C44.498 23 43.2073 22.7867 42.162 22.36C41.1166 21.912 40.2527 21.336 39.57 20.632C38.9086 19.928 38.386 19.16 38.002 18.328C37.6393 17.496 37.3727 16.6747 37.202 15.864C37.0313 15.0533 36.9247 14.3173 36.882 13.656C36.8607 12.9947 36.85 12.504 36.85 12.184C36.85 11.2027 36.9033 10.1787 37.01 9.11199C37.1167 8.04533 37.2873 7.01066 37.522 6.00799C37.7566 4.98399 38.066 4.06666 38.45 3.25599C38.8553 2.44533 39.3353 1.79466 39.89 1.30399C40.4447 0.813326 41.106 0.567993 41.874 0.567993C42.5567 0.567993 43.1753 0.791993 43.73 1.23999C44.306 1.68799 44.594 2.38133 44.594 3.31999C44.594 4.23733 44.4447 5.14399 44.146 6.03999C43.8687 6.91466 43.6873 7.81066 43.602 8.72799C44.0927 8.45066 44.6153 8.25866 45.17 8.15199C45.7247 8.02399 46.2687 7.95999 46.802 7.95999C47.9327 7.95999 49.0207 8.22666 50.066 8.75999C51.1113 9.27199 51.9647 10.0613 52.626 11.128C53.3087 12.1947 53.65 13.56 53.65 15.224C53.65 16.5253 53.3407 17.7733 52.722 18.968C52.1247 20.1627 51.25 21.1333 50.098 21.88C48.9673 22.6267 47.6127 23 46.034 23ZM45.842 17.944C46.418 17.944 46.9193 17.7307 47.346 17.304C47.794 16.856 48.018 16.3333 48.018 15.736C48.018 15.1387 47.794 14.616 47.346 14.168C46.9193 13.72 46.418 13.496 45.842 13.496C45.266 13.496 44.7647 13.72 44.338 14.168C43.9113 14.616 43.698 15.1387 43.698 15.736C43.698 16.3333 43.9113 16.856 44.338 17.304C44.7647 17.7307 45.266 17.944 45.842 17.944Z" fill="#363A33"/>
<path d="M61.0312 23.032C59.4526 23.0533 58.0659 22.7333 56.8712 22.072C55.6979 21.3893 54.7699 20.472 54.0872 19.32C53.4259 18.1467 53.0739 16.856 53.0312 15.448C53.0099 13.9973 53.3406 12.7173 54.0232 11.608C54.7059 10.4773 55.6552 9.58133 56.8712 8.91999C58.0872 8.25866 59.4739 7.92799 61.0312 7.92799C62.5672 7.90666 63.9219 8.22666 65.0952 8.88799C66.2899 9.54933 67.2392 10.4453 67.9432 11.576C68.6472 12.7067 69.0206 13.9973 69.0632 15.448C69.0846 16.8347 68.7539 18.104 68.0712 19.256C67.3886 20.3867 66.4392 21.2933 65.2232 21.976C64.0072 22.6373 62.6099 22.9893 61.0312 23.032ZM61.1272 18.36C61.7032 18.36 62.2046 18.136 62.6312 17.688C63.0579 17.24 63.2712 16.7173 63.2712 16.12C63.2712 15.5227 63.0579 15.0107 62.6312 14.584C62.2046 14.136 61.7032 13.912 61.1272 13.912C60.5512 13.912 60.0499 14.136 59.6232 14.584C59.1966 15.0107 58.9832 15.5227 58.9832 16.12C58.9832 16.7173 59.1966 17.24 59.6232 17.688C60.0499 18.136 60.5512 18.36 61.1272 18.36Z" fill="#363A33"/>
</svg>
