<svg width="184" height="83" viewBox="0 0 184 83" fill="none" xmlns="http://www.w3.org/2000/svg">
<path d="M92.3814 39.5321C88.748 39.8098 85.6264 39.4795 83.0165 38.5414C80.4067 37.6033 78.3478 35.9172 76.84 33.4832C75.3293 31.0152 74.3919 27.6606 74.0278 23.4194C73.7103 19.721 74.0302 16.4807 74.9877 13.6983C75.979 10.913 77.5657 8.69185 79.7476 7.03484C81.9267 5.34391 84.6957 4.35429 88.0548 4.06598C91.0067 3.81262 93.6217 4.01542 95.9 4.67437C98.1783 5.33332 100.014 6.40627 101.406 7.89321C102.829 9.34332 103.702 11.1483 104.024 13.3081C104.337 15.3662 104.136 17.1951 103.418 18.7947C102.735 20.3914 101.63 21.8535 100.104 23.1808C101.309 23.2824 102.434 23.8523 103.48 24.8905C104.56 25.9257 105.169 27.2407 105.306 28.8354C105.399 29.9211 105.273 31.0428 104.928 32.2003C104.583 33.3578 103.926 34.4568 102.955 35.4971C102.019 36.5345 100.677 37.4187 98.9278 38.1499C97.21 38.8442 95.0279 39.3049 92.3814 39.5321ZM87.2399 20.8498C87.9786 21.094 88.8399 21.1739 89.8239 21.0895C90.805 20.9711 91.6469 20.6254 92.3496 20.0524C93.0863 19.4764 93.4095 18.6626 93.3192 17.6107C93.2522 16.8304 92.9608 16.223 92.445 15.7888C91.9631 15.3516 91.3756 15.0774 90.6825 14.966C89.9864 14.8206 89.2836 14.7955 88.5739 14.8906C87.8643 14.9857 87.2667 15.1908 86.7811 15.5059C86.1626 15.8666 85.7667 16.4304 85.5933 17.1972C85.4538 17.9611 85.5178 18.7076 85.7855 19.4366C86.0842 20.1287 86.569 20.5998 87.2399 20.8498ZM88.2623 32.7591C88.9981 32.9694 89.858 33.0323 90.842 32.9479C91.823 32.8295 92.6679 32.5177 93.3764 32.0126C94.119 31.5045 94.4509 30.7924 94.3722 29.8763C94.314 29.1977 94.0299 28.6752 93.5199 28.3089C93.0409 27.9056 92.4549 27.6483 91.7617 27.5369C91.0686 27.4255 90.3686 27.4343 89.6619 27.5633C88.9523 27.6584 88.3518 27.8296 87.8603 28.0768C87.2389 28.4036 86.8372 28.8995 86.655 29.5646C86.5068 30.2267 86.5621 30.8714 86.8211 31.4986C87.1139 32.1228 87.5943 32.543 88.2623 32.7591Z" fill="#54A312"/>
<path d="M117.93 37.4418C115.422 37.6912 113.173 37.3716 111.182 36.4829C109.223 35.5573 107.622 34.225 106.379 32.486C105.167 30.7101 104.431 28.7054 104.17 26.4719C103.938 24.1676 104.29 22.0866 105.224 20.2291C106.155 18.3376 107.543 16.783 109.386 15.5652C111.23 14.3474 113.39 13.6322 115.867 13.4196C118.307 13.176 120.506 13.5 122.462 14.3916C124.452 15.2804 126.085 16.5758 127.359 18.278C128.633 19.9802 129.403 21.982 129.669 24.2834C129.892 26.4859 129.539 28.5498 128.611 30.4752C127.68 32.3667 126.293 33.9383 124.453 35.1901C122.609 36.4079 120.435 37.1585 117.93 37.4418ZM117.444 29.9981C118.361 29.9195 119.127 29.4948 119.745 28.724C120.362 27.9532 120.63 27.0928 120.549 26.1428C120.467 25.1928 120.058 24.4076 119.321 23.7872C118.581 23.133 117.753 22.8451 116.837 22.9238C115.921 23.0024 115.154 23.4271 114.537 24.1979C113.916 24.9347 113.647 25.7781 113.729 26.7282C113.81 27.6782 114.221 28.4803 114.961 29.1346C115.7 29.7889 116.528 30.0767 117.444 29.9981Z" fill="#54A312"/>
<path d="M144.301 35.1271C141.859 35.3367 139.777 35.1736 138.056 34.6377C136.332 34.0679 134.879 33.2697 133.697 32.2433C132.549 31.2139 131.613 30.0637 130.889 28.7929C130.199 27.5191 129.662 26.2493 129.28 24.9832C128.898 23.7172 128.628 22.5612 128.47 21.5152C128.346 20.4663 128.262 19.6873 128.218 19.1784C128.084 17.6176 128.029 15.9817 128.053 14.2707C128.077 12.5596 128.207 10.8907 128.443 9.26401C128.677 7.60335 129.043 6.10214 129.544 4.76039C130.077 3.41573 130.752 2.31535 131.567 1.45925C132.382 0.603152 133.401 0.122683 134.622 0.0178446C135.708 -0.0753452 136.723 0.196464 137.666 0.833272C138.643 1.46717 139.196 2.53057 139.324 4.02348C139.449 5.48245 139.336 6.94485 138.983 8.41067C138.661 9.83965 138.495 11.2894 138.485 12.7601C139.227 12.252 140.032 11.8753 140.9 11.6299C141.765 11.3506 142.621 11.1746 143.469 11.1018C145.268 10.9474 147.034 11.223 148.77 11.9286C150.502 12.6002 151.967 13.7391 153.165 15.3453C154.396 16.9486 155.125 19.0735 155.353 21.72C155.53 23.7897 155.209 25.8169 154.388 27.8014C153.601 29.783 152.342 31.4462 150.612 32.791C148.916 34.1329 146.812 34.9116 144.301 35.1271ZM143.306 27.1119C144.222 27.0333 144.99 26.6256 145.61 25.8887C146.262 25.1151 146.547 24.2532 146.465 23.3032C146.384 22.3531 145.956 21.5524 145.182 20.9011C144.442 20.2468 143.615 19.959 142.698 20.0376C141.782 20.1162 141.016 20.5409 140.398 21.3117C139.781 22.0824 139.513 22.9428 139.594 23.8929C139.676 24.8429 140.087 25.6451 140.826 26.2994C141.563 26.9197 142.39 27.1906 143.306 27.1119Z" fill="#54A312"/>
<path d="M168.158 33.1307C165.65 33.3801 163.401 33.0605 161.411 32.1717C159.452 31.2462 157.85 29.9139 156.607 28.1749C155.395 26.399 154.659 24.3943 154.399 22.1608C154.167 19.8565 154.518 17.7755 155.453 15.918C156.384 14.0265 157.771 12.4719 159.615 11.2541C161.459 10.0363 163.619 9.32106 166.096 9.10847C168.536 8.86486 170.734 9.18888 172.691 10.0805C174.681 10.9693 176.313 12.2647 177.587 13.9669C178.861 15.6691 179.631 17.6709 179.897 19.9723C180.121 22.1748 179.768 24.2387 178.84 26.1641C177.908 28.0556 176.522 29.6272 174.681 30.8789C172.838 32.0968 170.663 32.8473 168.158 33.1307ZM167.673 25.687C168.589 25.6084 169.356 25.1837 169.973 24.4129C170.591 23.6421 170.859 22.7817 170.777 21.8317C170.696 20.8817 170.286 20.0965 169.55 19.4761C168.81 18.8218 167.982 18.534 167.066 18.6126C166.15 18.6913 165.383 19.116 164.765 19.8867C164.145 20.6236 163.876 21.467 163.957 22.417C164.039 23.3671 164.45 24.1692 165.189 24.8235C165.929 25.4778 166.757 25.7656 167.673 25.687Z" fill="#54A312"/>
<path d="M88.287 79.1562C86.7262 79.2902 85.287 78.8497 83.9694 77.8349C82.6828 76.7832 81.5924 75.0311 80.6983 72.5785C79.8381 70.1231 79.2346 66.8765 78.888 62.8389C78.652 60.0906 78.8776 57.5419 79.5646 55.1929C80.2516 52.8439 81.3056 50.7881 82.7265 49.0255C84.1445 47.229 85.8506 45.8008 87.8445 44.741C89.8356 43.6473 92.0017 42.9999 94.3429 42.799C98.2787 42.4612 101.289 42.8864 103.373 44.0747C105.489 45.2261 106.647 46.9724 106.848 49.3136C106.999 51.0779 106.688 52.4206 105.912 53.3417C105.168 54.2259 104.044 54.8692 102.54 55.2717C101.071 55.6713 99.3179 55.9584 97.2821 56.1332C96.1285 56.2322 95.0403 56.4965 94.0176 56.926C92.992 57.3217 92.1676 57.871 91.5443 58.5739C90.9521 59.2399 90.6444 60.0354 90.6213 60.9602C90.6358 61.1299 90.632 61.284 90.6097 61.4227C91.2175 61.3363 91.8268 61.2669 92.4375 61.2145C93.0483 61.1621 93.659 61.1097 94.2698 61.0572C95.7627 60.9291 97.2231 60.8208 98.6511 60.7325C100.11 60.6072 101.444 60.6124 102.651 60.748C103.856 60.8497 104.841 61.1753 105.606 61.7248C106.371 62.2744 106.805 63.143 106.907 64.3305C107.017 65.6199 106.744 66.6174 106.087 67.3233C105.427 67.9951 104.512 68.4838 103.342 68.7893C102.172 69.0948 100.857 69.3102 99.3982 69.4354C97.9703 69.5238 96.5098 69.6321 95.0169 69.7602C94.4741 69.8068 93.9326 69.8704 93.3927 69.9509C92.8837 69.9946 92.3578 70.0397 91.8149 70.0863C91.9236 70.5555 92.0167 71.0431 92.0943 71.5491C92.172 72.0552 92.2341 72.5796 92.2807 73.1225C92.3622 74.0725 92.3052 75.0003 92.1095 75.9058C91.9448 76.7744 91.5634 77.5078 90.9654 78.106C90.3673 78.7042 89.4745 79.0543 88.287 79.1562Z" fill="#54A312"/>
<path d="M121.996 76.3655C119.488 76.6149 117.239 76.2953 115.249 75.4065C113.29 74.4809 111.688 73.1487 110.445 71.4096C109.233 69.6338 108.497 67.6291 108.237 65.3955C108.005 63.0912 108.356 61.0103 109.29 59.1528C110.222 57.2613 111.609 55.7067 113.453 54.4889C115.297 53.271 117.457 52.5558 119.934 52.3433C122.374 52.0996 124.572 52.4237 126.529 53.3153C128.519 54.2041 130.151 55.4995 131.425 57.2017C132.699 58.9039 133.469 60.9056 133.735 63.207C133.959 65.4096 133.606 67.4735 132.678 69.3989C131.746 71.2904 130.36 72.862 128.519 74.1137C126.676 75.3315 124.501 76.0821 121.996 76.3655ZM121.511 68.9218C122.427 68.8432 123.194 68.4185 123.811 67.6477C124.429 66.8769 124.697 66.0165 124.615 65.0665C124.534 64.1165 124.124 63.3313 123.388 62.7109C122.648 62.0566 121.82 61.7688 120.904 61.8474C119.988 61.9261 119.221 62.3508 118.603 63.1215C117.983 63.8584 117.714 64.7018 117.795 65.6518C117.877 66.6019 118.287 67.404 119.027 68.0583C119.767 68.7126 120.595 69.0004 121.511 68.9218Z" fill="#54A312"/>
<path d="M146.489 74.2633C143.981 74.5127 141.732 74.193 139.742 73.3043C137.783 72.3787 136.181 71.0464 134.938 69.3074C133.726 67.5316 132.99 65.5269 132.73 63.2933C132.498 60.989 132.849 58.9081 133.784 57.0506C134.715 55.1591 136.102 53.6044 137.946 52.3866C139.79 51.1688 141.95 50.4536 144.427 50.241C146.867 49.9974 149.065 50.3214 151.022 51.2131C153.012 52.1018 154.644 53.3973 155.918 55.0995C157.192 56.8016 157.962 58.8034 158.228 61.1048C158.452 63.3073 158.099 65.3713 157.171 67.2967C156.239 69.1881 154.853 70.7598 153.012 72.0115C151.169 73.2293 148.994 73.9799 146.489 74.2633ZM146.004 66.8195C146.92 66.7409 147.687 66.3162 148.304 65.5455C148.922 64.7747 149.19 63.9143 149.108 62.9643C149.027 62.0142 148.617 61.229 147.881 60.6087C147.141 59.9544 146.313 59.6666 145.397 59.7452C144.481 59.8238 143.714 60.2485 143.096 61.0193C142.476 61.7561 142.207 62.5996 142.288 63.5496C142.37 64.4996 142.781 65.3018 143.52 65.9561C144.26 66.6104 145.088 66.8982 146.004 66.8195Z" fill="#54A312"/>
<path d="M170.367 72.1626C167.857 72.3781 165.634 71.9707 163.7 70.9404C161.8 69.9072 160.276 68.4828 159.129 66.6672C158.016 64.8487 157.37 62.9045 157.193 60.8348C156.965 58.1883 157.305 55.9717 158.211 54.1849C159.151 52.3952 160.418 51.0219 162.01 50.0649C163.6 49.0739 165.294 48.5013 167.092 48.3469C167.94 48.2741 168.814 48.3017 169.714 48.4295C170.611 48.5235 171.468 48.7575 172.287 49.1316C172.026 47.6843 171.598 46.2854 171.003 44.9351C170.44 43.5479 170.096 42.1248 169.97 40.6658C169.842 39.1729 170.206 38.0309 171.061 37.2397C171.915 36.4486 172.869 36.0079 173.921 35.9176C175.142 35.8127 176.227 36.1127 177.177 36.8173C178.126 37.522 178.961 38.4928 179.683 39.7297C180.438 40.9637 181.072 42.379 181.585 43.9756C182.095 45.5382 182.508 47.1605 182.823 48.8425C183.139 50.5244 183.363 52.1457 183.497 53.7065C183.541 54.2154 183.574 54.9987 183.596 56.0564C183.653 57.1111 183.601 58.2948 183.44 59.6074C183.279 60.92 182.95 62.2642 182.453 63.6399C181.99 65.0126 181.263 66.3055 180.274 67.5183C179.318 68.7283 178.04 69.7609 176.438 70.6161C174.834 71.4374 172.81 71.9529 170.367 72.1626ZM169.982 64.095C170.898 64.0164 171.667 63.6086 172.287 62.8718C172.904 62.101 173.172 61.2406 173.091 60.2906C173.009 59.3406 172.599 58.5384 171.859 57.8841C171.119 57.2299 170.291 56.942 169.375 57.0207C168.459 57.0993 167.675 57.5254 167.024 58.2991C166.406 59.0699 166.138 59.9303 166.22 60.8803C166.302 61.8304 166.712 62.6325 167.452 63.2868C168.223 63.9042 169.066 64.1736 169.982 64.095Z" fill="#54A312"/>
<g clip-path="url(#clip0_2852_5565)">
<path d="M68.7846 58.7682C68.677 63.5099 66.8471 68.0503 63.6368 71.5416C60.4265 75.033 56.0552 77.2365 51.3392 77.7408L29.1677 80.0727C24.5307 80.5546 19.8745 79.36 16.0424 76.7051C12.2102 74.0503 9.45557 70.1108 8.27735 65.6003C8.53042 65.6353 8.77006 65.7025 9.0297 65.7201C13.0987 65.9842 17.0173 67.3592 20.3592 69.6955C22.664 71.3291 25.485 72.0672 28.2946 71.7717C31.1041 71.4762 33.7098 70.1674 35.6243 68.09C39.2894 64.1625 44.2494 61.6905 49.592 61.1287L66.2206 59.3798C67.0966 59.2788 67.9574 59.0735 68.7846 58.7682ZM4.11031 54.9674C4.24043 56.3151 4.84111 57.5739 5.8069 58.5227C6.77269 59.4716 8.04187 60.05 9.39162 60.1563C14.4768 60.4881 19.3737 62.2079 23.5496 65.1288C24.7587 65.9839 26.2374 66.37 27.7101 66.2151C29.1828 66.0602 30.5489 65.3748 31.5536 64.2869C36.134 59.3787 42.3324 56.2889 49.009 55.5859L65.6376 53.8369C67.1077 53.6823 68.4561 52.95 69.3863 51.8012C70.3164 50.6523 70.7521 49.1811 70.5975 47.711C70.4429 46.2409 69.7106 44.8925 68.5618 43.9623C67.413 43.0322 65.9417 42.5965 64.4716 42.7511L9.30332 48.5536C7.76416 48.7155 6.35235 49.4822 5.37847 50.685C4.4046 51.8879 3.94843 53.4283 4.11031 54.9674ZM66.6583 36.9001L66.7015 37.3103C65.772 37.1571 64.8268 37.1228 63.8886 37.2082L8.72032 43.0108C7.69467 43.1339 6.69089 43.3979 5.73734 43.7953L5.68662 43.313C4.92185 35.9643 7.1034 28.6124 11.7526 22.8702C16.4019 17.128 23.1391 13.4646 30.4861 12.6837L36.0289 12.1007C43.3776 11.3359 50.7296 13.5174 56.4718 18.1667C62.214 22.8159 65.8774 29.5531 66.6583 36.9001ZM21.4408 33.2497C21.3635 32.5147 20.9973 31.8405 20.4229 31.3754C19.8485 30.9103 19.1129 30.6925 18.3778 30.7698C17.6428 30.8471 16.9686 31.2132 16.5035 31.7876C16.0384 32.362 15.8206 33.0977 15.8979 33.8327C15.9752 34.5678 16.3413 35.242 16.9157 35.707C17.4902 36.1721 18.2258 36.39 18.9608 36.3127C19.6959 36.2354 20.3701 35.8692 20.8352 35.2948C21.3002 34.7204 21.5181 33.9848 21.4408 33.2497ZM28.8806 24.0609C28.8033 23.3259 28.4372 22.6517 27.8627 22.1866C27.2883 21.7215 26.5527 21.5037 25.8177 21.581C25.0826 21.6583 24.4084 22.0244 23.9433 22.5988C23.4783 23.1732 23.2604 23.9089 23.3377 24.6439C23.415 25.3789 23.7812 26.0532 24.3556 26.5182C24.93 26.9833 25.6656 27.2012 26.4007 27.1239C27.1357 27.0465 27.8099 26.6804 28.275 26.106C28.7401 25.5316 28.9579 24.7959 28.8806 24.0609Z" fill="#54A312"/>
</g>
<defs>
<clipPath id="clip0_2852_5565">
<rect width="66.8815" height="66.8815" fill="white" transform="translate(0 15.8901) rotate(-6.00422)"/>
</clipPath>
</defs>
</svg>
