<svg width="15" height="13" viewBox="0 0 15 13" fill="none" xmlns="http://www.w3.org/2000/svg">
<path fill-rule="evenodd" clip-rule="evenodd" d="M13.5681 9.405C13.7187 8.6475 13.75 7.66 13.75 6.25C13.75 4.84 13.7187 3.8525 13.5681 3.095C13.4331 2.40125 13.235 2.10937 13.0281 1.93687C12.7881 1.73687 12.3444 1.53625 11.405 1.40938C10.4481 1.27875 9.20375 1.25 7.5 1.25C5.79688 1.25 4.55187 1.27875 3.595 1.40938C2.65562 1.53625 2.21188 1.73687 1.97188 1.93687C1.765 2.10937 1.56687 2.40125 1.43187 3.095C1.28125 3.8525 1.25 4.84 1.25 6.25C1.25 7.66 1.28125 8.6475 1.43187 9.405C1.56687 10.0988 1.765 10.3906 1.97188 10.5631C2.21188 10.7631 2.65562 10.9637 3.595 11.09C4.55187 11.2212 5.79688 11.25 7.5 11.25C9.20375 11.25 10.4481 11.2212 11.405 11.09C12.3444 10.9637 12.7881 10.7631 13.0281 10.5631C13.235 10.3906 13.4331 10.0988 13.5681 9.405ZM7.5 12.5C14.375 12.5 15 11.9794 15 6.25C15 0.520625 14.375 0 7.5 0C0.625 0 0 0.520625 0 6.25C0 11.9794 0.625 12.5 7.5 12.5Z" fill="#60635E"/>
<path fill-rule="evenodd" clip-rule="evenodd" d="M1.25 3.125H13.75V5.625H1.25V3.125Z" fill="#60635E"/>
</svg>
