<svg width="28" height="28" viewBox="0 0 28 28" fill="none" xmlns="http://www.w3.org/2000/svg">
<path d="M23.0706 8.04997C22.6331 7.52498 22.0206 7.17498 21.3206 7.17498H10.9957C10.4707 7.17498 10.1207 7.52498 10.1207 8.04997C10.1207 8.57497 10.4707 8.92497 10.9957 8.92497H21.2331C21.4081 8.92497 21.5831 9.01246 21.5831 9.09996C21.6706 9.27496 21.7581 9.44996 21.6706 9.62496L20.4456 14.9624C20.2706 15.8374 19.4831 16.4499 18.6081 16.4499H13.0082C12.1332 16.4499 11.4332 15.9249 11.1707 15.0499L10.4707 12.8624L8.63322 6.82498C8.19572 5.33749 6.88323 4.375 5.39575 4.375C4.87075 4.375 4.52075 4.725 4.52075 5.24999C4.52075 5.77499 4.87075 6.12499 5.39575 6.12499C6.09574 6.12499 6.79573 6.64998 6.97073 7.34998L7.58323 9.36246L9.50821 15.5749C9.94571 17.1499 11.3457 18.1999 13.0082 18.1999H18.7831C20.5331 18.1999 21.9331 16.9749 22.3706 15.3124L23.5956 9.97496C23.6831 9.36246 23.5081 8.66247 23.0706 8.04997Z" fill="#A9ADA5"/>
<path d="M12.3079 19.575C13.2565 19.5752 14.0823 20.4016 14.0823 21.3503C14.082 22.2989 13.2564 23.1245 12.3079 23.1248C11.3591 23.1248 10.5327 22.299 10.5325 21.3503C10.5325 20.4015 11.359 19.575 12.3079 19.575ZM12.3079 20.325C12.014 20.325 11.7616 20.4669 11.593 20.6355C11.4455 20.7831 11.3187 20.9945 11.2893 21.2419L11.2825 21.3503L11.2893 21.4578C11.3187 21.7052 11.4455 21.9166 11.593 22.0642C11.7616 22.2328 12.014 22.3748 12.3079 22.3748C12.6016 22.3746 12.8532 22.2327 13.0217 22.0642C13.1903 21.8957 13.3321 21.644 13.3323 21.3503C13.3323 21.0565 13.1903 20.8041 13.0217 20.6355C12.8741 20.4879 12.6628 20.3612 12.4153 20.3318L12.3079 20.325Z" fill="#A9ADA5" stroke="#A9ADA5"/>
<path d="M19.2217 19.575C20.1704 19.5752 20.9961 20.4016 20.9961 21.3503C20.9959 22.2989 20.1702 23.1245 19.2217 23.1248C18.273 23.1248 17.4465 22.299 17.4463 21.3503C17.4463 20.4015 18.2728 19.575 19.2217 19.575ZM19.2217 20.325C18.9278 20.325 18.6754 20.4669 18.5068 20.6355C18.3593 20.7831 18.2326 20.9945 18.2031 21.2419L18.1963 21.3503L18.2031 21.4578C18.2325 21.7052 18.3593 21.9166 18.5068 22.0642C18.6754 22.2328 18.9278 22.3748 19.2217 22.3748C19.5154 22.3746 19.767 22.2327 19.9355 22.0642C20.1041 21.8957 20.246 21.644 20.2461 21.3503C20.2461 21.0565 20.1042 20.8041 19.9355 20.6355C19.788 20.4879 19.5766 20.3612 19.3291 20.3318L19.2217 20.325Z" fill="#A9ADA5" stroke="#A9ADA5"/>
</svg>
