<svg width="14" height="14" viewBox="0 0 14 14" fill="none" xmlns="http://www.w3.org/2000/svg">
<path fill-rule="evenodd" clip-rule="evenodd" d="M12.2222 6.66667C12.2222 9.735 9.735 12.2222 6.66667 12.2222C3.59833 12.2222 1.11111 9.735 1.11111 6.66667C1.11111 3.59833 3.59833 1.11111 6.66667 1.11111C9.735 1.11111 12.2222 3.59833 12.2222 6.66667ZM13.3333 6.66667C13.3333 10.3483 10.3483 13.3333 6.66667 13.3333C2.985 13.3333 0 10.3483 0 6.66667C0 2.985 2.985 0 6.66667 0C10.3483 0 13.3333 2.985 13.3333 6.66667Z" fill="#60635E"/>
<path fill-rule="evenodd" clip-rule="evenodd" d="M6.46669 7.22217C6.31935 7.22217 6.17804 7.16364 6.07385 7.05945C5.96966 6.95526 5.91113 6.81396 5.91113 6.66661V2.77772C5.91113 2.63038 5.96966 2.48907 6.07385 2.38489C6.17804 2.2807 6.31935 2.22217 6.46669 2.22217C6.61403 2.22217 6.75534 2.2807 6.85953 2.38489C6.96371 2.48907 7.02224 2.63038 7.02224 2.77772V6.66661C7.02224 6.81396 6.96371 6.95526 6.85953 7.05945C6.75534 7.16364 6.61403 7.22217 6.46669 7.22217Z" fill="#60635E"/>
<path fill-rule="evenodd" clip-rule="evenodd" d="M9.83421 8.61193C9.76053 8.73952 9.63919 8.83263 9.49687 8.87076C9.35455 8.90889 9.20292 8.88893 9.07532 8.81526L6.18865 7.14859C6.06209 7.0744 5.97002 6.95316 5.93252 6.81133C5.89502 6.6695 5.91514 6.51859 5.9885 6.39154C6.06185 6.26449 6.18248 6.17162 6.32406 6.13318C6.46564 6.09474 6.61667 6.11386 6.74421 6.18637L9.63087 7.85304C9.75847 7.92671 9.85157 8.04806 9.88971 8.19037C9.92784 8.33269 9.90787 8.48433 9.83421 8.61193Z" fill="#60635E"/>
</svg>
