<svg width="28" height="28" viewBox="0 0 28 28" fill="none" xmlns="http://www.w3.org/2000/svg">
<path fill-rule="evenodd" clip-rule="evenodd" d="M22.0208 14C22.0208 18.4299 18.4299 22.0208 14 22.0208C9.57009 22.0208 5.97917 18.4299 5.97917 14C5.97917 9.57009 9.57009 5.97917 14 5.97917C18.4299 5.97917 22.0208 9.57009 22.0208 14ZM23.625 14C23.625 19.3154 19.3154 23.625 14 23.625C8.68459 23.625 4.375 19.3154 4.375 14C4.375 8.68459 8.68459 4.375 14 4.375C19.3154 4.375 23.625 8.68459 23.625 14Z" fill="#A9ADA5"/>
<path fill-rule="evenodd" clip-rule="evenodd" d="M18.5374 9.46251C18.6607 9.58578 18.7405 9.74586 18.7646 9.91852C18.7888 10.0912 18.756 10.267 18.6713 10.4194L15.8352 15.5239C15.7625 15.6546 15.6547 15.7624 15.524 15.8351L10.4195 18.6712C10.2671 18.756 10.0913 18.7888 9.91858 18.7646C9.74589 18.7405 9.58576 18.6607 9.46246 18.5374C9.33917 18.4141 9.25941 18.254 9.23526 18.0813C9.21112 17.9086 9.24392 17.7328 9.32868 17.5804L12.1648 12.4759C12.2375 12.3452 12.3453 12.2374 12.4761 12.1647L17.5805 9.32856C17.7329 9.24386 17.9087 9.21112 18.0814 9.23529C18.254 9.25945 18.4141 9.33922 18.5374 9.46251ZM13.4554 13.4553L12.0943 15.9056L14.5446 14.5445L15.9058 12.0941L13.4554 13.4553Z" fill="#A9ADA5"/>
</svg>
