<svg width="28" height="28" viewBox="0 0 28 28" fill="none" xmlns="http://www.w3.org/2000/svg">
<path fill-rule="evenodd" clip-rule="evenodd" d="M13.9843 11.8808L12.747 10.6435C11.2665 9.16387 9.94354 8.75 8.95304 8.75C7.92929 8.75 7.04991 9.19012 6.47153 9.7685C5.07853 11.1615 4.82041 12.4127 5.00503 13.5205C5.21066 14.7516 6.01303 16.0825 7.26166 17.381C8.51466 18.6944 9.98116 19.7461 11.3908 20.545C12.0812 20.9396 12.6622 21.2179 13.195 21.4209C13.496 21.5381 13.7638 21.595 13.9029 21.6248L13.9843 21.6422L14.0648 21.6248C14.2039 21.595 14.4725 21.5381 14.7735 21.4209C15.3055 21.2179 15.8874 20.9396 16.5778 20.545C17.9874 19.7461 19.4539 18.6944 20.7069 17.381C21.9555 16.0825 22.7579 14.7516 22.9627 13.5205C23.1473 12.4127 22.89 11.1615 21.497 9.7685C20.8361 9.11577 19.9445 8.74983 19.0155 8.75C18.025 8.75 16.702 9.16387 15.2215 10.6435L13.9843 11.8808ZM13.9843 9.40625C17.4843 5.90625 20.9843 6.78125 22.7343 8.53125C29.7343 15.5312 16.6093 23.4062 13.9843 23.4062C11.3593 23.4062 -1.76572 15.5312 5.23428 8.53125C6.98428 6.78125 10.4843 5.90625 13.9843 9.40625Z" fill="#A9ADA5"/>
</svg>
