<svg width="12" height="15" viewBox="0 0 12 15" fill="none" xmlns="http://www.w3.org/2000/svg">
<path fill-rule="evenodd" clip-rule="evenodd" d="M5.625 6.25C5.97019 6.25 6.25 5.97019 6.25 5.625C6.25 5.27981 5.97019 5 5.625 5C5.27981 5 5 5.27981 5 5.625C5 5.97019 5.27981 6.25 5.625 6.25ZM5.625 7.5C6.66056 7.5 7.5 6.66056 7.5 5.625C7.5 4.58944 6.66056 3.75 5.625 3.75C4.58944 3.75 3.75 4.58944 3.75 5.625C3.75 6.66056 4.58944 7.5 5.625 7.5Z" fill="#60635E"/>
<path fill-rule="evenodd" clip-rule="evenodd" d="M5.625 1.25C3.20875 1.25 1.25 3.20876 1.25 5.625C1.25 7.37119 1.91644 8.97812 2.77625 10.3212C3.63506 11.6627 4.664 12.7051 5.33063 13.3091C5.50419 13.4663 5.74581 13.4663 5.91938 13.3091C6.586 12.7051 7.61494 11.6627 8.47375 10.3212C9.33356 8.97812 10 7.37119 10 5.625C10 3.20876 8.04125 1.25 5.625 1.25ZM0 5.625C0 2.5184 2.51837 0 5.625 0C8.73163 0 11.25 2.5184 11.25 5.625C11.25 7.68962 10.4642 9.53037 9.5265 10.9952C8.58769 12.4617 7.47363 13.5876 6.75863 14.2354C6.10881 14.8242 5.14119 14.8242 4.49138 14.2354C3.77638 13.5876 2.66231 12.4617 1.72352 10.9952C0.785781 9.53037 0 7.68962 0 5.625Z" fill="#60635E"/>
</svg>
