<svg width="15" height="12" viewBox="0 0 15 12" fill="none" xmlns="http://www.w3.org/2000/svg">
<path fill-rule="evenodd" clip-rule="evenodd" d="M14.375 5C14.375 9.0625 13.7762 10 7.1875 10C6.86437 10 6.55625 9.9975 6.26125 9.99313C6.26062 9.99313 6.26 9.99312 6.26 9.99375L3.47188 11.8525C3.05625 12.1294 2.5 11.8313 2.5 11.3319V9.63625C2.5 9.635 2.49875 9.63375 2.4975 9.63313C0.274375 9.06875 0 7.75063 0 5C0 0.9375 0.59875 0 7.1875 0C13.7762 0 14.375 0.9375 14.375 5ZM4.0625 6.25C4.58 6.25 5 5.83 5 5.3125C5 4.795 4.58 4.375 4.0625 4.375C3.545 4.375 3.125 4.795 3.125 5.3125C3.125 5.83 3.545 6.25 4.0625 6.25ZM10.3125 6.25C10.83 6.25 11.25 5.83 11.25 5.3125C11.25 4.795 10.83 4.375 10.3125 4.375C9.795 4.375 9.375 4.795 9.375 5.3125C9.375 5.83 9.795 6.25 10.3125 6.25ZM8.125 5.3125C8.125 5.83 7.705 6.25 7.1875 6.25C6.67 6.25 6.25 5.83 6.25 5.3125C6.25 4.795 6.67 4.375 7.1875 4.375C7.705 4.375 8.125 4.795 8.125 5.3125Z" fill="#60635E"/>
</svg>
