<svg width="28" height="28" viewBox="0 0 28 28" fill="none" xmlns="http://www.w3.org/2000/svg">
<path fill-rule="evenodd" clip-rule="evenodd" d="M19.4399 17.0416C18.9919 16.0362 18.389 14.6275 18.389 13.1155C18.389 10.3855 17.6207 9.21998 16.9522 8.6731C16.2172 8.07198 15.183 7.86548 14.0131 7.86548C12.8441 7.86548 11.8099 8.07198 11.0749 8.6731C10.4064 9.21998 9.63812 10.3855 9.63812 13.1155C9.63812 14.6284 9.03524 16.0371 8.58724 17.0425C8.54699 17.1326 8.50849 17.2192 8.47087 17.3032C8.01062 18.334 7.77437 18.8625 7.74549 19.2589C7.74549 19.2606 7.74462 19.2624 7.74462 19.2641C7.80324 19.3175 7.92574 19.4137 8.13749 19.4899C8.99587 19.8337 10.7345 20.1155 14.0131 20.1155C17.2926 20.1155 19.0312 19.8337 19.8887 19.4899C20.1014 19.4137 20.2239 19.3166 20.2825 19.2632C20.2825 19.2615 20.2816 19.2597 20.2816 19.258C20.2527 18.8616 20.0165 18.3322 19.5554 17.2997C19.5186 17.2175 19.4801 17.1309 19.4399 17.0416ZM20.2886 19.3402C20.286 19.335 20.2834 19.314 20.2869 19.2947C20.2921 19.3359 20.2904 19.3455 20.2886 19.3402ZM7.73849 19.3411C7.73674 19.3464 7.73499 19.3367 7.74024 19.2965C7.74287 19.3157 7.74024 19.3359 7.73849 19.3411ZM21.196 16.6802C20.6885 15.5559 20.139 14.3361 20.139 13.1155C20.139 6.99048 16.639 6.11548 14.0131 6.11548C11.389 6.11548 7.88812 6.99048 7.88812 13.1155C7.88812 14.337 7.33774 15.5567 6.83024 16.682C5.51862 19.5922 4.49312 21.8655 14.0131 21.8655C23.5349 21.8655 22.5085 19.5905 21.196 16.6802Z" fill="#A9ADA5"/>
<path fill-rule="evenodd" clip-rule="evenodd" d="M15.281 5.32087C15.5374 5.35325 15.7798 5.16687 15.7281 4.914C15.5671 4.123 14.8575 3.5 14.0131 3.5C13.1679 3.5 12.4591 4.123 12.2981 4.914C12.2465 5.16687 12.4889 5.35325 12.7453 5.32087C13.5809 5.21412 14.4454 5.21412 15.281 5.32087Z" fill="#A9ADA5"/>
<path fill-rule="evenodd" clip-rule="evenodd" d="M11.3557 22.672C10.8963 22.6414 10.472 22.9958 10.6207 23.4315C11.0582 24.7143 12.7321 25.3749 14.0131 25.3749C15.295 25.3749 16.9671 24.7143 17.4055 23.4315C17.5542 22.9958 17.1298 22.6414 16.6705 22.672C16.1848 22.7044 15.6677 23.1751 15.2206 23.3676C14.7927 23.5531 14.2336 23.6249 14.0131 23.6249C13.7497 23.6249 13.195 23.5654 12.7802 23.3851C12.3331 23.1918 11.8413 22.7044 11.3557 22.672Z" fill="#A9ADA5"/>
</svg>
