<svg width="11" height="11" viewBox="0 0 11 11" fill="none" xmlns="http://www.w3.org/2000/svg">
<path d="M10.5749 3.97213C10.4293 3.48772 9.99222 3.1002 9.5066 3.05177L7.46703 2.7611L6.54436 0.823489C6.30155 0.290642 5.86447 0 5.33032 0C4.79613 0 4.35908 0.290642 4.11627 0.775048L3.1936 2.71268L1.15402 3.05177C0.668402 3.14862 0.231349 3.48772 0.0856638 3.97213C-0.10858 4.50496 0.0371019 5.0378 0.425596 5.42535L1.931 6.92701L1.59107 9.05839C1.49395 9.59122 1.73675 10.1241 2.17381 10.4147C2.41662 10.56 2.65942 10.6569 2.95079 10.6569C3.1936 10.6569 3.38784 10.6085 3.58208 10.5116L5.42742 9.49434L7.27275 10.5116C7.70984 10.7538 8.24399 10.7054 8.68104 10.4147C9.11809 10.1241 9.3609 9.59122 9.26379 9.05839L8.92385 6.92701L10.4293 5.42535C10.6235 5.0378 10.7692 4.45654 10.5749 3.97213Z" fill="#F5AE42"/>
</svg>
