<svg width="18" height="18" viewBox="0 0 18 18" fill="none" xmlns="http://www.w3.org/2000/svg">
<path d="M17.2433 13.5919L15.5006 11.8469C15.1337 11.4796 14.5834 11.4796 14.2166 11.8469C13.8497 12.2143 13.8497 12.7653 14.2166 13.1327L15.9592 14.8775C16.2344 15.1531 16.2344 15.6122 15.9592 15.8878C15.684 16.1633 15.2255 16.1633 14.9503 15.8878L12.1987 13.1327C12.3821 12.949 12.5656 12.8572 12.749 12.6734C14.1248 11.2959 14.9503 9.36732 14.9503 7.4388C14.9503 5.41836 14.2166 3.58163 12.749 2.20408C9.81401 -0.734694 5.1363 -0.734694 2.20127 2.20408C-0.733757 5.14284 -0.733757 9.82656 2.20127 12.7653C3.57706 14.1428 5.5032 14.9694 7.42931 14.9694C8.52995 14.9694 9.63059 14.6939 10.5478 14.2347L13.5745 17.2653C14.0331 17.7245 14.7669 18 15.4089 18C16.0509 18 16.693 17.7245 17.2433 17.2653C18.2522 16.1633 18.2522 14.5102 17.2433 13.5919ZM3.48535 11.2959C1.28408 9.09186 1.28408 5.51022 3.48535 3.39796C4.58598 2.29592 5.96178 1.7449 7.42931 1.7449C8.89679 1.7449 10.2726 2.29592 11.3732 3.39796C12.4739 4.5 13.0242 5.87754 13.0242 7.34694C13.0242 8.81634 12.4739 10.2857 11.3732 11.2959C10.2726 12.3061 8.89679 12.949 7.42931 12.949C5.96178 12.949 4.49424 12.398 3.48535 11.2959Z" fill="#A9ADA5"/>
</svg>
