<svg width="18" height="15" viewBox="0 0 18 15" fill="none" xmlns="http://www.w3.org/2000/svg">
<path d="M2.62487 9.75C4.07231 9.75 5.24976 10.9275 5.24976 12.3749C5.24976 13.8223 4.07231 14.9998 2.62487 14.9998C1.17743 14.9998 -2.47955e-05 13.8223 -2.47955e-05 12.3749C-2.47955e-05 10.9275 1.17743 9.75 2.62487 9.75Z" fill="white"/>
<path d="M0.749969 8.24966C0.335236 8.24966 0 7.91367 0 7.49969C0 7.08571 0.335236 6.74972 0.749969 6.74972H2.62489C2.82588 6.74972 3.02537 6.76322 3.22262 6.78647L4.47956 3.5526C4.26282 3.67485 4.01608 3.74984 3.74909 3.74984C3.33511 3.74984 2.99913 3.41386 2.99913 2.99988V1.49994C2.99913 1.08595 3.33511 0.749969 3.74909 0.749969C4.41882 0.749969 4.97904 1.1917 5.17178 1.79768C5.65101 0.704221 6.70997 0 7.91292 0H8.24891C8.66364 0 8.99887 0.335986 8.99887 0.749969C8.99887 1.16395 8.66364 1.49994 8.24891 1.49994H7.91292C7.30019 1.49994 6.73847 1.88467 6.51498 2.45615L4.6798 7.17495C5.37878 7.47419 6.017 7.92192 6.54273 8.50615L7.77268 9.96634C8.05766 10.3046 8.47765 10.4996 8.92013 10.4996H9.09187L10.7381 6.38523C11.1933 5.24603 12.2965 4.49981 13.5234 4.49981H15.7501C16.9928 4.49981 18 5.50702 18 6.74972V9.74959C18 10.7471 17.3468 11.5825 16.4483 11.878C16.4791 12.0407 16.5001 12.2057 16.5001 12.3745C16.5001 13.8219 15.3226 14.9994 13.8752 14.9994C12.4277 14.9994 11.2503 13.8219 11.2503 12.3745C11.2503 12.2477 11.2623 12.1232 11.2803 11.9995H8.91938C8.03516 11.9995 7.1967 11.6095 6.62747 10.933L5.41327 9.49086C4.70305 8.70189 3.68685 8.24966 2.62564 8.24966H0.749969Z" fill="white"/>
</svg>
